<?xml version="1.0" encoding="utf-8" standalone="no"?>
<!DOCTYPE svg PUBLIC "-//W3C//DTD SVG 1.1//EN"
  "http://www.w3.org/Graphics/SVG/1.1/DTD/svg11.dtd">
<svg xmlns:xlink="http://www.w3.org/1999/xlink" width="723.845898pt" height="391.605156pt" viewBox="0 0 723.845898 391.605156" xmlns="http://www.w3.org/2000/svg" version="1.1">
 <metadata>
  <rdf:RDF xmlns:dc="http://purl.org/dc/elements/1.1/" xmlns:cc="http://creativecommons.org/ns#" xmlns:rdf="http://www.w3.org/1999/02/22-rdf-syntax-ns#">
   <cc:Work>
    <dc:type rdf:resource="http://purl.org/dc/dcmitype/StillImage"/>
    <dc:date>2026-06-28T18:11:14.925522</dc:date>
    <dc:format>image/svg+xml</dc:format>
    <dc:creator>
     <cc:Agent>
      <dc:title>Matplotlib v3.11.0, https://matplotlib.org/</dc:title>
     </cc:Agent>
    </dc:creator>
   </cc:Work>
  </rdf:RDF>
 </metadata>
 <defs>
  <style type="text/css">*{stroke-linejoin: round; stroke-linecap: butt}</style>
 </defs>
 <g id="figure_1">
  <g id="patch_1">
   <path d="M 0 391.605156 
L 723.845898 391.605156 
L 723.845898 0 
L 0 0 
z
" style="fill: #ffffff"/>
  </g>
  <g id="axes_1">
   <g id="patch_2">
    <path d="M 47.045898 354.635625 
L 716.645898 354.635625 
L 716.645898 21.995625 
L 47.045898 21.995625 
z
" style="fill: #ffffff"/>
   </g>
   <g id="matplotlib.axis_1">
    <g id="xtick_1">
     <g id="text_1">
      <!-- 0 -->
      <g style="fill: #262626" transform="translate(54.410884 368.915898) scale(0.1 -0.1)">
       <defs>
        <path id="ArialMT-13" d="M 266 2259 
Q 266 3072 433 3567 
Q 600 4063 929 4331 
Q 1259 4600 1759 4600 
Q 2128 4600 2406 4451 
Q 2684 4303 2865 4023 
Q 3047 3744 3150 3342 
Q 3253 2941 3253 2259 
Q 3253 1453 3087 958 
Q 2922 463 2592 192 
Q 2263 -78 1759 -78 
Q 1097 -78 719 397 
Q 266 969 266 2259 
z
M 844 2259 
Q 844 1131 1108 757 
Q 1372 384 1759 384 
Q 2147 384 2411 759 
Q 2675 1134 2675 2259 
Q 2675 3391 2411 3762 
Q 2147 4134 1753 4134 
Q 1366 4134 1134 3806 
Q 844 3388 844 2259 
z
" transform="scale(0.015625)"/>
       </defs>
       <use xlink:href="#ArialMT-13"/>
      </g>
     </g>
    </g>
    <g id="xtick_2">
     <g id="text_2">
      <!-- 1 -->
      <g style="fill: #262626" transform="translate(74.701793 368.915898) scale(0.1 -0.1)">
       <defs>
        <path id="ArialMT-14" d="M 2384 0 
L 1822 0 
L 1822 3584 
Q 1619 3391 1289 3197 
Q 959 3003 697 2906 
L 697 3450 
Q 1169 3672 1522 3987 
Q 1875 4303 2022 4600 
L 2384 4600 
L 2384 0 
z
" transform="scale(0.015625)"/>
       </defs>
       <use xlink:href="#ArialMT-14"/>
      </g>
     </g>
    </g>
    <g id="xtick_3">
     <g id="text_3">
      <!-- 2 -->
      <g style="fill: #262626" transform="translate(94.992702 368.915898) scale(0.1 -0.1)">
       <defs>
        <path id="ArialMT-15" d="M 3222 541 
L 3222 0 
L 194 0 
Q 188 203 259 391 
Q 375 700 629 1000 
Q 884 1300 1366 1694 
Q 2113 2306 2375 2664 
Q 2638 3022 2638 3341 
Q 2638 3675 2398 3904 
Q 2159 4134 1775 4134 
Q 1369 4134 1125 3890 
Q 881 3647 878 3216 
L 300 3275 
Q 359 3922 746 4261 
Q 1134 4600 1788 4600 
Q 2447 4600 2831 4234 
Q 3216 3869 3216 3328 
Q 3216 3053 3103 2787 
Q 2991 2522 2730 2228 
Q 2469 1934 1863 1422 
Q 1356 997 1212 845 
Q 1069 694 975 541 
L 3222 541 
z
" transform="scale(0.015625)"/>
       </defs>
       <use xlink:href="#ArialMT-15"/>
      </g>
     </g>
    </g>
    <g id="xtick_4">
     <g id="text_4">
      <!-- 3 -->
      <g style="fill: #262626" transform="translate(115.283612 368.915898) scale(0.1 -0.1)">
       <defs>
        <path id="ArialMT-16" d="M 269 1209 
L 831 1284 
Q 928 806 1161 595 
Q 1394 384 1728 384 
Q 2125 384 2398 659 
Q 2672 934 2672 1341 
Q 2672 1728 2419 1979 
Q 2166 2231 1775 2231 
Q 1616 2231 1378 2169 
L 1441 2663 
Q 1497 2656 1531 2656 
Q 1891 2656 2178 2843 
Q 2466 3031 2466 3422 
Q 2466 3731 2256 3934 
Q 2047 4138 1716 4138 
Q 1388 4138 1169 3931 
Q 950 3725 888 3313 
L 325 3413 
Q 428 3978 793 4289 
Q 1159 4600 1703 4600 
Q 2078 4600 2393 4439 
Q 2709 4278 2876 4000 
Q 3044 3722 3044 3409 
Q 3044 3113 2884 2869 
Q 2725 2625 2413 2481 
Q 2819 2388 3044 2092 
Q 3269 1797 3269 1353 
Q 3269 753 2831 336 
Q 2394 -81 1725 -81 
Q 1122 -81 723 278 
Q 325 638 269 1209 
z
" transform="scale(0.015625)"/>
       </defs>
       <use xlink:href="#ArialMT-16"/>
      </g>
     </g>
    </g>
    <g id="xtick_5">
     <g id="text_5">
      <!-- 4 -->
      <g style="fill: #262626" transform="translate(135.574521 368.915898) scale(0.1 -0.1)">
       <defs>
        <path id="ArialMT-17" d="M 2069 0 
L 2069 1097 
L 81 1097 
L 81 1613 
L 2172 4581 
L 2631 4581 
L 2631 1613 
L 3250 1613 
L 3250 1097 
L 2631 1097 
L 2631 0 
L 2069 0 
z
M 2069 1613 
L 2069 3678 
L 634 1613 
L 2069 1613 
z
" transform="scale(0.015625)"/>
       </defs>
       <use xlink:href="#ArialMT-17"/>
      </g>
     </g>
    </g>
    <g id="xtick_6">
     <g id="text_6">
      <!-- 5 -->
      <g style="fill: #262626" transform="translate(155.86543 368.915898) scale(0.1 -0.1)">
       <defs>
        <path id="ArialMT-18" d="M 266 1200 
L 856 1250 
Q 922 819 1161 601 
Q 1400 384 1738 384 
Q 2144 384 2425 690 
Q 2706 997 2706 1503 
Q 2706 1984 2436 2262 
Q 2166 2541 1728 2541 
Q 1456 2541 1237 2417 
Q 1019 2294 894 2097 
L 366 2166 
L 809 4519 
L 3088 4519 
L 3088 3981 
L 1259 3981 
L 1013 2750 
Q 1425 3038 1878 3038 
Q 2478 3038 2890 2622 
Q 3303 2206 3303 1553 
Q 3303 931 2941 478 
Q 2500 -78 1738 -78 
Q 1113 -78 717 272 
Q 322 622 266 1200 
z
" transform="scale(0.015625)"/>
       </defs>
       <use xlink:href="#ArialMT-18"/>
      </g>
     </g>
    </g>
    <g id="xtick_7">
     <g id="text_7">
      <!-- 6 -->
      <g style="fill: #262626" transform="translate(176.156339 368.915898) scale(0.1 -0.1)">
       <defs>
        <path id="ArialMT-19" d="M 3184 3459 
L 2625 3416 
Q 2550 3747 2413 3897 
Q 2184 4138 1850 4138 
Q 1581 4138 1378 3988 
Q 1113 3794 959 3422 
Q 806 3050 800 2363 
Q 1003 2672 1297 2822 
Q 1591 2972 1913 2972 
Q 2475 2972 2870 2558 
Q 3266 2144 3266 1488 
Q 3266 1056 3080 686 
Q 2894 316 2569 119 
Q 2244 -78 1831 -78 
Q 1128 -78 684 439 
Q 241 956 241 2144 
Q 241 3472 731 4075 
Q 1159 4600 1884 4600 
Q 2425 4600 2770 4297 
Q 3116 3994 3184 3459 
z
M 888 1484 
Q 888 1194 1011 928 
Q 1134 663 1356 523 
Q 1578 384 1822 384 
Q 2178 384 2434 671 
Q 2691 959 2691 1453 
Q 2691 1928 2437 2201 
Q 2184 2475 1800 2475 
Q 1419 2475 1153 2201 
Q 888 1928 888 1484 
z
" transform="scale(0.015625)"/>
       </defs>
       <use xlink:href="#ArialMT-19"/>
      </g>
     </g>
    </g>
    <g id="xtick_8">
     <g id="text_8">
      <!-- 7 -->
      <g style="fill: #262626" transform="translate(196.447248 368.915898) scale(0.1 -0.1)">
       <defs>
        <path id="ArialMT-1a" d="M 303 3981 
L 303 4522 
L 3269 4522 
L 3269 4084 
Q 2831 3619 2401 2847 
Q 1972 2075 1738 1259 
Q 1569 684 1522 0 
L 944 0 
Q 953 541 1156 1306 
Q 1359 2072 1739 2783 
Q 2119 3494 2547 3981 
L 303 3981 
z
" transform="scale(0.015625)"/>
       </defs>
       <use xlink:href="#ArialMT-1a"/>
      </g>
     </g>
    </g>
    <g id="xtick_9">
     <g id="text_9">
      <!-- 8 -->
      <g style="fill: #262626" transform="translate(216.738157 368.915898) scale(0.1 -0.1)">
       <defs>
        <path id="ArialMT-1b" d="M 1131 2484 
Q 781 2613 612 2850 
Q 444 3088 444 3419 
Q 444 3919 803 4259 
Q 1163 4600 1759 4600 
Q 2359 4600 2725 4251 
Q 3091 3903 3091 3403 
Q 3091 3084 2923 2848 
Q 2756 2613 2416 2484 
Q 2838 2347 3058 2040 
Q 3278 1734 3278 1309 
Q 3278 722 2862 322 
Q 2447 -78 1769 -78 
Q 1091 -78 675 323 
Q 259 725 259 1325 
Q 259 1772 486 2073 
Q 713 2375 1131 2484 
z
M 1019 3438 
Q 1019 3113 1228 2906 
Q 1438 2700 1772 2700 
Q 2097 2700 2305 2904 
Q 2513 3109 2513 3406 
Q 2513 3716 2298 3927 
Q 2084 4138 1766 4138 
Q 1444 4138 1231 3931 
Q 1019 3725 1019 3438 
z
M 838 1322 
Q 838 1081 952 856 
Q 1066 631 1291 507 
Q 1516 384 1775 384 
Q 2178 384 2440 643 
Q 2703 903 2703 1303 
Q 2703 1709 2433 1975 
Q 2163 2241 1756 2241 
Q 1359 2241 1098 1978 
Q 838 1716 838 1322 
z
" transform="scale(0.015625)"/>
       </defs>
       <use xlink:href="#ArialMT-1b"/>
      </g>
     </g>
    </g>
    <g id="xtick_10">
     <g id="text_10">
      <!-- 9 -->
      <g style="fill: #262626" transform="translate(237.029066 368.915898) scale(0.1 -0.1)">
       <defs>
        <path id="ArialMT-1c" d="M 350 1059 
L 891 1109 
Q 959 728 1153 556 
Q 1347 384 1650 384 
Q 1909 384 2104 503 
Q 2300 622 2425 820 
Q 2550 1019 2634 1356 
Q 2719 1694 2719 2044 
Q 2719 2081 2716 2156 
Q 2547 1888 2255 1720 
Q 1963 1553 1622 1553 
Q 1053 1553 659 1965 
Q 266 2378 266 3053 
Q 266 3750 677 4175 
Q 1088 4600 1706 4600 
Q 2153 4600 2523 4359 
Q 2894 4119 3086 3673 
Q 3278 3228 3278 2384 
Q 3278 1506 3087 986 
Q 2897 466 2520 194 
Q 2144 -78 1638 -78 
Q 1100 -78 759 220 
Q 419 519 350 1059 
z
M 2653 3081 
Q 2653 3566 2395 3850 
Q 2138 4134 1775 4134 
Q 1400 4134 1122 3828 
Q 844 3522 844 3034 
Q 844 2597 1108 2323 
Q 1372 2050 1759 2050 
Q 2150 2050 2401 2323 
Q 2653 2597 2653 3081 
z
" transform="scale(0.015625)"/>
       </defs>
       <use xlink:href="#ArialMT-1c"/>
      </g>
     </g>
    </g>
    <g id="xtick_11">
     <g id="text_11">
      <!-- 10 -->
      <g style="fill: #262626" transform="translate(254.539506 368.915898) scale(0.1 -0.1)">
       <use xlink:href="#ArialMT-14"/>
       <use xlink:href="#ArialMT-13" transform="translate(55.609375 0)"/>
      </g>
     </g>
    </g>
    <g id="xtick_12">
     <g id="text_12">
      <!-- 11 -->
      <g style="fill: #262626" transform="translate(275.201509 368.915898) scale(0.1 -0.1)">
       <use xlink:href="#ArialMT-14"/>
       <use xlink:href="#ArialMT-14" transform="translate(48.1875 0)"/>
      </g>
     </g>
    </g>
    <g id="xtick_13">
     <g id="text_13">
      <!-- 12 -->
      <g style="fill: #262626" transform="translate(295.121325 368.915898) scale(0.1 -0.1)">
       <use xlink:href="#ArialMT-14"/>
       <use xlink:href="#ArialMT-15" transform="translate(55.609375 0)"/>
      </g>
     </g>
    </g>
    <g id="xtick_14">
     <g id="text_14">
      <!-- 13 -->
      <g style="fill: #262626" transform="translate(315.412234 368.915898) scale(0.1 -0.1)">
       <use xlink:href="#ArialMT-14"/>
       <use xlink:href="#ArialMT-16" transform="translate(55.609375 0)"/>
      </g>
     </g>
    </g>
    <g id="xtick_15">
     <g id="text_15">
      <!-- 14 -->
      <g style="fill: #262626" transform="translate(335.703143 368.915898) scale(0.1 -0.1)">
       <use xlink:href="#ArialMT-14"/>
       <use xlink:href="#ArialMT-17" transform="translate(55.609375 0)"/>
      </g>
     </g>
    </g>
    <g id="xtick_16">
     <g id="text_16">
      <!-- 15 -->
      <g style="fill: #262626" transform="translate(355.994052 368.915898) scale(0.1 -0.1)">
       <use xlink:href="#ArialMT-14"/>
       <use xlink:href="#ArialMT-18" transform="translate(55.609375 0)"/>
      </g>
     </g>
    </g>
    <g id="xtick_17">
     <g id="text_17">
      <!-- 16 -->
      <g style="fill: #262626" transform="translate(376.284961 368.915898) scale(0.1 -0.1)">
       <use xlink:href="#ArialMT-14"/>
       <use xlink:href="#ArialMT-19" transform="translate(55.609375 0)"/>
      </g>
     </g>
    </g>
    <g id="xtick_18">
     <g id="text_18">
      <!-- 17 -->
      <g style="fill: #262626" transform="translate(396.57587 368.915898) scale(0.1 -0.1)">
       <use xlink:href="#ArialMT-14"/>
       <use xlink:href="#ArialMT-1a" transform="translate(55.609375 0)"/>
      </g>
     </g>
    </g>
    <g id="xtick_19">
     <g id="text_19">
      <!-- 18 -->
      <g style="fill: #262626" transform="translate(416.866779 368.915898) scale(0.1 -0.1)">
       <use xlink:href="#ArialMT-14"/>
       <use xlink:href="#ArialMT-1b" transform="translate(55.609375 0)"/>
      </g>
     </g>
    </g>
    <g id="xtick_20">
     <g id="text_20">
      <!-- 19 -->
      <g style="fill: #262626" transform="translate(437.157688 368.915898) scale(0.1 -0.1)">
       <use xlink:href="#ArialMT-14"/>
       <use xlink:href="#ArialMT-1c" transform="translate(55.609375 0)"/>
      </g>
     </g>
    </g>
    <g id="xtick_21">
     <g id="text_21">
      <!-- 20 -->
      <g style="fill: #262626" transform="translate(457.448597 368.915898) scale(0.1 -0.1)">
       <use xlink:href="#ArialMT-15"/>
       <use xlink:href="#ArialMT-13" transform="translate(55.609375 0)"/>
      </g>
     </g>
    </g>
    <g id="xtick_22">
     <g id="text_22">
      <!-- 21 -->
      <g style="fill: #262626" transform="translate(477.739506 368.915898) scale(0.1 -0.1)">
       <use xlink:href="#ArialMT-15"/>
       <use xlink:href="#ArialMT-14" transform="translate(55.609375 0)"/>
      </g>
     </g>
    </g>
    <g id="xtick_23">
     <g id="text_23">
      <!-- 22 -->
      <g style="fill: #262626" transform="translate(498.030415 368.915898) scale(0.1 -0.1)">
       <use xlink:href="#ArialMT-15"/>
       <use xlink:href="#ArialMT-15" transform="translate(55.609375 0)"/>
      </g>
     </g>
    </g>
    <g id="xtick_24">
     <g id="text_24">
      <!-- 23 -->
      <g style="fill: #262626" transform="translate(518.321325 368.915898) scale(0.1 -0.1)">
       <use xlink:href="#ArialMT-15"/>
       <use xlink:href="#ArialMT-16" transform="translate(55.609375 0)"/>
      </g>
     </g>
    </g>
    <g id="xtick_25">
     <g id="text_25">
      <!-- 24 -->
      <g style="fill: #262626" transform="translate(538.612234 368.915898) scale(0.1 -0.1)">
       <use xlink:href="#ArialMT-15"/>
       <use xlink:href="#ArialMT-17" transform="translate(55.609375 0)"/>
      </g>
     </g>
    </g>
    <g id="xtick_26">
     <g id="text_26">
      <!-- 25 -->
      <g style="fill: #262626" transform="translate(558.903143 368.915898) scale(0.1 -0.1)">
       <use xlink:href="#ArialMT-15"/>
       <use xlink:href="#ArialMT-18" transform="translate(55.609375 0)"/>
      </g>
     </g>
    </g>
    <g id="xtick_27">
     <g id="text_27">
      <!-- 26 -->
      <g style="fill: #262626" transform="translate(579.194052 368.915898) scale(0.1 -0.1)">
       <use xlink:href="#ArialMT-15"/>
       <use xlink:href="#ArialMT-19" transform="translate(55.609375 0)"/>
      </g>
     </g>
    </g>
    <g id="xtick_28">
     <g id="text_28">
      <!-- 27 -->
      <g style="fill: #262626" transform="translate(599.484961 368.915898) scale(0.1 -0.1)">
       <use xlink:href="#ArialMT-15"/>
       <use xlink:href="#ArialMT-1a" transform="translate(55.609375 0)"/>
      </g>
     </g>
    </g>
    <g id="xtick_29">
     <g id="text_29">
      <!-- 28 -->
      <g style="fill: #262626" transform="translate(619.77587 368.915898) scale(0.1 -0.1)">
       <use xlink:href="#ArialMT-15"/>
       <use xlink:href="#ArialMT-1b" transform="translate(55.609375 0)"/>
      </g>
     </g>
    </g>
    <g id="xtick_30">
     <g id="text_30">
      <!-- 29 -->
      <g style="fill: #262626" transform="translate(640.066779 368.915898) scale(0.1 -0.1)">
       <use xlink:href="#ArialMT-15"/>
       <use xlink:href="#ArialMT-1c" transform="translate(55.609375 0)"/>
      </g>
     </g>
    </g>
    <g id="xtick_31">
     <g id="text_31">
      <!-- 30 -->
      <g style="fill: #262626" transform="translate(660.357688 368.915898) scale(0.1 -0.1)">
       <use xlink:href="#ArialMT-16"/>
       <use xlink:href="#ArialMT-13" transform="translate(55.609375 0)"/>
      </g>
     </g>
    </g>
    <g id="xtick_32">
     <g id="text_32">
      <!-- 31 -->
      <g style="fill: #262626" transform="translate(680.648597 368.915898) scale(0.1 -0.1)">
       <use xlink:href="#ArialMT-16"/>
       <use xlink:href="#ArialMT-14" transform="translate(55.609375 0)"/>
      </g>
     </g>
    </g>
    <g id="xtick_33">
     <g id="text_33">
      <!-- 32 -->
      <g style="fill: #262626" transform="translate(700.939506 368.915898) scale(0.1 -0.1)">
       <use xlink:href="#ArialMT-16"/>
       <use xlink:href="#ArialMT-15" transform="translate(55.609375 0)"/>
      </g>
     </g>
    </g>
    <g id="text_34">
     <!-- Бали -->
     <g style="fill: #262626" transform="translate(370.074023 382.300664) scale(0.1 -0.1)">
      <defs>
       <path id="ArialMT-23b" d="M 522 4581 
L 3494 4581 
L 3494 4041 
L 1128 4041 
L 1128 2628 
L 2222 2628 
Q 2828 2628 3186 2512 
Q 3544 2397 3759 2076 
Q 3975 1756 3975 1331 
Q 3975 984 3820 682 
Q 3666 381 3359 190 
Q 3053 0 2316 0 
L 522 0 
L 522 4581 
z
M 1128 516 
L 2341 516 
Q 2831 516 3076 716 
Q 3322 916 3322 1316 
Q 3322 1600 3181 1790 
Q 3041 1981 2791 2043 
Q 2541 2106 1938 2106 
L 1128 2106 
L 1128 516 
z
" transform="scale(0.015625)"/>
       <path id="ArialMT-25a" d="M 2588 409 
Q 2275 144 1986 34 
Q 1697 -75 1366 -75 
Q 819 -75 525 192 
Q 231 459 231 875 
Q 231 1119 342 1320 
Q 453 1522 633 1644 
Q 813 1766 1038 1828 
Q 1203 1872 1538 1913 
Q 2219 1994 2541 2106 
Q 2544 2222 2544 2253 
Q 2544 2597 2384 2738 
Q 2169 2928 1744 2928 
Q 1347 2928 1158 2789 
Q 969 2650 878 2297 
L 328 2372 
Q 403 2725 575 2942 
Q 747 3159 1072 3276 
Q 1397 3394 1825 3394 
Q 2250 3394 2515 3294 
Q 2781 3194 2906 3042 
Q 3031 2891 3081 2659 
Q 3109 2516 3109 2141 
L 3109 1391 
Q 3109 606 3145 398 
Q 3181 191 3288 0 
L 2700 0 
Q 2613 175 2588 409 
z
M 2541 1666 
Q 2234 1541 1622 1453 
Q 1275 1403 1131 1340 
Q 988 1278 909 1158 
Q 831 1038 831 891 
Q 831 666 1001 516 
Q 1172 366 1500 366 
Q 1825 366 2078 508 
Q 2331 650 2450 897 
Q 2541 1088 2541 1459 
L 2541 1666 
z
" transform="scale(0.015625)"/>
       <path id="ArialMT-265" d="M 697 3319 
L 3309 3319 
L 3309 0 
L 2750 0 
L 2750 2853 
L 1259 2853 
L 1259 1200 
Q 1259 622 1221 437 
Q 1184 253 1015 115 
Q 847 -22 528 -22 
Q 331 -22 75 3 
L 75 472 
L 322 472 
Q 497 472 572 508 
Q 647 544 672 622 
Q 697 700 697 1131 
L 697 3319 
z
" transform="scale(0.015625)"/>
       <path id="ArialMT-262" d="M 422 3319 
L 984 3319 
L 984 788 
L 2544 3319 
L 3150 3319 
L 3150 0 
L 2588 0 
L 2588 2516 
L 1028 0 
L 422 0 
L 422 3319 
z
" transform="scale(0.015625)"/>
      </defs>
      <use xlink:href="#ArialMT-23b"/>
      <use xlink:href="#ArialMT-25a" transform="translate(65.625 0)"/>
      <use xlink:href="#ArialMT-265" transform="translate(121.234375 0)"/>
      <use xlink:href="#ArialMT-262" transform="translate(179.578125 0)"/>
     </g>
    </g>
   </g>
   <g id="matplotlib.axis_2">
    <g id="ytick_1">
     <g id="line2d_1">
      <path d="M 47.045898 354.635625 
L 716.645898 354.635625 
" clip-path="url(#p03ffd1840a)" style="fill: none; stroke: #cccccc; stroke-width: 0.8; stroke-linecap: round"/>
     </g>
     <g id="text_35">
      <!-- 0.00 -->
      <g style="fill: #262626" transform="translate(20.584961 358.275762) scale(0.1 -0.1)">
       <defs>
        <path id="ArialMT-11" d="M 581 0 
L 581 641 
L 1222 641 
L 1222 0 
L 581 0 
z
" transform="scale(0.015625)"/>
       </defs>
       <use xlink:href="#ArialMT-13"/>
       <use xlink:href="#ArialMT-11" transform="translate(55.609375 0)"/>
       <use xlink:href="#ArialMT-13" transform="translate(83.390625 0)"/>
       <use xlink:href="#ArialMT-13" transform="translate(139 0)"/>
      </g>
     </g>
    </g>
    <g id="ytick_2">
     <g id="line2d_2">
      <path d="M 47.045898 292.972495 
L 716.645898 292.972495 
" clip-path="url(#p03ffd1840a)" style="fill: none; stroke: #cccccc; stroke-width: 0.8; stroke-linecap: round"/>
     </g>
     <g id="text_36">
      <!-- 0.02 -->
      <g style="fill: #262626" transform="translate(20.584961 296.612632) scale(0.1 -0.1)">
       <use xlink:href="#ArialMT-13"/>
       <use xlink:href="#ArialMT-11" transform="translate(55.609375 0)"/>
       <use xlink:href="#ArialMT-13" transform="translate(83.390625 0)"/>
       <use xlink:href="#ArialMT-15" transform="translate(139 0)"/>
      </g>
     </g>
    </g>
    <g id="ytick_3">
     <g id="line2d_3">
      <path d="M 47.045898 231.309365 
L 716.645898 231.309365 
" clip-path="url(#p03ffd1840a)" style="fill: none; stroke: #cccccc; stroke-width: 0.8; stroke-linecap: round"/>
     </g>
     <g id="text_37">
      <!-- 0.04 -->
      <g style="fill: #262626" transform="translate(20.584961 234.949501) scale(0.1 -0.1)">
       <use xlink:href="#ArialMT-13"/>
       <use xlink:href="#ArialMT-11" transform="translate(55.609375 0)"/>
       <use xlink:href="#ArialMT-13" transform="translate(83.390625 0)"/>
       <use xlink:href="#ArialMT-17" transform="translate(139 0)"/>
      </g>
     </g>
    </g>
    <g id="ytick_4">
     <g id="line2d_4">
      <path d="M 47.045898 169.646235 
L 716.645898 169.646235 
" clip-path="url(#p03ffd1840a)" style="fill: none; stroke: #cccccc; stroke-width: 0.8; stroke-linecap: round"/>
     </g>
     <g id="text_38">
      <!-- 0.06 -->
      <g style="fill: #262626" transform="translate(20.584961 173.286371) scale(0.1 -0.1)">
       <use xlink:href="#ArialMT-13"/>
       <use xlink:href="#ArialMT-11" transform="translate(55.609375 0)"/>
       <use xlink:href="#ArialMT-13" transform="translate(83.390625 0)"/>
       <use xlink:href="#ArialMT-19" transform="translate(139 0)"/>
      </g>
     </g>
    </g>
    <g id="ytick_5">
     <g id="line2d_5">
      <path d="M 47.045898 107.983104 
L 716.645898 107.983104 
" clip-path="url(#p03ffd1840a)" style="fill: none; stroke: #cccccc; stroke-width: 0.8; stroke-linecap: round"/>
     </g>
     <g id="text_39">
      <!-- 0.08 -->
      <g style="fill: #262626" transform="translate(20.584961 111.623241) scale(0.1 -0.1)">
       <use xlink:href="#ArialMT-13"/>
       <use xlink:href="#ArialMT-11" transform="translate(55.609375 0)"/>
       <use xlink:href="#ArialMT-13" transform="translate(83.390625 0)"/>
       <use xlink:href="#ArialMT-1b" transform="translate(139 0)"/>
      </g>
     </g>
    </g>
    <g id="ytick_6">
     <g id="line2d_6">
      <path d="M 47.045898 46.319974 
L 716.645898 46.319974 
" clip-path="url(#p03ffd1840a)" style="fill: none; stroke: #cccccc; stroke-width: 0.8; stroke-linecap: round"/>
     </g>
     <g id="text_40">
      <!-- 0.10 -->
      <g style="fill: #262626" transform="translate(20.584961 49.960111) scale(0.1 -0.1)">
       <use xlink:href="#ArialMT-13"/>
       <use xlink:href="#ArialMT-11" transform="translate(55.609375 0)"/>
       <use xlink:href="#ArialMT-14" transform="translate(83.390625 0)"/>
       <use xlink:href="#ArialMT-13" transform="translate(139 0)"/>
      </g>
     </g>
    </g>
    <g id="text_41">
     <!-- Частка учасників -->
     <g style="fill: #262626" transform="translate(14.480273 227.579687) rotate(-90) scale(0.1 -0.1)">
      <defs>
       <path id="ArialMT-251" d="M 3763 0 
L 3156 0 
L 3156 1847 
Q 2341 1544 1728 1544 
Q 1250 1544 884 1767 
Q 519 1991 395 2334 
Q 272 2678 272 3234 
L 272 4581 
L 878 4581 
L 878 3291 
Q 878 2541 1151 2305 
Q 1425 2069 1809 2069 
Q 2450 2069 3156 2353 
L 3156 4581 
L 3763 4581 
L 3763 0 
z
" transform="scale(0.015625)"/>
       <path id="ArialMT-26b" d="M 2588 1216 
L 3141 1144 
Q 3050 572 2676 248 
Q 2303 -75 1759 -75 
Q 1078 -75 664 370 
Q 250 816 250 1647 
Q 250 2184 428 2587 
Q 606 2991 970 3192 
Q 1334 3394 1763 3394 
Q 2303 3394 2647 3120 
Q 2991 2847 3088 2344 
L 2541 2259 
Q 2463 2594 2264 2762 
Q 2066 2931 1784 2931 
Q 1359 2931 1093 2626 
Q 828 2322 828 1663 
Q 828 994 1084 691 
Q 1341 388 1753 388 
Q 2084 388 2306 591 
Q 2528 794 2588 1216 
z
" transform="scale(0.015625)"/>
       <path id="ArialMT-26c" d="M 119 3319 
L 2816 3319 
L 2816 2853 
L 1747 2853 
L 1747 0 
L 1188 0 
L 1188 2853 
L 119 2853 
L 119 3319 
z
" transform="scale(0.015625)"/>
       <path id="ArialMT-264" d="M 419 3319 
L 981 3319 
L 981 1884 
Q 1250 1884 1358 1987 
Q 1466 2091 1675 2588 
Q 1841 2981 1944 3106 
Q 2047 3231 2181 3275 
Q 2316 3319 2613 3319 
L 2725 3319 
L 2725 2853 
L 2569 2856 
Q 2347 2856 2284 2791 
Q 2219 2722 2084 2381 
Q 1956 2056 1850 1931 
Q 1744 1806 1522 1703 
Q 1884 1606 2234 1028 
L 2850 0 
L 2231 0 
L 1631 1028 
Q 1447 1338 1309 1436 
Q 1172 1534 981 1534 
L 981 0 
L 419 0 
L 419 3319 
z
" transform="scale(0.015625)"/>
       <path id="ArialMT-3" transform="scale(0.015625)"/>
       <path id="ArialMT-26d" d="M 397 -1278 
L 334 -750 
Q 519 -800 656 -800 
Q 844 -800 956 -737 
Q 1069 -675 1141 -563 
Q 1194 -478 1313 -144 
Q 1328 -97 1363 -6 
L 103 3319 
L 709 3319 
L 1400 1397 
Q 1534 1031 1641 628 
Q 1738 1016 1872 1384 
L 2581 3319 
L 3144 3319 
L 1881 -56 
Q 1678 -603 1566 -809 
Q 1416 -1088 1222 -1217 
Q 1028 -1347 759 -1347 
Q 597 -1347 397 -1278 
z
" transform="scale(0.015625)"/>
       <path id="ArialMT-271" d="M 216 3319 
L 778 3319 
L 778 2691 
Q 778 2284 826 2101 
Q 875 1919 1059 1783 
Q 1244 1647 1522 1647 
Q 1841 1647 2347 1816 
L 2347 3319 
L 2909 3319 
L 2909 0 
L 2347 0 
L 2347 1338 
Q 1828 1175 1378 1175 
Q 1000 1175 711 1367 
Q 422 1559 319 1837 
Q 216 2116 216 2450 
L 216 3319 
z
" transform="scale(0.015625)"/>
       <path id="ArialMT-267" d="M 425 3319 
L 988 3319 
L 988 1938 
L 2547 1938 
L 2547 3319 
L 3109 3319 
L 3109 0 
L 2547 0 
L 2547 1472 
L 988 1472 
L 988 0 
L 425 0 
L 425 3319 
z
" transform="scale(0.015625)"/>
       <path id="ArialMT-27f" d="M 425 3934 
L 425 4581 
L 988 4581 
L 988 3934 
L 425 3934 
z
M 425 0 
L 425 3319 
L 988 3319 
L 988 0 
L 425 0 
z
" transform="scale(0.015625)"/>
       <path id="ArialMT-25c" d="M 425 3319 
L 1722 3319 
Q 2200 3319 2433 3239 
Q 2666 3159 2833 2946 
Q 3000 2734 3000 2438 
Q 3000 2200 2901 2023 
Q 2803 1847 2606 1728 
Q 2841 1650 2995 1436 
Q 3150 1222 3150 928 
Q 3119 456 2812 228 
Q 2506 0 1922 0 
L 425 0 
L 425 3319 
z
M 988 1922 
L 1588 1922 
Q 1947 1922 2081 1959 
Q 2216 1997 2322 2111 
Q 2428 2225 2428 2384 
Q 2428 2647 2242 2750 
Q 2056 2853 1606 2853 
L 988 2853 
L 988 1922 
z
M 988 463 
L 1728 463 
Q 2206 463 2384 573 
Q 2563 684 2572 956 
Q 2572 1116 2469 1252 
Q 2366 1388 2200 1423 
Q 2034 1459 1669 1459 
L 988 1459 
L 988 463 
z
" transform="scale(0.015625)"/>
      </defs>
      <use xlink:href="#ArialMT-251"/>
      <use xlink:href="#ArialMT-25a" transform="translate(66.65625 0)"/>
      <use xlink:href="#ArialMT-26b" transform="translate(122.265625 0)"/>
      <use xlink:href="#ArialMT-26c" transform="translate(172.265625 0)"/>
      <use xlink:href="#ArialMT-264" transform="translate(218.0625 0)"/>
      <use xlink:href="#ArialMT-25a" transform="translate(264.015625 0)"/>
      <use xlink:href="#ArialMT-3" transform="translate(319.625 0)"/>
      <use xlink:href="#ArialMT-26d" transform="translate(347.40625 0)"/>
      <use xlink:href="#ArialMT-271" transform="translate(397.40625 0)"/>
      <use xlink:href="#ArialMT-25a" transform="translate(449.5 0)"/>
      <use xlink:href="#ArialMT-26b" transform="translate(505.109375 0)"/>
      <use xlink:href="#ArialMT-267" transform="translate(555.109375 0)"/>
      <use xlink:href="#ArialMT-262" transform="translate(610.328125 0)"/>
      <use xlink:href="#ArialMT-264" transform="translate(666.1875 0)"/>
      <use xlink:href="#ArialMT-27f" transform="translate(709.9375 0)"/>
      <use xlink:href="#ArialMT-25c" transform="translate(732.15625 0)"/>
     </g>
    </g>
   </g>
   <g id="patch_3">
    <path d="M 49.074989 354.635625 
L 65.307717 354.635625 
L 65.307717 352.575977 
L 49.074989 352.575977 
z
" clip-path="url(#p03ffd1840a)" style="fill: #3274a1; opacity: 0.6; stroke: #ffffff; stroke-linejoin: miter"/>
   </g>
   <g id="patch_4">
    <path d="M 69.365898 354.635625 
L 85.598626 354.635625 
L 85.598626 341.295654 
L 69.365898 341.295654 
z
" clip-path="url(#p03ffd1840a)" style="fill: #3274a1; opacity: 0.6; stroke: #ffffff; stroke-linejoin: miter"/>
   </g>
   <g id="patch_5">
    <path d="M 89.656808 354.635625 
L 105.889535 354.635625 
L 105.889535 307.563804 
L 89.656808 307.563804 
z
" clip-path="url(#p03ffd1840a)" style="fill: #3274a1; opacity: 0.6; stroke: #ffffff; stroke-linejoin: miter"/>
   </g>
   <g id="patch_6">
    <path d="M 109.947717 354.635625 
L 126.180444 354.635625 
L 126.180444 250.643866 
L 109.947717 250.643866 
z
" clip-path="url(#p03ffd1840a)" style="fill: #3274a1; opacity: 0.6; stroke: #ffffff; stroke-linejoin: miter"/>
   </g>
   <g id="patch_7">
    <path d="M 130.238626 354.635625 
L 146.471353 354.635625 
L 146.471353 180.152076 
L 130.238626 180.152076 
z
" clip-path="url(#p03ffd1840a)" style="fill: #3274a1; opacity: 0.6; stroke: #ffffff; stroke-linejoin: miter"/>
   </g>
   <g id="patch_8">
    <path d="M 150.529535 354.635625 
L 166.762262 354.635625 
L 166.762262 115.252707 
L 150.529535 115.252707 
z
" clip-path="url(#p03ffd1840a)" style="fill: #3274a1; opacity: 0.6; stroke: #ffffff; stroke-linejoin: miter"/>
   </g>
   <g id="patch_9">
    <path d="M 170.820444 354.635625 
L 187.053171 354.635625 
L 187.053171 79.47485 
L 170.820444 79.47485 
z
" clip-path="url(#p03ffd1840a)" style="fill: #3274a1; opacity: 0.6; stroke: #ffffff; stroke-linejoin: miter"/>
   </g>
   <g id="patch_10">
    <path d="M 191.111353 354.635625 
L 207.34408 354.635625 
L 207.34408 72.804864 
L 191.111353 72.804864 
z
" clip-path="url(#p03ffd1840a)" style="fill: #3274a1; opacity: 0.6; stroke: #ffffff; stroke-linejoin: miter"/>
   </g>
   <g id="patch_11">
    <path d="M 211.402262 354.635625 
L 227.634989 354.635625 
L 227.634989 90.305051 
L 211.402262 90.305051 
z
" clip-path="url(#p03ffd1840a)" style="fill: #3274a1; opacity: 0.6; stroke: #ffffff; stroke-linejoin: miter"/>
   </g>
   <g id="patch_12">
    <path d="M 231.693171 354.635625 
L 247.925898 354.635625 
L 247.925898 125.523666 
L 231.693171 125.523666 
z
" clip-path="url(#p03ffd1840a)" style="fill: #3274a1; opacity: 0.6; stroke: #ffffff; stroke-linejoin: miter"/>
   </g>
   <g id="patch_13">
    <path d="M 251.98408 354.635625 
L 268.216808 354.635625 
L 268.216808 159.091835 
L 251.98408 159.091835 
z
" clip-path="url(#p03ffd1840a)" style="fill: #3274a1; opacity: 0.6; stroke: #ffffff; stroke-linejoin: miter"/>
   </g>
   <g id="patch_14">
    <path d="M 272.274989 354.635625 
L 288.507717 354.635625 
L 288.507717 191.514239 
L 272.274989 191.514239 
z
" clip-path="url(#p03ffd1840a)" style="fill: #3274a1; opacity: 0.6; stroke: #ffffff; stroke-linejoin: miter"/>
   </g>
   <g id="patch_15">
    <path d="M 292.565898 354.635625 
L 308.798626 354.635625 
L 308.798626 218.071421 
L 292.565898 218.071421 
z
" clip-path="url(#p03ffd1840a)" style="fill: #3274a1; opacity: 0.6; stroke: #ffffff; stroke-linejoin: miter"/>
   </g>
   <g id="patch_16">
    <path d="M 312.856808 354.635625 
L 329.089535 354.635625 
L 329.089535 239.636344 
L 312.856808 239.636344 
z
" clip-path="url(#p03ffd1840a)" style="fill: #3274a1; opacity: 0.6; stroke: #ffffff; stroke-linejoin: miter"/>
   </g>
   <g id="patch_17">
    <path d="M 333.147717 354.635625 
L 349.380444 354.635625 
L 349.380444 252.035151 
L 333.147717 252.035151 
z
" clip-path="url(#p03ffd1840a)" style="fill: #3274a1; opacity: 0.6; stroke: #ffffff; stroke-linejoin: miter"/>
   </g>
   <g id="patch_18">
    <path d="M 353.438626 354.635625 
L 369.671353 354.635625 
L 369.671353 267.161969 
L 353.438626 267.161969 
z
" clip-path="url(#p03ffd1840a)" style="fill: #3274a1; opacity: 0.6; stroke: #ffffff; stroke-linejoin: miter"/>
   </g>
   <g id="patch_19">
    <path d="M 373.729535 354.635625 
L 389.962262 354.635625 
L 389.962262 275.973443 
L 373.729535 275.973443 
z
" clip-path="url(#p03ffd1840a)" style="fill: #3274a1; opacity: 0.6; stroke: #ffffff; stroke-linejoin: miter"/>
   </g>
   <g id="patch_20">
    <path d="M 394.020444 354.635625 
L 410.253171 354.635625 
L 410.253171 283.789193 
L 394.020444 283.789193 
z
" clip-path="url(#p03ffd1840a)" style="fill: #3274a1; opacity: 0.6; stroke: #ffffff; stroke-linejoin: miter"/>
   </g>
   <g id="patch_21">
    <path d="M 414.311353 354.635625 
L 430.54408 354.635625 
L 430.54408 290.7047 
L 414.311353 290.7047 
z
" clip-path="url(#p03ffd1840a)" style="fill: #3274a1; opacity: 0.6; stroke: #ffffff; stroke-linejoin: miter"/>
   </g>
   <g id="patch_22">
    <path d="M 434.602262 354.635625 
L 450.834989 354.635625 
L 450.834989 298.302209 
L 434.602262 298.302209 
z
" clip-path="url(#p03ffd1840a)" style="fill: #3274a1; opacity: 0.6; stroke: #ffffff; stroke-linejoin: miter"/>
   </g>
   <g id="patch_23">
    <path d="M 454.893171 354.635625 
L 471.125898 354.635625 
L 471.125898 303.212628 
L 454.893171 303.212628 
z
" clip-path="url(#p03ffd1840a)" style="fill: #3274a1; opacity: 0.6; stroke: #ffffff; stroke-linejoin: miter"/>
   </g>
   <g id="patch_24">
    <path d="M 475.18408 354.635625 
L 491.416808 354.635625 
L 491.416808 306.868162 
L 475.18408 306.868162 
z
" clip-path="url(#p03ffd1840a)" style="fill: #3274a1; opacity: 0.6; stroke: #ffffff; stroke-linejoin: miter"/>
   </g>
   <g id="patch_25">
    <path d="M 495.474989 354.635625 
L 511.707717 354.635625 
L 511.707717 312.296903 
L 495.474989 312.296903 
z
" clip-path="url(#p03ffd1840a)" style="fill: #3274a1; opacity: 0.6; stroke: #ffffff; stroke-linejoin: miter"/>
   </g>
   <g id="patch_26">
    <path d="M 515.765898 354.635625 
L 531.998626 354.635625 
L 531.998626 316.989081 
L 515.765898 316.989081 
z
" clip-path="url(#p03ffd1840a)" style="fill: #3274a1; opacity: 0.6; stroke: #ffffff; stroke-linejoin: miter"/>
   </g>
   <g id="patch_27">
    <path d="M 536.056808 354.635625 
L 552.289535 354.635625 
L 552.289535 320.562774 
L 536.056808 320.562774 
z
" clip-path="url(#p03ffd1840a)" style="fill: #3274a1; opacity: 0.6; stroke: #ffffff; stroke-linejoin: miter"/>
   </g>
   <g id="patch_28">
    <path d="M 556.347717 354.635625 
L 572.580444 354.635625 
L 572.580444 323.181664 
L 556.347717 323.181664 
z
" clip-path="url(#p03ffd1840a)" style="fill: #3274a1; opacity: 0.6; stroke: #ffffff; stroke-linejoin: miter"/>
   </g>
   <g id="patch_29">
    <path d="M 576.638626 354.635625 
L 592.871353 354.635625 
L 592.871353 325.541393 
L 576.638626 325.541393 
z
" clip-path="url(#p03ffd1840a)" style="fill: #3274a1; opacity: 0.6; stroke: #ffffff; stroke-linejoin: miter"/>
   </g>
   <g id="patch_30">
    <path d="M 596.929535 354.635625 
L 613.162262 354.635625 
L 613.162262 329.728889 
L 596.929535 329.728889 
z
" clip-path="url(#p03ffd1840a)" style="fill: #3274a1; opacity: 0.6; stroke: #ffffff; stroke-linejoin: miter"/>
   </g>
   <g id="patch_31">
    <path d="M 617.220444 354.635625 
L 633.453171 354.635625 
L 633.453171 332.988862 
L 617.220444 332.988862 
z
" clip-path="url(#p03ffd1840a)" style="fill: #3274a1; opacity: 0.6; stroke: #ffffff; stroke-linejoin: miter"/>
   </g>
   <g id="patch_32">
    <path d="M 637.511353 354.635625 
L 653.74408 354.635625 
L 653.74408 336.180634 
L 637.511353 336.180634 
z
" clip-path="url(#p03ffd1840a)" style="fill: #3274a1; opacity: 0.6; stroke: #ffffff; stroke-linejoin: miter"/>
   </g>
   <g id="patch_33">
    <path d="M 657.802262 354.635625 
L 674.034989 354.635625 
L 674.034989 335.580472 
L 657.802262 335.580472 
z
" clip-path="url(#p03ffd1840a)" style="fill: #3274a1; opacity: 0.6; stroke: #ffffff; stroke-linejoin: miter"/>
   </g>
   <g id="patch_34">
    <path d="M 678.093171 354.635625 
L 694.325898 354.635625 
L 694.325898 345.237629 
L 678.093171 345.237629 
z
" clip-path="url(#p03ffd1840a)" style="fill: #3274a1; opacity: 0.6; stroke: #ffffff; stroke-linejoin: miter"/>
   </g>
   <g id="patch_35">
    <path d="M 698.38408 354.635625 
L 714.616808 354.635625 
L 714.616808 339.577007 
L 698.38408 339.577007 
z
" clip-path="url(#p03ffd1840a)" style="fill: #3274a1; opacity: 0.6; stroke: #ffffff; stroke-linejoin: miter"/>
   </g>
   <g id="patch_36">
    <path d="M 49.074989 354.635625 
L 65.307717 354.635625 
L 65.307717 351.425331 
L 49.074989 351.425331 
z
" clip-path="url(#p03ffd1840a)" style="fill: #e1812c; opacity: 0.6; stroke: #ffffff; stroke-linejoin: miter"/>
   </g>
   <g id="patch_37">
    <path d="M 69.365898 354.635625 
L 85.598626 354.635625 
L 85.598626 332.367393 
L 69.365898 332.367393 
z
" clip-path="url(#p03ffd1840a)" style="fill: #e1812c; opacity: 0.6; stroke: #ffffff; stroke-linejoin: miter"/>
   </g>
   <g id="patch_38">
    <path d="M 89.656808 354.635625 
L 105.889535 354.635625 
L 105.889535 284.212977 
L 89.656808 284.212977 
z
" clip-path="url(#p03ffd1840a)" style="fill: #e1812c; opacity: 0.6; stroke: #ffffff; stroke-linejoin: miter"/>
   </g>
   <g id="patch_39">
    <path d="M 109.947717 354.635625 
L 126.180444 354.635625 
L 126.180444 207.165913 
L 109.947717 207.165913 
z
" clip-path="url(#p03ffd1840a)" style="fill: #e1812c; opacity: 0.6; stroke: #ffffff; stroke-linejoin: miter"/>
   </g>
   <g id="patch_40">
    <path d="M 130.238626 354.635625 
L 146.471353 354.635625 
L 146.471353 130.373634 
L 130.238626 130.373634 
z
" clip-path="url(#p03ffd1840a)" style="fill: #e1812c; opacity: 0.6; stroke: #ffffff; stroke-linejoin: miter"/>
   </g>
   <g id="patch_41">
    <path d="M 150.529535 354.635625 
L 166.762262 354.635625 
L 166.762262 62.549796 
L 150.529535 62.549796 
z
" clip-path="url(#p03ffd1840a)" style="fill: #e1812c; opacity: 0.6; stroke: #ffffff; stroke-linejoin: miter"/>
   </g>
   <g id="patch_42">
    <path d="M 170.820444 354.635625 
L 187.053171 354.635625 
L 187.053171 37.835625 
L 170.820444 37.835625 
z
" clip-path="url(#p03ffd1840a)" style="fill: #e1812c; opacity: 0.6; stroke: #ffffff; stroke-linejoin: miter"/>
   </g>
   <g id="patch_43">
    <path d="M 191.111353 354.635625 
L 207.34408 354.635625 
L 207.34408 43.033244 
L 191.111353 43.033244 
z
" clip-path="url(#p03ffd1840a)" style="fill: #e1812c; opacity: 0.6; stroke: #ffffff; stroke-linejoin: miter"/>
   </g>
   <g id="patch_44">
    <path d="M 211.402262 354.635625 
L 227.634989 354.635625 
L 227.634989 75.340016 
L 211.402262 75.340016 
z
" clip-path="url(#p03ffd1840a)" style="fill: #e1812c; opacity: 0.6; stroke: #ffffff; stroke-linejoin: miter"/>
   </g>
   <g id="patch_45">
    <path d="M 231.693171 354.635625 
L 247.925898 354.635625 
L 247.925898 121.048493 
L 231.693171 121.048493 
z
" clip-path="url(#p03ffd1840a)" style="fill: #e1812c; opacity: 0.6; stroke: #ffffff; stroke-linejoin: miter"/>
   </g>
   <g id="patch_46">
    <path d="M 251.98408 354.635625 
L 268.216808 354.635625 
L 268.216808 164.718688 
L 251.98408 164.718688 
z
" clip-path="url(#p03ffd1840a)" style="fill: #e1812c; opacity: 0.6; stroke: #ffffff; stroke-linejoin: miter"/>
   </g>
   <g id="patch_47">
    <path d="M 272.274989 354.635625 
L 288.507717 354.635625 
L 288.507717 204.516146 
L 272.274989 204.516146 
z
" clip-path="url(#p03ffd1840a)" style="fill: #e1812c; opacity: 0.6; stroke: #ffffff; stroke-linejoin: miter"/>
   </g>
   <g id="patch_48">
    <path d="M 292.565898 354.635625 
L 308.798626 354.635625 
L 308.798626 232.848268 
L 292.565898 232.848268 
z
" clip-path="url(#p03ffd1840a)" style="fill: #e1812c; opacity: 0.6; stroke: #ffffff; stroke-linejoin: miter"/>
   </g>
   <g id="patch_49">
    <path d="M 312.856808 354.635625 
L 329.089535 354.635625 
L 329.089535 255.1165 
L 312.856808 255.1165 
z
" clip-path="url(#p03ffd1840a)" style="fill: #e1812c; opacity: 0.6; stroke: #ffffff; stroke-linejoin: miter"/>
   </g>
   <g id="patch_50">
    <path d="M 333.147717 354.635625 
L 349.380444 354.635625 
L 349.380444 265.766524 
L 333.147717 265.766524 
z
" clip-path="url(#p03ffd1840a)" style="fill: #e1812c; opacity: 0.6; stroke: #ffffff; stroke-linejoin: miter"/>
   </g>
   <g id="patch_51">
    <path d="M 353.438626 354.635625 
L 369.671353 354.635625 
L 369.671353 277.231861 
L 353.438626 277.231861 
z
" clip-path="url(#p03ffd1840a)" style="fill: #e1812c; opacity: 0.6; stroke: #ffffff; stroke-linejoin: miter"/>
   </g>
   <g id="patch_52">
    <path d="M 373.729535 354.635625 
L 389.962262 354.635625 
L 389.962262 289.512511 
L 373.729535 289.512511 
z
" clip-path="url(#p03ffd1840a)" style="fill: #e1812c; opacity: 0.6; stroke: #ffffff; stroke-linejoin: miter"/>
   </g>
   <g id="patch_53">
    <path d="M 394.020444 354.635625 
L 410.253171 354.635625 
L 410.253171 297.461811 
L 394.020444 297.461811 
z
" clip-path="url(#p03ffd1840a)" style="fill: #e1812c; opacity: 0.6; stroke: #ffffff; stroke-linejoin: miter"/>
   </g>
   <g id="patch_54">
    <path d="M 414.311353 354.635625 
L 430.54408 354.635625 
L 430.54408 303.270915 
L 414.311353 303.270915 
z
" clip-path="url(#p03ffd1840a)" style="fill: #e1812c; opacity: 0.6; stroke: #ffffff; stroke-linejoin: miter"/>
   </g>
   <g id="patch_55">
    <path d="M 434.602262 354.635625 
L 450.834989 354.635625 
L 450.834989 308.264707 
L 434.602262 308.264707 
z
" clip-path="url(#p03ffd1840a)" style="fill: #e1812c; opacity: 0.6; stroke: #ffffff; stroke-linejoin: miter"/>
   </g>
   <g id="patch_56">
    <path d="M 454.893171 354.635625 
L 471.125898 354.635625 
L 471.125898 315.245823 
L 454.893171 315.245823 
z
" clip-path="url(#p03ffd1840a)" style="fill: #e1812c; opacity: 0.6; stroke: #ffffff; stroke-linejoin: miter"/>
   </g>
   <g id="patch_57">
    <path d="M 475.18408 354.635625 
L 491.416808 354.635625 
L 491.416808 319.577172 
L 475.18408 319.577172 
z
" clip-path="url(#p03ffd1840a)" style="fill: #e1812c; opacity: 0.6; stroke: #ffffff; stroke-linejoin: miter"/>
   </g>
   <g id="patch_58">
    <path d="M 495.474989 354.635625 
L 511.707717 354.635625 
L 511.707717 325.080534 
L 495.474989 325.080534 
z
" clip-path="url(#p03ffd1840a)" style="fill: #e1812c; opacity: 0.6; stroke: #ffffff; stroke-linejoin: miter"/>
   </g>
   <g id="patch_59">
    <path d="M 515.765898 354.635625 
L 531.998626 354.635625 
L 531.998626 327.526473 
L 515.765898 327.526473 
z
" clip-path="url(#p03ffd1840a)" style="fill: #e1812c; opacity: 0.6; stroke: #ffffff; stroke-linejoin: miter"/>
   </g>
   <g id="patch_60">
    <path d="M 536.056808 354.635625 
L 552.289535 354.635625 
L 552.289535 330.736767 
L 536.056808 330.736767 
z
" clip-path="url(#p03ffd1840a)" style="fill: #e1812c; opacity: 0.6; stroke: #ffffff; stroke-linejoin: miter"/>
   </g>
   <g id="patch_61">
    <path d="M 556.347717 354.635625 
L 572.580444 354.635625 
L 572.580444 335.985344 
L 556.347717 335.985344 
z
" clip-path="url(#p03ffd1840a)" style="fill: #e1812c; opacity: 0.6; stroke: #ffffff; stroke-linejoin: miter"/>
   </g>
   <g id="patch_62">
    <path d="M 576.638626 354.635625 
L 592.871353 354.635625 
L 592.871353 338.838938 
L 576.638626 338.838938 
z
" clip-path="url(#p03ffd1840a)" style="fill: #e1812c; opacity: 0.6; stroke: #ffffff; stroke-linejoin: miter"/>
   </g>
   <g id="patch_63">
    <path d="M 596.929535 354.635625 
L 613.162262 354.635625 
L 613.162262 341.030092 
L 596.929535 341.030092 
z
" clip-path="url(#p03ffd1840a)" style="fill: #e1812c; opacity: 0.6; stroke: #ffffff; stroke-linejoin: miter"/>
   </g>
   <g id="patch_64">
    <path d="M 617.220444 354.635625 
L 633.453171 354.635625 
L 633.453171 345.514312 
L 617.220444 345.514312 
z
" clip-path="url(#p03ffd1840a)" style="fill: #e1812c; opacity: 0.6; stroke: #ffffff; stroke-linejoin: miter"/>
   </g>
   <g id="patch_65">
    <path d="M 637.511353 354.635625 
L 653.74408 354.635625 
L 653.74408 346.07484 
L 637.511353 346.07484 
z
" clip-path="url(#p03ffd1840a)" style="fill: #e1812c; opacity: 0.6; stroke: #ffffff; stroke-linejoin: miter"/>
   </g>
   <g id="patch_66">
    <path d="M 657.802262 354.635625 
L 674.034989 354.635625 
L 674.034989 348.113122 
L 657.802262 348.113122 
z
" clip-path="url(#p03ffd1840a)" style="fill: #e1812c; opacity: 0.6; stroke: #ffffff; stroke-linejoin: miter"/>
   </g>
   <g id="patch_67">
    <path d="M 678.093171 354.635625 
L 694.325898 354.635625 
L 694.325898 350.559061 
L 678.093171 350.559061 
z
" clip-path="url(#p03ffd1840a)" style="fill: #e1812c; opacity: 0.6; stroke: #ffffff; stroke-linejoin: miter"/>
   </g>
   <g id="patch_68">
    <path d="M 698.38408 354.635625 
L 714.616808 354.635625 
L 714.616808 351.476288 
L 698.38408 351.476288 
z
" clip-path="url(#p03ffd1840a)" style="fill: #e1812c; opacity: 0.6; stroke: #ffffff; stroke-linejoin: miter"/>
   </g>
   <g id="line2d_7">
    <path clip-path="url(#p03ffd1840a)" style="fill: none; stroke: #424242; stroke-width: 2.25; stroke-linecap: round"/>
   </g>
   <g id="line2d_8">
    <path clip-path="url(#p03ffd1840a)" style="fill: none; stroke: #424242; stroke-width: 2.25; stroke-linecap: round"/>
   </g>
   <g id="line2d_9">
    <path clip-path="url(#p03ffd1840a)" style="fill: none; stroke: #424242; stroke-width: 2.25; stroke-linecap: round"/>
   </g>
   <g id="line2d_10">
    <path clip-path="url(#p03ffd1840a)" style="fill: none; stroke: #424242; stroke-width: 2.25; stroke-linecap: round"/>
   </g>
   <g id="line2d_11">
    <path clip-path="url(#p03ffd1840a)" style="fill: none; stroke: #424242; stroke-width: 2.25; stroke-linecap: round"/>
   </g>
   <g id="line2d_12">
    <path clip-path="url(#p03ffd1840a)" style="fill: none; stroke: #424242; stroke-width: 2.25; stroke-linecap: round"/>
   </g>
   <g id="line2d_13">
    <path clip-path="url(#p03ffd1840a)" style="fill: none; stroke: #424242; stroke-width: 2.25; stroke-linecap: round"/>
   </g>
   <g id="line2d_14">
    <path clip-path="url(#p03ffd1840a)" style="fill: none; stroke: #424242; stroke-width: 2.25; stroke-linecap: round"/>
   </g>
   <g id="line2d_15">
    <path clip-path="url(#p03ffd1840a)" style="fill: none; stroke: #424242; stroke-width: 2.25; stroke-linecap: round"/>
   </g>
   <g id="line2d_16">
    <path clip-path="url(#p03ffd1840a)" style="fill: none; stroke: #424242; stroke-width: 2.25; stroke-linecap: round"/>
   </g>
   <g id="line2d_17">
    <path clip-path="url(#p03ffd1840a)" style="fill: none; stroke: #424242; stroke-width: 2.25; stroke-linecap: round"/>
   </g>
   <g id="line2d_18">
    <path clip-path="url(#p03ffd1840a)" style="fill: none; stroke: #424242; stroke-width: 2.25; stroke-linecap: round"/>
   </g>
   <g id="line2d_19">
    <path clip-path="url(#p03ffd1840a)" style="fill: none; stroke: #424242; stroke-width: 2.25; stroke-linecap: round"/>
   </g>
   <g id="line2d_20">
    <path clip-path="url(#p03ffd1840a)" style="fill: none; stroke: #424242; stroke-width: 2.25; stroke-linecap: round"/>
   </g>
   <g id="line2d_21">
    <path clip-path="url(#p03ffd1840a)" style="fill: none; stroke: #424242; stroke-width: 2.25; stroke-linecap: round"/>
   </g>
   <g id="line2d_22">
    <path clip-path="url(#p03ffd1840a)" style="fill: none; stroke: #424242; stroke-width: 2.25; stroke-linecap: round"/>
   </g>
   <g id="line2d_23">
    <path clip-path="url(#p03ffd1840a)" style="fill: none; stroke: #424242; stroke-width: 2.25; stroke-linecap: round"/>
   </g>
   <g id="line2d_24">
    <path clip-path="url(#p03ffd1840a)" style="fill: none; stroke: #424242; stroke-width: 2.25; stroke-linecap: round"/>
   </g>
   <g id="line2d_25">
    <path clip-path="url(#p03ffd1840a)" style="fill: none; stroke: #424242; stroke-width: 2.25; stroke-linecap: round"/>
   </g>
   <g id="line2d_26">
    <path clip-path="url(#p03ffd1840a)" style="fill: none; stroke: #424242; stroke-width: 2.25; stroke-linecap: round"/>
   </g>
   <g id="line2d_27">
    <path clip-path="url(#p03ffd1840a)" style="fill: none; stroke: #424242; stroke-width: 2.25; stroke-linecap: round"/>
   </g>
   <g id="line2d_28">
    <path clip-path="url(#p03ffd1840a)" style="fill: none; stroke: #424242; stroke-width: 2.25; stroke-linecap: round"/>
   </g>
   <g id="line2d_29">
    <path clip-path="url(#p03ffd1840a)" style="fill: none; stroke: #424242; stroke-width: 2.25; stroke-linecap: round"/>
   </g>
   <g id="line2d_30">
    <path clip-path="url(#p03ffd1840a)" style="fill: none; stroke: #424242; stroke-width: 2.25; stroke-linecap: round"/>
   </g>
   <g id="line2d_31">
    <path clip-path="url(#p03ffd1840a)" style="fill: none; stroke: #424242; stroke-width: 2.25; stroke-linecap: round"/>
   </g>
   <g id="line2d_32">
    <path clip-path="url(#p03ffd1840a)" style="fill: none; stroke: #424242; stroke-width: 2.25; stroke-linecap: round"/>
   </g>
   <g id="line2d_33">
    <path clip-path="url(#p03ffd1840a)" style="fill: none; stroke: #424242; stroke-width: 2.25; stroke-linecap: round"/>
   </g>
   <g id="line2d_34">
    <path clip-path="url(#p03ffd1840a)" style="fill: none; stroke: #424242; stroke-width: 2.25; stroke-linecap: round"/>
   </g>
   <g id="line2d_35">
    <path clip-path="url(#p03ffd1840a)" style="fill: none; stroke: #424242; stroke-width: 2.25; stroke-linecap: round"/>
   </g>
   <g id="line2d_36">
    <path clip-path="url(#p03ffd1840a)" style="fill: none; stroke: #424242; stroke-width: 2.25; stroke-linecap: round"/>
   </g>
   <g id="line2d_37">
    <path clip-path="url(#p03ffd1840a)" style="fill: none; stroke: #424242; stroke-width: 2.25; stroke-linecap: round"/>
   </g>
   <g id="line2d_38">
    <path clip-path="url(#p03ffd1840a)" style="fill: none; stroke: #424242; stroke-width: 2.25; stroke-linecap: round"/>
   </g>
   <g id="line2d_39">
    <path clip-path="url(#p03ffd1840a)" style="fill: none; stroke: #424242; stroke-width: 2.25; stroke-linecap: round"/>
   </g>
   <g id="line2d_40">
    <path clip-path="url(#p03ffd1840a)" style="fill: none; stroke: #424242; stroke-width: 2.25; stroke-linecap: round"/>
   </g>
   <g id="line2d_41">
    <path clip-path="url(#p03ffd1840a)" style="fill: none; stroke: #424242; stroke-width: 2.25; stroke-linecap: round"/>
   </g>
   <g id="line2d_42">
    <path clip-path="url(#p03ffd1840a)" style="fill: none; stroke: #424242; stroke-width: 2.25; stroke-linecap: round"/>
   </g>
   <g id="line2d_43">
    <path clip-path="url(#p03ffd1840a)" style="fill: none; stroke: #424242; stroke-width: 2.25; stroke-linecap: round"/>
   </g>
   <g id="line2d_44">
    <path clip-path="url(#p03ffd1840a)" style="fill: none; stroke: #424242; stroke-width: 2.25; stroke-linecap: round"/>
   </g>
   <g id="line2d_45">
    <path clip-path="url(#p03ffd1840a)" style="fill: none; stroke: #424242; stroke-width: 2.25; stroke-linecap: round"/>
   </g>
   <g id="line2d_46">
    <path clip-path="url(#p03ffd1840a)" style="fill: none; stroke: #424242; stroke-width: 2.25; stroke-linecap: round"/>
   </g>
   <g id="line2d_47">
    <path clip-path="url(#p03ffd1840a)" style="fill: none; stroke: #424242; stroke-width: 2.25; stroke-linecap: round"/>
   </g>
   <g id="line2d_48">
    <path clip-path="url(#p03ffd1840a)" style="fill: none; stroke: #424242; stroke-width: 2.25; stroke-linecap: round"/>
   </g>
   <g id="line2d_49">
    <path clip-path="url(#p03ffd1840a)" style="fill: none; stroke: #424242; stroke-width: 2.25; stroke-linecap: round"/>
   </g>
   <g id="line2d_50">
    <path clip-path="url(#p03ffd1840a)" style="fill: none; stroke: #424242; stroke-width: 2.25; stroke-linecap: round"/>
   </g>
   <g id="line2d_51">
    <path clip-path="url(#p03ffd1840a)" style="fill: none; stroke: #424242; stroke-width: 2.25; stroke-linecap: round"/>
   </g>
   <g id="line2d_52">
    <path clip-path="url(#p03ffd1840a)" style="fill: none; stroke: #424242; stroke-width: 2.25; stroke-linecap: round"/>
   </g>
   <g id="line2d_53">
    <path clip-path="url(#p03ffd1840a)" style="fill: none; stroke: #424242; stroke-width: 2.25; stroke-linecap: round"/>
   </g>
   <g id="line2d_54">
    <path clip-path="url(#p03ffd1840a)" style="fill: none; stroke: #424242; stroke-width: 2.25; stroke-linecap: round"/>
   </g>
   <g id="line2d_55">
    <path clip-path="url(#p03ffd1840a)" style="fill: none; stroke: #424242; stroke-width: 2.25; stroke-linecap: round"/>
   </g>
   <g id="line2d_56">
    <path clip-path="url(#p03ffd1840a)" style="fill: none; stroke: #424242; stroke-width: 2.25; stroke-linecap: round"/>
   </g>
   <g id="line2d_57">
    <path clip-path="url(#p03ffd1840a)" style="fill: none; stroke: #424242; stroke-width: 2.25; stroke-linecap: round"/>
   </g>
   <g id="line2d_58">
    <path clip-path="url(#p03ffd1840a)" style="fill: none; stroke: #424242; stroke-width: 2.25; stroke-linecap: round"/>
   </g>
   <g id="line2d_59">
    <path clip-path="url(#p03ffd1840a)" style="fill: none; stroke: #424242; stroke-width: 2.25; stroke-linecap: round"/>
   </g>
   <g id="line2d_60">
    <path clip-path="url(#p03ffd1840a)" style="fill: none; stroke: #424242; stroke-width: 2.25; stroke-linecap: round"/>
   </g>
   <g id="line2d_61">
    <path clip-path="url(#p03ffd1840a)" style="fill: none; stroke: #424242; stroke-width: 2.25; stroke-linecap: round"/>
   </g>
   <g id="line2d_62">
    <path clip-path="url(#p03ffd1840a)" style="fill: none; stroke: #424242; stroke-width: 2.25; stroke-linecap: round"/>
   </g>
   <g id="line2d_63">
    <path clip-path="url(#p03ffd1840a)" style="fill: none; stroke: #424242; stroke-width: 2.25; stroke-linecap: round"/>
   </g>
   <g id="line2d_64">
    <path clip-path="url(#p03ffd1840a)" style="fill: none; stroke: #424242; stroke-width: 2.25; stroke-linecap: round"/>
   </g>
   <g id="line2d_65">
    <path clip-path="url(#p03ffd1840a)" style="fill: none; stroke: #424242; stroke-width: 2.25; stroke-linecap: round"/>
   </g>
   <g id="line2d_66">
    <path clip-path="url(#p03ffd1840a)" style="fill: none; stroke: #424242; stroke-width: 2.25; stroke-linecap: round"/>
   </g>
   <g id="line2d_67">
    <path clip-path="url(#p03ffd1840a)" style="fill: none; stroke: #424242; stroke-width: 2.25; stroke-linecap: round"/>
   </g>
   <g id="line2d_68">
    <path clip-path="url(#p03ffd1840a)" style="fill: none; stroke: #424242; stroke-width: 2.25; stroke-linecap: round"/>
   </g>
   <g id="line2d_69">
    <path clip-path="url(#p03ffd1840a)" style="fill: none; stroke: #424242; stroke-width: 2.25; stroke-linecap: round"/>
   </g>
   <g id="line2d_70">
    <path clip-path="url(#p03ffd1840a)" style="fill: none; stroke: #424242; stroke-width: 2.25; stroke-linecap: round"/>
   </g>
   <g id="line2d_71">
    <path clip-path="url(#p03ffd1840a)" style="fill: none; stroke: #424242; stroke-width: 2.25; stroke-linecap: round"/>
   </g>
   <g id="line2d_72">
    <path clip-path="url(#p03ffd1840a)" style="fill: none; stroke: #424242; stroke-width: 2.25; stroke-linecap: round"/>
   </g>
   <g id="patch_69">
    <path d="M 47.045898 354.635625 
L 47.045898 21.995625 
" style="fill: none; stroke: #262626; stroke-width: 0.8; stroke-linejoin: miter; stroke-linecap: square"/>
   </g>
   <g id="patch_70">
    <path d="M 716.645898 354.635625 
L 716.645898 21.995625 
" style="fill: none; stroke: #262626; stroke-width: 0.8; stroke-linejoin: miter; stroke-linecap: square"/>
   </g>
   <g id="patch_71">
    <path d="M 47.045898 354.635625 
L 716.645898 354.635625 
" style="fill: none; stroke: #262626; stroke-width: 0.8; stroke-linejoin: miter; stroke-linecap: square"/>
   </g>
   <g id="patch_72">
    <path d="M 47.045898 21.995625 
L 716.645898 21.995625 
" style="fill: none; stroke: #262626; stroke-width: 0.8; stroke-linejoin: miter; stroke-linecap: square"/>
   </g>
   <g id="text_42">
    <!-- НМТ 2025. Розподіл балів з математики за типом місцевості -->
    <g style="fill: #262626" transform="translate(214.197461 15.995625) scale(0.12 -0.12)">
     <defs>
      <path id="ArialMT-247" d="M 513 0 
L 513 4581 
L 1119 4581 
L 1119 2700 
L 3500 2700 
L 3500 4581 
L 4106 4581 
L 4106 0 
L 3500 0 
L 3500 2159 
L 1119 2159 
L 1119 0 
L 513 0 
z
" transform="scale(0.015625)"/>
      <path id="ArialMT-246" d="M 475 0 
L 475 4581 
L 1388 4581 
L 2472 1338 
Q 2622 884 2691 659 
Q 2769 909 2934 1394 
L 4031 4581 
L 4847 4581 
L 4847 0 
L 4263 0 
L 4263 3834 
L 2931 0 
L 2384 0 
L 1059 3900 
L 1059 0 
L 475 0 
z
" transform="scale(0.015625)"/>
      <path id="ArialMT-24c" d="M 1659 0 
L 1659 4041 
L 150 4041 
L 150 4581 
L 3781 4581 
L 3781 4041 
L 2266 4041 
L 2266 0 
L 1659 0 
z
" transform="scale(0.015625)"/>
      <path id="ArialMT-24a" d="M 494 0 
L 494 4581 
L 2222 4581 
Q 2678 4581 2919 4538 
Q 3256 4481 3484 4323 
Q 3713 4166 3852 3881 
Q 3991 3597 3991 3256 
Q 3991 2672 3619 2267 
Q 3247 1863 2275 1863 
L 1100 1863 
L 1100 0 
L 494 0 
z
M 1100 2403 
L 2284 2403 
Q 2872 2403 3119 2622 
Q 3366 2841 3366 3238 
Q 3366 3525 3220 3729 
Q 3075 3934 2838 4000 
Q 2684 4041 2272 4041 
L 1100 4041 
L 1100 2403 
z
" transform="scale(0.015625)"/>
      <path id="ArialMT-268" d="M 213 1659 
Q 213 2581 725 3025 
Q 1153 3394 1769 3394 
Q 2453 3394 2887 2945 
Q 3322 2497 3322 1706 
Q 3322 1066 3130 698 
Q 2938 331 2570 128 
Q 2203 -75 1769 -75 
Q 1072 -75 642 372 
Q 213 819 213 1659 
z
M 791 1659 
Q 791 1022 1069 705 
Q 1347 388 1769 388 
Q 2188 388 2466 706 
Q 2744 1025 2744 1678 
Q 2744 2294 2464 2611 
Q 2184 2928 1769 2928 
Q 1347 2928 1069 2612 
Q 791 2297 791 1659 
z
" transform="scale(0.015625)"/>
      <path id="ArialMT-261" d="M 1156 1500 
L 1156 1941 
Q 1513 1944 1642 1969 
Q 1772 1994 1887 2119 
Q 2003 2244 2003 2431 
Q 2003 2659 1851 2795 
Q 1700 2931 1459 2931 
Q 984 2931 794 2372 
L 259 2459 
Q 509 3394 1466 3394 
Q 1997 3394 2298 3103 
Q 2600 2813 2600 2409 
Q 2600 2003 2206 1763 
Q 2456 1628 2581 1420 
Q 2706 1213 2706 928 
Q 2706 481 2381 203 
Q 2056 -75 1472 -75 
Q 338 -75 156 934 
L 684 1047 
Q 756 728 976 553 
Q 1197 378 1481 378 
Q 1766 378 1955 539 
Q 2144 700 2144 950 
Q 2144 1144 2025 1287 
Q 1906 1431 1772 1467 
Q 1638 1503 1284 1503 
Q 1256 1503 1156 1500 
z
" transform="scale(0.015625)"/>
      <path id="ArialMT-269" d="M 425 3319 
L 3044 3319 
L 3044 0 
L 2481 0 
L 2481 2853 
L 988 2853 
L 988 0 
L 425 0 
L 425 3319 
z
" transform="scale(0.015625)"/>
      <path id="ArialMT-25e" d="M 866 3319 
L 3178 3319 
L 3178 463 
L 3538 463 
L 3538 -941 
L 3075 -941 
L 3075 0 
L 463 0 
L 463 -941 
L 0 -941 
L 0 463 
L 297 463 
Q 891 1269 866 3319 
z
M 1334 2853 
Q 1272 1238 834 463 
L 2619 463 
L 2619 2853 
L 1334 2853 
z
" transform="scale(0.015625)"/>
      <path id="ArialMT-25b" d="M 2853 4691 
L 3350 4684 
Q 3316 4350 3202 4219 
Q 3088 4088 2908 4050 
Q 2728 4013 2203 4013 
Q 1506 4013 1253 3878 
Q 1000 3744 889 3448 
Q 778 3153 766 2688 
Q 978 3003 1262 3161 
Q 1547 3319 1903 3319 
Q 2556 3319 2984 2870 
Q 3413 2422 3413 1656 
Q 3413 1075 3197 703 
Q 2981 331 2686 128 
Q 2391 -75 1881 -75 
Q 1291 -75 962 195 
Q 634 466 459 887 
Q 284 1309 284 2356 
Q 284 3672 729 4128 
Q 1175 4584 2100 4584 
Q 2675 4584 2753 4603 
Q 2831 4622 2853 4691 
z
M 2825 1672 
Q 2825 2191 2579 2522 
Q 2334 2853 1888 2853 
Q 1422 2853 1169 2503 
Q 916 2153 916 1569 
Q 916 991 1195 684 
Q 1475 378 1884 378 
Q 2303 378 2564 733 
Q 2825 1088 2825 1672 
z
" transform="scale(0.015625)"/>
      <path id="ArialMT-266" d="M 438 3319 
L 1313 3319 
L 2184 663 
L 3153 3319 
L 3963 3319 
L 3963 0 
L 3400 0 
L 3400 2672 
L 2419 0 
L 1916 0 
L 988 2800 
L 988 0 
L 438 0 
L 438 3319 
z
" transform="scale(0.015625)"/>
      <path id="ArialMT-25f" d="M 2694 1069 
L 3275 997 
Q 3138 488 2766 206 
Q 2394 -75 1816 -75 
Q 1088 -75 661 373 
Q 234 822 234 1631 
Q 234 2469 665 2931 
Q 1097 3394 1784 3394 
Q 2450 3394 2872 2941 
Q 3294 2488 3294 1666 
Q 3294 1616 3291 1516 
L 816 1516 
Q 847 969 1125 678 
Q 1403 388 1819 388 
Q 2128 388 2347 550 
Q 2566 713 2694 1069 
z
M 847 1978 
L 2700 1978 
Q 2663 2397 2488 2606 
Q 2219 2931 1791 2931 
Q 1403 2931 1139 2672 
Q 875 2413 847 1978 
z
" transform="scale(0.015625)"/>
      <path id="ArialMT-270" d="M 431 3319 
L 994 3319 
L 994 463 
L 2550 463 
L 2550 3319 
L 3113 3319 
L 3113 463 
L 3475 463 
L 3475 -941 
L 3013 -941 
L 3013 0 
L 431 0 
L 431 3319 
z
" transform="scale(0.015625)"/>
     </defs>
     <use xlink:href="#ArialMT-247"/>
     <use xlink:href="#ArialMT-246" transform="translate(72.21875 0)"/>
     <use xlink:href="#ArialMT-24c" transform="translate(155.515625 0)"/>
     <use xlink:href="#ArialMT-3" transform="translate(216.59375 0)"/>
     <use xlink:href="#ArialMT-15" transform="translate(244.375 0)"/>
     <use xlink:href="#ArialMT-13" transform="translate(299.984375 0)"/>
     <use xlink:href="#ArialMT-15" transform="translate(355.59375 0)"/>
     <use xlink:href="#ArialMT-18" transform="translate(411.203125 0)"/>
     <use xlink:href="#ArialMT-11" transform="translate(466.8125 0)"/>
     <use xlink:href="#ArialMT-3" transform="translate(494.59375 0)"/>
     <use xlink:href="#ArialMT-24a" transform="translate(522.375 0)"/>
     <use xlink:href="#ArialMT-268" transform="translate(584.6875 0)"/>
     <use xlink:href="#ArialMT-261" transform="translate(639.171875 0)"/>
     <use xlink:href="#ArialMT-269" transform="translate(685.015625 0)"/>
     <use xlink:href="#ArialMT-268" transform="translate(739.171875 0)"/>
     <use xlink:href="#ArialMT-25e" transform="translate(792.578125 0)"/>
     <use xlink:href="#ArialMT-27f" transform="translate(850.921875 0)"/>
     <use xlink:href="#ArialMT-265" transform="translate(873.140625 0)"/>
     <use xlink:href="#ArialMT-3" transform="translate(931.484375 0)"/>
     <use xlink:href="#ArialMT-25b" transform="translate(959.265625 0)"/>
     <use xlink:href="#ArialMT-25a" transform="translate(1014.25 0)"/>
     <use xlink:href="#ArialMT-265" transform="translate(1069.859375 0)"/>
     <use xlink:href="#ArialMT-27f" transform="translate(1128.203125 0)"/>
     <use xlink:href="#ArialMT-25c" transform="translate(1150.421875 0)"/>
     <use xlink:href="#ArialMT-3" transform="translate(1203.546875 0)"/>
     <use xlink:href="#ArialMT-261" transform="translate(1231.328125 0)"/>
     <use xlink:href="#ArialMT-3" transform="translate(1277.171875 0)"/>
     <use xlink:href="#ArialMT-266" transform="translate(1304.953125 0)"/>
     <use xlink:href="#ArialMT-25a" transform="translate(1373.703125 0)"/>
     <use xlink:href="#ArialMT-26c" transform="translate(1427.109375 0)"/>
     <use xlink:href="#ArialMT-25f" transform="translate(1471.78125 0)"/>
     <use xlink:href="#ArialMT-266" transform="translate(1527.390625 0)"/>
     <use xlink:href="#ArialMT-25a" transform="translate(1596.140625 0)"/>
     <use xlink:href="#ArialMT-26c" transform="translate(1649.546875 0)"/>
     <use xlink:href="#ArialMT-262" transform="translate(1695.34375 0)"/>
     <use xlink:href="#ArialMT-264" transform="translate(1751.203125 0)"/>
     <use xlink:href="#ArialMT-262" transform="translate(1794.953125 0)"/>
     <use xlink:href="#ArialMT-3" transform="translate(1850.8125 0)"/>
     <use xlink:href="#ArialMT-261" transform="translate(1878.59375 0)"/>
     <use xlink:href="#ArialMT-25a" transform="translate(1924.4375 0)"/>
     <use xlink:href="#ArialMT-3" transform="translate(1980.046875 0)"/>
     <use xlink:href="#ArialMT-26c" transform="translate(2007.828125 0)"/>
     <use xlink:href="#ArialMT-262" transform="translate(2053.625 0)"/>
     <use xlink:href="#ArialMT-269" transform="translate(2109.484375 0)"/>
     <use xlink:href="#ArialMT-268" transform="translate(2163.640625 0)"/>
     <use xlink:href="#ArialMT-266" transform="translate(2219.25 0)"/>
     <use xlink:href="#ArialMT-3" transform="translate(2288 0)"/>
     <use xlink:href="#ArialMT-266" transform="translate(2315.78125 0)"/>
     <use xlink:href="#ArialMT-27f" transform="translate(2384.53125 0)"/>
     <use xlink:href="#ArialMT-26b" transform="translate(2406.75 0)"/>
     <use xlink:href="#ArialMT-270" transform="translate(2456.75 0)"/>
     <use xlink:href="#ArialMT-25f" transform="translate(2512.90625 0)"/>
     <use xlink:href="#ArialMT-25c" transform="translate(2568.515625 0)"/>
     <use xlink:href="#ArialMT-268" transform="translate(2620.515625 0)"/>
     <use xlink:href="#ArialMT-26b" transform="translate(2676.125 0)"/>
     <use xlink:href="#ArialMT-26c" transform="translate(2726.125 0)"/>
     <use xlink:href="#ArialMT-27f" transform="translate(2771.921875 0)"/>
    </g>
   </g>
   <g id="legend_1">
    <g id="patch_73">
     <path d="M 612.803711 73.149922 
L 709.645898 73.149922 
Q 711.645898 73.149922 711.645898 71.149922 
L 711.645898 28.995625 
Q 711.645898 26.995625 709.645898 26.995625 
L 612.803711 26.995625 
Q 610.803711 26.995625 610.803711 28.995625 
L 610.803711 71.149922 
Q 610.803711 73.149922 612.803711 73.149922 
z
" style="fill: #ffffff; opacity: 0.8; stroke: #cccccc; stroke-linejoin: miter"/>
    </g>
    <g id="text_43">
     <!-- Тип місцевості -->
     <g style="fill: #262626" transform="translate(627.582617 38.275898) scale(0.1 -0.1)">
      <use xlink:href="#ArialMT-24c"/>
      <use xlink:href="#ArialMT-262" transform="translate(56.6875 0)"/>
      <use xlink:href="#ArialMT-269" transform="translate(112.546875 0)"/>
      <use xlink:href="#ArialMT-3" transform="translate(166.703125 0)"/>
      <use xlink:href="#ArialMT-266" transform="translate(194.484375 0)"/>
      <use xlink:href="#ArialMT-27f" transform="translate(263.234375 0)"/>
      <use xlink:href="#ArialMT-26b" transform="translate(285.453125 0)"/>
      <use xlink:href="#ArialMT-270" transform="translate(335.453125 0)"/>
      <use xlink:href="#ArialMT-25f" transform="translate(391.609375 0)"/>
      <use xlink:href="#ArialMT-25c" transform="translate(447.21875 0)"/>
      <use xlink:href="#ArialMT-268" transform="translate(499.21875 0)"/>
      <use xlink:href="#ArialMT-26b" transform="translate(554.828125 0)"/>
      <use xlink:href="#ArialMT-26c" transform="translate(604.828125 0)"/>
      <use xlink:href="#ArialMT-27f" transform="translate(650.625 0)"/>
     </g>
    </g>
    <g id="patch_74">
     <path d="M 614.803711 52.660664 
L 634.803711 52.660664 
L 634.803711 45.660664 
L 614.803711 45.660664 
z
" style="fill: #3274a1; opacity: 0.6; stroke: #ffffff; stroke-linejoin: miter"/>
    </g>
    <g id="text_44">
     <!-- Місто -->
     <g style="fill: #262626" transform="translate(642.803711 52.660664) scale(0.1 -0.1)">
      <use xlink:href="#ArialMT-246"/>
      <use xlink:href="#ArialMT-27f" transform="translate(83.296875 0)"/>
      <use xlink:href="#ArialMT-26b" transform="translate(105.515625 0)"/>
      <use xlink:href="#ArialMT-26c" transform="translate(155.515625 0)"/>
      <use xlink:href="#ArialMT-268" transform="translate(200.1875 0)"/>
     </g>
    </g>
    <g id="patch_75">
     <path d="M 614.803711 67.04543 
L 634.803711 67.04543 
L 634.803711 60.04543 
L 614.803711 60.04543 
z
" style="fill: #e1812c; opacity: 0.6; stroke: #ffffff; stroke-linejoin: miter"/>
    </g>
    <g id="text_45">
     <!-- Селище, село -->
     <g style="fill: #262626" transform="translate(642.803711 67.04543) scale(0.1 -0.1)">
      <defs>
       <path id="ArialMT-24b" d="M 3763 1606 
L 4369 1453 
Q 4178 706 3683 314 
Q 3188 -78 2472 -78 
Q 1731 -78 1267 223 
Q 803 525 561 1097 
Q 319 1669 319 2325 
Q 319 3041 592 3573 
Q 866 4106 1370 4382 
Q 1875 4659 2481 4659 
Q 3169 4659 3637 4309 
Q 4106 3959 4291 3325 
L 3694 3184 
Q 3534 3684 3231 3912 
Q 2928 4141 2469 4141 
Q 1941 4141 1586 3887 
Q 1231 3634 1087 3207 
Q 944 2781 944 2328 
Q 944 1744 1114 1308 
Q 1284 872 1643 656 
Q 2003 441 2422 441 
Q 2931 441 3284 734 
Q 3638 1028 3763 1606 
z
" transform="scale(0.015625)"/>
       <path id="ArialMT-273" d="M 441 3319 
L 1003 3319 
L 1003 463 
L 2284 463 
L 2284 3319 
L 2847 3319 
L 2847 463 
L 4131 463 
L 4131 3319 
L 4691 3319 
L 4691 463 
L 5063 463 
L 5063 -941 
L 4597 -941 
L 4597 0 
L 441 0 
L 441 3319 
z
" transform="scale(0.015625)"/>
       <path id="ArialMT-f" d="M 569 0 
L 569 641 
L 1209 641 
L 1209 0 
Q 1209 -353 1084 -570 
Q 959 -788 688 -906 
L 531 -666 
Q 709 -588 793 -436 
Q 878 -284 888 0 
L 569 0 
z
" transform="scale(0.015625)"/>
      </defs>
      <use xlink:href="#ArialMT-24b"/>
      <use xlink:href="#ArialMT-25f" transform="translate(72.21875 0)"/>
      <use xlink:href="#ArialMT-265" transform="translate(124.515625 0)"/>
      <use xlink:href="#ArialMT-262" transform="translate(182.859375 0)"/>
      <use xlink:href="#ArialMT-273" transform="translate(238.71875 0)"/>
      <use xlink:href="#ArialMT-25f" transform="translate(319.875 0)"/>
      <use xlink:href="#ArialMT-f" transform="translate(375.484375 0)"/>
      <use xlink:href="#ArialMT-3" transform="translate(403.265625 0)"/>
      <use xlink:href="#ArialMT-26b" transform="translate(431.046875 0)"/>
      <use xlink:href="#ArialMT-25f" transform="translate(481.046875 0)"/>
      <use xlink:href="#ArialMT-265" transform="translate(533.34375 0)"/>
      <use xlink:href="#ArialMT-268" transform="translate(592.8125 0)"/>
     </g>
    </g>
   </g>
  </g>
 </g>
 <defs>
  <clipPath id="p03ffd1840a">
   <rect x="47.045898" y="21.995625" width="669.6" height="332.64"/>
  </clipPath>
 </defs>
</svg>
