<?xml version="1.0" encoding="utf-8" standalone="no"?>
<!DOCTYPE svg PUBLIC "-//W3C//DTD SVG 1.1//EN"
  "http://www.w3.org/Graphics/SVG/1.1/DTD/svg11.dtd">
<svg xmlns:xlink="http://www.w3.org/1999/xlink" width="1296pt" height="432pt" viewBox="0 0 1296 432" xmlns="http://www.w3.org/2000/svg" version="1.1">
 <metadata>
  <rdf:RDF xmlns:dc="http://purl.org/dc/elements/1.1/" xmlns:cc="http://creativecommons.org/ns#" xmlns:rdf="http://www.w3.org/1999/02/22-rdf-syntax-ns#">
   <cc:Work>
    <dc:type rdf:resource="http://purl.org/dc/dcmitype/StillImage"/>
    <dc:date>2026-06-27T23:26:39.770585</dc:date>
    <dc:format>image/svg+xml</dc:format>
    <dc:creator>
     <cc:Agent>
      <dc:title>Matplotlib v3.11.0, https://matplotlib.org/</dc:title>
     </cc:Agent>
    </dc:creator>
   </cc:Work>
  </rdf:RDF>
 </metadata>
 <defs>
  <style type="text/css">*{stroke-linejoin: round; stroke-linecap: butt}</style>
 </defs>
 <g id="figure_1">
  <g id="patch_1">
   <path d="M 0 432 
L 1296 432 
L 1296 0 
L 0 0 
z
" style="fill: #ffffff"/>
  </g>
  <g id="axes_1">
   <g id="patch_2">
    <path d="M 162 384.48 
L 1166.4 384.48 
L 1166.4 51.84 
L 162 51.84 
z
" style="fill: #ffffff"/>
   </g>
   <g id="matplotlib.axis_1">
    <g id="xtick_1">
     <g id="text_1">
      <!-- 0 -->
      <g style="fill: #262626" transform="translate(179.088291 405.191621) scale(0.154 -0.154)">
       <defs>
        <path id="ArialMT-13" d="M 266 2259 
Q 266 3072 433 3567 
Q 600 4063 929 4331 
Q 1259 4600 1759 4600 
Q 2128 4600 2406 4451 
Q 2684 4303 2865 4023 
Q 3047 3744 3150 3342 
Q 3253 2941 3253 2259 
Q 3253 1453 3087 958 
Q 2922 463 2592 192 
Q 2263 -78 1759 -78 
Q 1097 -78 719 397 
Q 266 969 266 2259 
z
M 844 2259 
Q 844 1131 1108 757 
Q 1372 384 1759 384 
Q 2147 384 2411 759 
Q 2675 1134 2675 2259 
Q 2675 3391 2411 3762 
Q 2147 4134 1753 4134 
Q 1366 4134 1134 3806 
Q 844 3388 844 2259 
z
" transform="scale(0.015625)"/>
       </defs>
       <use xlink:href="#ArialMT-13"/>
      </g>
     </g>
    </g>
    <g id="xtick_2">
     <g id="text_2">
      <!-- 1 -->
      <g style="fill: #262626" transform="translate(200.458504 405.191621) scale(0.154 -0.154)">
       <defs>
        <path id="ArialMT-14" d="M 2384 0 
L 1822 0 
L 1822 3584 
Q 1619 3391 1289 3197 
Q 959 3003 697 2906 
L 697 3450 
Q 1169 3672 1522 3987 
Q 1875 4303 2022 4600 
L 2384 4600 
L 2384 0 
z
" transform="scale(0.015625)"/>
       </defs>
       <use xlink:href="#ArialMT-14"/>
      </g>
     </g>
    </g>
    <g id="xtick_3">
     <g id="text_3">
      <!-- 2 -->
      <g style="fill: #262626" transform="translate(221.828716 405.191621) scale(0.154 -0.154)">
       <defs>
        <path id="ArialMT-15" d="M 3222 541 
L 3222 0 
L 194 0 
Q 188 203 259 391 
Q 375 700 629 1000 
Q 884 1300 1366 1694 
Q 2113 2306 2375 2664 
Q 2638 3022 2638 3341 
Q 2638 3675 2398 3904 
Q 2159 4134 1775 4134 
Q 1369 4134 1125 3890 
Q 881 3647 878 3216 
L 300 3275 
Q 359 3922 746 4261 
Q 1134 4600 1788 4600 
Q 2447 4600 2831 4234 
Q 3216 3869 3216 3328 
Q 3216 3053 3103 2787 
Q 2991 2522 2730 2228 
Q 2469 1934 1863 1422 
Q 1356 997 1212 845 
Q 1069 694 975 541 
L 3222 541 
z
" transform="scale(0.015625)"/>
       </defs>
       <use xlink:href="#ArialMT-15"/>
      </g>
     </g>
    </g>
    <g id="xtick_4">
     <g id="text_4">
      <!-- 3 -->
      <g style="fill: #262626" transform="translate(243.198929 405.191621) scale(0.154 -0.154)">
       <defs>
        <path id="ArialMT-16" d="M 269 1209 
L 831 1284 
Q 928 806 1161 595 
Q 1394 384 1728 384 
Q 2125 384 2398 659 
Q 2672 934 2672 1341 
Q 2672 1728 2419 1979 
Q 2166 2231 1775 2231 
Q 1616 2231 1378 2169 
L 1441 2663 
Q 1497 2656 1531 2656 
Q 1891 2656 2178 2843 
Q 2466 3031 2466 3422 
Q 2466 3731 2256 3934 
Q 2047 4138 1716 4138 
Q 1388 4138 1169 3931 
Q 950 3725 888 3313 
L 325 3413 
Q 428 3978 793 4289 
Q 1159 4600 1703 4600 
Q 2078 4600 2393 4439 
Q 2709 4278 2876 4000 
Q 3044 3722 3044 3409 
Q 3044 3113 2884 2869 
Q 2725 2625 2413 2481 
Q 2819 2388 3044 2092 
Q 3269 1797 3269 1353 
Q 3269 753 2831 336 
Q 2394 -81 1725 -81 
Q 1122 -81 723 278 
Q 325 638 269 1209 
z
" transform="scale(0.015625)"/>
       </defs>
       <use xlink:href="#ArialMT-16"/>
      </g>
     </g>
    </g>
    <g id="xtick_5">
     <g id="text_5">
      <!-- 4 -->
      <g style="fill: #262626" transform="translate(264.569142 405.191621) scale(0.154 -0.154)">
       <defs>
        <path id="ArialMT-17" d="M 2069 0 
L 2069 1097 
L 81 1097 
L 81 1613 
L 2172 4581 
L 2631 4581 
L 2631 1613 
L 3250 1613 
L 3250 1097 
L 2631 1097 
L 2631 0 
L 2069 0 
z
M 2069 1613 
L 2069 3678 
L 634 1613 
L 2069 1613 
z
" transform="scale(0.015625)"/>
       </defs>
       <use xlink:href="#ArialMT-17"/>
      </g>
     </g>
    </g>
    <g id="xtick_6">
     <g id="text_6">
      <!-- 5 -->
      <g style="fill: #262626" transform="translate(285.939355 405.191621) scale(0.154 -0.154)">
       <defs>
        <path id="ArialMT-18" d="M 266 1200 
L 856 1250 
Q 922 819 1161 601 
Q 1400 384 1738 384 
Q 2144 384 2425 690 
Q 2706 997 2706 1503 
Q 2706 1984 2436 2262 
Q 2166 2541 1728 2541 
Q 1456 2541 1237 2417 
Q 1019 2294 894 2097 
L 366 2166 
L 809 4519 
L 3088 4519 
L 3088 3981 
L 1259 3981 
L 1013 2750 
Q 1425 3038 1878 3038 
Q 2478 3038 2890 2622 
Q 3303 2206 3303 1553 
Q 3303 931 2941 478 
Q 2500 -78 1738 -78 
Q 1113 -78 717 272 
Q 322 622 266 1200 
z
" transform="scale(0.015625)"/>
       </defs>
       <use xlink:href="#ArialMT-18"/>
      </g>
     </g>
    </g>
    <g id="xtick_7">
     <g id="text_7">
      <!-- 6 -->
      <g style="fill: #262626" transform="translate(307.309567 405.191621) scale(0.154 -0.154)">
       <defs>
        <path id="ArialMT-19" d="M 3184 3459 
L 2625 3416 
Q 2550 3747 2413 3897 
Q 2184 4138 1850 4138 
Q 1581 4138 1378 3988 
Q 1113 3794 959 3422 
Q 806 3050 800 2363 
Q 1003 2672 1297 2822 
Q 1591 2972 1913 2972 
Q 2475 2972 2870 2558 
Q 3266 2144 3266 1488 
Q 3266 1056 3080 686 
Q 2894 316 2569 119 
Q 2244 -78 1831 -78 
Q 1128 -78 684 439 
Q 241 956 241 2144 
Q 241 3472 731 4075 
Q 1159 4600 1884 4600 
Q 2425 4600 2770 4297 
Q 3116 3994 3184 3459 
z
M 888 1484 
Q 888 1194 1011 928 
Q 1134 663 1356 523 
Q 1578 384 1822 384 
Q 2178 384 2434 671 
Q 2691 959 2691 1453 
Q 2691 1928 2437 2201 
Q 2184 2475 1800 2475 
Q 1419 2475 1153 2201 
Q 888 1928 888 1484 
z
" transform="scale(0.015625)"/>
       </defs>
       <use xlink:href="#ArialMT-19"/>
      </g>
     </g>
    </g>
    <g id="xtick_8">
     <g id="text_8">
      <!-- 7 -->
      <g style="fill: #262626" transform="translate(328.67978 405.191621) scale(0.154 -0.154)">
       <defs>
        <path id="ArialMT-1a" d="M 303 3981 
L 303 4522 
L 3269 4522 
L 3269 4084 
Q 2831 3619 2401 2847 
Q 1972 2075 1738 1259 
Q 1569 684 1522 0 
L 944 0 
Q 953 541 1156 1306 
Q 1359 2072 1739 2783 
Q 2119 3494 2547 3981 
L 303 3981 
z
" transform="scale(0.015625)"/>
       </defs>
       <use xlink:href="#ArialMT-1a"/>
      </g>
     </g>
    </g>
    <g id="xtick_9">
     <g id="text_9">
      <!-- 8 -->
      <g style="fill: #262626" transform="translate(350.049993 405.191621) scale(0.154 -0.154)">
       <defs>
        <path id="ArialMT-1b" d="M 1131 2484 
Q 781 2613 612 2850 
Q 444 3088 444 3419 
Q 444 3919 803 4259 
Q 1163 4600 1759 4600 
Q 2359 4600 2725 4251 
Q 3091 3903 3091 3403 
Q 3091 3084 2923 2848 
Q 2756 2613 2416 2484 
Q 2838 2347 3058 2040 
Q 3278 1734 3278 1309 
Q 3278 722 2862 322 
Q 2447 -78 1769 -78 
Q 1091 -78 675 323 
Q 259 725 259 1325 
Q 259 1772 486 2073 
Q 713 2375 1131 2484 
z
M 1019 3438 
Q 1019 3113 1228 2906 
Q 1438 2700 1772 2700 
Q 2097 2700 2305 2904 
Q 2513 3109 2513 3406 
Q 2513 3716 2298 3927 
Q 2084 4138 1766 4138 
Q 1444 4138 1231 3931 
Q 1019 3725 1019 3438 
z
M 838 1322 
Q 838 1081 952 856 
Q 1066 631 1291 507 
Q 1516 384 1775 384 
Q 2178 384 2440 643 
Q 2703 903 2703 1303 
Q 2703 1709 2433 1975 
Q 2163 2241 1756 2241 
Q 1359 2241 1098 1978 
Q 838 1716 838 1322 
z
" transform="scale(0.015625)"/>
       </defs>
       <use xlink:href="#ArialMT-1b"/>
      </g>
     </g>
    </g>
    <g id="xtick_10">
     <g id="text_10">
      <!-- 9 -->
      <g style="fill: #262626" transform="translate(371.420206 405.191621) scale(0.154 -0.154)">
       <defs>
        <path id="ArialMT-1c" d="M 350 1059 
L 891 1109 
Q 959 728 1153 556 
Q 1347 384 1650 384 
Q 1909 384 2104 503 
Q 2300 622 2425 820 
Q 2550 1019 2634 1356 
Q 2719 1694 2719 2044 
Q 2719 2081 2716 2156 
Q 2547 1888 2255 1720 
Q 1963 1553 1622 1553 
Q 1053 1553 659 1965 
Q 266 2378 266 3053 
Q 266 3750 677 4175 
Q 1088 4600 1706 4600 
Q 2153 4600 2523 4359 
Q 2894 4119 3086 3673 
Q 3278 3228 3278 2384 
Q 3278 1506 3087 986 
Q 2897 466 2520 194 
Q 2144 -78 1638 -78 
Q 1100 -78 759 220 
Q 419 519 350 1059 
z
M 2653 3081 
Q 2653 3566 2395 3850 
Q 2138 4134 1775 4134 
Q 1400 4134 1122 3828 
Q 844 3522 844 3034 
Q 844 2597 1108 2323 
Q 1372 2050 1759 2050 
Q 2150 2050 2401 2323 
Q 2653 2597 2653 3081 
z
" transform="scale(0.015625)"/>
       </defs>
       <use xlink:href="#ArialMT-1c"/>
      </g>
     </g>
    </g>
    <g id="xtick_11">
     <g id="text_11">
      <!-- 10 -->
      <g style="fill: #262626" transform="translate(388.508497 405.191621) scale(0.154 -0.154)">
       <use xlink:href="#ArialMT-14"/>
       <use xlink:href="#ArialMT-13" transform="translate(55.609375 0)"/>
      </g>
     </g>
    </g>
    <g id="xtick_12">
     <g id="text_12">
      <!-- 11 -->
      <g style="fill: #262626" transform="translate(410.450194 405.191621) scale(0.154 -0.154)">
       <use xlink:href="#ArialMT-14"/>
       <use xlink:href="#ArialMT-14" transform="translate(48.1875 0)"/>
      </g>
     </g>
    </g>
    <g id="xtick_13">
     <g id="text_13">
      <!-- 12 -->
      <g style="fill: #262626" transform="translate(431.248922 405.191621) scale(0.154 -0.154)">
       <use xlink:href="#ArialMT-14"/>
       <use xlink:href="#ArialMT-15" transform="translate(55.609375 0)"/>
      </g>
     </g>
    </g>
    <g id="xtick_14">
     <g id="text_14">
      <!-- 13 -->
      <g style="fill: #262626" transform="translate(452.619135 405.191621) scale(0.154 -0.154)">
       <use xlink:href="#ArialMT-14"/>
       <use xlink:href="#ArialMT-16" transform="translate(55.609375 0)"/>
      </g>
     </g>
    </g>
    <g id="xtick_15">
     <g id="text_15">
      <!-- 14 -->
      <g style="fill: #262626" transform="translate(473.989348 405.191621) scale(0.154 -0.154)">
       <use xlink:href="#ArialMT-14"/>
       <use xlink:href="#ArialMT-17" transform="translate(55.609375 0)"/>
      </g>
     </g>
    </g>
    <g id="xtick_16">
     <g id="text_16">
      <!-- 15 -->
      <g style="fill: #262626" transform="translate(495.359561 405.191621) scale(0.154 -0.154)">
       <use xlink:href="#ArialMT-14"/>
       <use xlink:href="#ArialMT-18" transform="translate(55.609375 0)"/>
      </g>
     </g>
    </g>
    <g id="xtick_17">
     <g id="text_17">
      <!-- 16 -->
      <g style="fill: #262626" transform="translate(516.729773 405.191621) scale(0.154 -0.154)">
       <use xlink:href="#ArialMT-14"/>
       <use xlink:href="#ArialMT-19" transform="translate(55.609375 0)"/>
      </g>
     </g>
    </g>
    <g id="xtick_18">
     <g id="text_18">
      <!-- 17 -->
      <g style="fill: #262626" transform="translate(538.099986 405.191621) scale(0.154 -0.154)">
       <use xlink:href="#ArialMT-14"/>
       <use xlink:href="#ArialMT-1a" transform="translate(55.609375 0)"/>
      </g>
     </g>
    </g>
    <g id="xtick_19">
     <g id="text_19">
      <!-- 18 -->
      <g style="fill: #262626" transform="translate(559.470199 405.191621) scale(0.154 -0.154)">
       <use xlink:href="#ArialMT-14"/>
       <use xlink:href="#ArialMT-1b" transform="translate(55.609375 0)"/>
      </g>
     </g>
    </g>
    <g id="xtick_20">
     <g id="text_20">
      <!-- 19 -->
      <g style="fill: #262626" transform="translate(580.840412 405.191621) scale(0.154 -0.154)">
       <use xlink:href="#ArialMT-14"/>
       <use xlink:href="#ArialMT-1c" transform="translate(55.609375 0)"/>
      </g>
     </g>
    </g>
    <g id="xtick_21">
     <g id="text_21">
      <!-- 20 -->
      <g style="fill: #262626" transform="translate(602.210624 405.191621) scale(0.154 -0.154)">
       <use xlink:href="#ArialMT-15"/>
       <use xlink:href="#ArialMT-13" transform="translate(55.609375 0)"/>
      </g>
     </g>
    </g>
    <g id="xtick_22">
     <g id="text_22">
      <!-- 21 -->
      <g style="fill: #262626" transform="translate(623.580837 405.191621) scale(0.154 -0.154)">
       <use xlink:href="#ArialMT-15"/>
       <use xlink:href="#ArialMT-14" transform="translate(55.609375 0)"/>
      </g>
     </g>
    </g>
    <g id="xtick_23">
     <g id="text_23">
      <!-- 22 -->
      <g style="fill: #262626" transform="translate(644.95105 405.191621) scale(0.154 -0.154)">
       <use xlink:href="#ArialMT-15"/>
       <use xlink:href="#ArialMT-15" transform="translate(55.609375 0)"/>
      </g>
     </g>
    </g>
    <g id="xtick_24">
     <g id="text_24">
      <!-- 23 -->
      <g style="fill: #262626" transform="translate(666.321263 405.191621) scale(0.154 -0.154)">
       <use xlink:href="#ArialMT-15"/>
       <use xlink:href="#ArialMT-16" transform="translate(55.609375 0)"/>
      </g>
     </g>
    </g>
    <g id="xtick_25">
     <g id="text_25">
      <!-- 24 -->
      <g style="fill: #262626" transform="translate(687.691475 405.191621) scale(0.154 -0.154)">
       <use xlink:href="#ArialMT-15"/>
       <use xlink:href="#ArialMT-17" transform="translate(55.609375 0)"/>
      </g>
     </g>
    </g>
    <g id="xtick_26">
     <g id="text_26">
      <!-- 25 -->
      <g style="fill: #262626" transform="translate(709.061688 405.191621) scale(0.154 -0.154)">
       <use xlink:href="#ArialMT-15"/>
       <use xlink:href="#ArialMT-18" transform="translate(55.609375 0)"/>
      </g>
     </g>
    </g>
    <g id="xtick_27">
     <g id="text_27">
      <!-- 26 -->
      <g style="fill: #262626" transform="translate(730.431901 405.191621) scale(0.154 -0.154)">
       <use xlink:href="#ArialMT-15"/>
       <use xlink:href="#ArialMT-19" transform="translate(55.609375 0)"/>
      </g>
     </g>
    </g>
    <g id="xtick_28">
     <g id="text_28">
      <!-- 27 -->
      <g style="fill: #262626" transform="translate(751.802114 405.191621) scale(0.154 -0.154)">
       <use xlink:href="#ArialMT-15"/>
       <use xlink:href="#ArialMT-1a" transform="translate(55.609375 0)"/>
      </g>
     </g>
    </g>
    <g id="xtick_29">
     <g id="text_29">
      <!-- 28 -->
      <g style="fill: #262626" transform="translate(773.172326 405.191621) scale(0.154 -0.154)">
       <use xlink:href="#ArialMT-15"/>
       <use xlink:href="#ArialMT-1b" transform="translate(55.609375 0)"/>
      </g>
     </g>
    </g>
    <g id="xtick_30">
     <g id="text_30">
      <!-- 29 -->
      <g style="fill: #262626" transform="translate(794.542539 405.191621) scale(0.154 -0.154)">
       <use xlink:href="#ArialMT-15"/>
       <use xlink:href="#ArialMT-1c" transform="translate(55.609375 0)"/>
      </g>
     </g>
    </g>
    <g id="xtick_31">
     <g id="text_31">
      <!-- 30 -->
      <g style="fill: #262626" transform="translate(815.912752 405.191621) scale(0.154 -0.154)">
       <use xlink:href="#ArialMT-16"/>
       <use xlink:href="#ArialMT-13" transform="translate(55.609375 0)"/>
      </g>
     </g>
    </g>
    <g id="xtick_32">
     <g id="text_32">
      <!-- 31 -->
      <g style="fill: #262626" transform="translate(837.282965 405.191621) scale(0.154 -0.154)">
       <use xlink:href="#ArialMT-16"/>
       <use xlink:href="#ArialMT-14" transform="translate(55.609375 0)"/>
      </g>
     </g>
    </g>
    <g id="xtick_33">
     <g id="text_33">
      <!-- 32 -->
      <g style="fill: #262626" transform="translate(858.653178 405.191621) scale(0.154 -0.154)">
       <use xlink:href="#ArialMT-16"/>
       <use xlink:href="#ArialMT-15" transform="translate(55.609375 0)"/>
      </g>
     </g>
    </g>
    <g id="xtick_34">
     <g id="text_34">
      <!-- 33 -->
      <g style="fill: #262626" transform="translate(880.02339 405.191621) scale(0.154 -0.154)">
       <use xlink:href="#ArialMT-16"/>
       <use xlink:href="#ArialMT-16" transform="translate(55.609375 0)"/>
      </g>
     </g>
    </g>
    <g id="xtick_35">
     <g id="text_35">
      <!-- 34 -->
      <g style="fill: #262626" transform="translate(901.393603 405.191621) scale(0.154 -0.154)">
       <use xlink:href="#ArialMT-16"/>
       <use xlink:href="#ArialMT-17" transform="translate(55.609375 0)"/>
      </g>
     </g>
    </g>
    <g id="xtick_36">
     <g id="text_36">
      <!-- 35 -->
      <g style="fill: #262626" transform="translate(922.763816 405.191621) scale(0.154 -0.154)">
       <use xlink:href="#ArialMT-16"/>
       <use xlink:href="#ArialMT-18" transform="translate(55.609375 0)"/>
      </g>
     </g>
    </g>
    <g id="xtick_37">
     <g id="text_37">
      <!-- 36 -->
      <g style="fill: #262626" transform="translate(944.134029 405.191621) scale(0.154 -0.154)">
       <use xlink:href="#ArialMT-16"/>
       <use xlink:href="#ArialMT-19" transform="translate(55.609375 0)"/>
      </g>
     </g>
    </g>
    <g id="xtick_38">
     <g id="text_38">
      <!-- 37 -->
      <g style="fill: #262626" transform="translate(965.504241 405.191621) scale(0.154 -0.154)">
       <use xlink:href="#ArialMT-16"/>
       <use xlink:href="#ArialMT-1a" transform="translate(55.609375 0)"/>
      </g>
     </g>
    </g>
    <g id="xtick_39">
     <g id="text_39">
      <!-- 38 -->
      <g style="fill: #262626" transform="translate(986.874454 405.191621) scale(0.154 -0.154)">
       <use xlink:href="#ArialMT-16"/>
       <use xlink:href="#ArialMT-1b" transform="translate(55.609375 0)"/>
      </g>
     </g>
    </g>
    <g id="xtick_40">
     <g id="text_40">
      <!-- 39 -->
      <g style="fill: #262626" transform="translate(1008.244667 405.191621) scale(0.154 -0.154)">
       <use xlink:href="#ArialMT-16"/>
       <use xlink:href="#ArialMT-1c" transform="translate(55.609375 0)"/>
      </g>
     </g>
    </g>
    <g id="xtick_41">
     <g id="text_41">
      <!-- 40 -->
      <g style="fill: #262626" transform="translate(1029.61488 405.191621) scale(0.154 -0.154)">
       <use xlink:href="#ArialMT-17"/>
       <use xlink:href="#ArialMT-13" transform="translate(55.609375 0)"/>
      </g>
     </g>
    </g>
    <g id="xtick_42">
     <g id="text_42">
      <!-- 41 -->
      <g style="fill: #262626" transform="translate(1050.985092 405.191621) scale(0.154 -0.154)">
       <use xlink:href="#ArialMT-17"/>
       <use xlink:href="#ArialMT-14" transform="translate(55.609375 0)"/>
      </g>
     </g>
    </g>
    <g id="xtick_43">
     <g id="text_43">
      <!-- 42 -->
      <g style="fill: #262626" transform="translate(1072.355305 405.191621) scale(0.154 -0.154)">
       <use xlink:href="#ArialMT-17"/>
       <use xlink:href="#ArialMT-15" transform="translate(55.609375 0)"/>
      </g>
     </g>
    </g>
    <g id="xtick_44">
     <g id="text_44">
      <!-- 43 -->
      <g style="fill: #262626" transform="translate(1093.725518 405.191621) scale(0.154 -0.154)">
       <use xlink:href="#ArialMT-17"/>
       <use xlink:href="#ArialMT-16" transform="translate(55.609375 0)"/>
      </g>
     </g>
    </g>
    <g id="xtick_45">
     <g id="text_45">
      <!-- 44 -->
      <g style="fill: #262626" transform="translate(1115.095731 405.191621) scale(0.154 -0.154)">
       <use xlink:href="#ArialMT-17"/>
       <use xlink:href="#ArialMT-17" transform="translate(55.609375 0)"/>
      </g>
     </g>
    </g>
    <g id="xtick_46">
     <g id="text_46">
      <!-- 45 -->
      <g style="fill: #262626" transform="translate(1136.465943 405.191621) scale(0.154 -0.154)">
       <use xlink:href="#ArialMT-17"/>
       <use xlink:href="#ArialMT-18" transform="translate(55.609375 0)"/>
      </g>
     </g>
    </g>
    <g id="text_47">
     <!-- Бал -->
     <g style="fill: #262626" transform="translate(648.935859 424.809004) scale(0.17 -0.17)">
      <defs>
       <path id="ArialMT-23b" d="M 522 4581 
L 3494 4581 
L 3494 4041 
L 1128 4041 
L 1128 2628 
L 2222 2628 
Q 2828 2628 3186 2512 
Q 3544 2397 3759 2076 
Q 3975 1756 3975 1331 
Q 3975 984 3820 682 
Q 3666 381 3359 190 
Q 3053 0 2316 0 
L 522 0 
L 522 4581 
z
M 1128 516 
L 2341 516 
Q 2831 516 3076 716 
Q 3322 916 3322 1316 
Q 3322 1600 3181 1790 
Q 3041 1981 2791 2043 
Q 2541 2106 1938 2106 
L 1128 2106 
L 1128 516 
z
" transform="scale(0.015625)"/>
       <path id="ArialMT-25a" d="M 2588 409 
Q 2275 144 1986 34 
Q 1697 -75 1366 -75 
Q 819 -75 525 192 
Q 231 459 231 875 
Q 231 1119 342 1320 
Q 453 1522 633 1644 
Q 813 1766 1038 1828 
Q 1203 1872 1538 1913 
Q 2219 1994 2541 2106 
Q 2544 2222 2544 2253 
Q 2544 2597 2384 2738 
Q 2169 2928 1744 2928 
Q 1347 2928 1158 2789 
Q 969 2650 878 2297 
L 328 2372 
Q 403 2725 575 2942 
Q 747 3159 1072 3276 
Q 1397 3394 1825 3394 
Q 2250 3394 2515 3294 
Q 2781 3194 2906 3042 
Q 3031 2891 3081 2659 
Q 3109 2516 3109 2141 
L 3109 1391 
Q 3109 606 3145 398 
Q 3181 191 3288 0 
L 2700 0 
Q 2613 175 2588 409 
z
M 2541 1666 
Q 2234 1541 1622 1453 
Q 1275 1403 1131 1340 
Q 988 1278 909 1158 
Q 831 1038 831 891 
Q 831 666 1001 516 
Q 1172 366 1500 366 
Q 1825 366 2078 508 
Q 2331 650 2450 897 
Q 2541 1088 2541 1459 
L 2541 1666 
z
" transform="scale(0.015625)"/>
       <path id="ArialMT-265" d="M 697 3319 
L 3309 3319 
L 3309 0 
L 2750 0 
L 2750 2853 
L 1259 2853 
L 1259 1200 
Q 1259 622 1221 437 
Q 1184 253 1015 115 
Q 847 -22 528 -22 
Q 331 -22 75 3 
L 75 472 
L 322 472 
Q 497 472 572 508 
Q 647 544 672 622 
Q 697 700 697 1131 
L 697 3319 
z
" transform="scale(0.015625)"/>
      </defs>
      <use xlink:href="#ArialMT-23b"/>
      <use xlink:href="#ArialMT-25a" transform="translate(65.625 0)"/>
      <use xlink:href="#ArialMT-265" transform="translate(121.234375 0)"/>
     </g>
    </g>
   </g>
   <g id="matplotlib.axis_2">
    <g id="ytick_1">
     <g id="line2d_1">
      <path d="M 162 384.48 
L 1166.4 384.48 
" clip-path="url(#pcfae692d96)" style="fill: none; stroke: #cccccc; stroke-linecap: round"/>
     </g>
     <g id="text_48">
      <!-- 0 -->
      <g style="fill: #262626" transform="translate(143.936156 390.085811) scale(0.154 -0.154)">
       <use xlink:href="#ArialMT-13"/>
      </g>
     </g>
    </g>
    <g id="ytick_2">
     <g id="line2d_2">
      <path d="M 162 346.803839 
L 1166.4 346.803839 
" clip-path="url(#pcfae692d96)" style="fill: none; stroke: #cccccc; stroke-linecap: round"/>
     </g>
     <g id="text_49">
      <!-- 2000 -->
      <g style="fill: #262626" transform="translate(118.244625 352.40965) scale(0.154 -0.154)">
       <use xlink:href="#ArialMT-15"/>
       <use xlink:href="#ArialMT-13" transform="translate(55.609375 0)"/>
       <use xlink:href="#ArialMT-13" transform="translate(111.21875 0)"/>
       <use xlink:href="#ArialMT-13" transform="translate(166.828125 0)"/>
      </g>
     </g>
    </g>
    <g id="ytick_3">
     <g id="line2d_3">
      <path d="M 162 309.127678 
L 1166.4 309.127678 
" clip-path="url(#pcfae692d96)" style="fill: none; stroke: #cccccc; stroke-linecap: round"/>
     </g>
     <g id="text_50">
      <!-- 4000 -->
      <g style="fill: #262626" transform="translate(118.244625 314.733488) scale(0.154 -0.154)">
       <use xlink:href="#ArialMT-17"/>
       <use xlink:href="#ArialMT-13" transform="translate(55.609375 0)"/>
       <use xlink:href="#ArialMT-13" transform="translate(111.21875 0)"/>
       <use xlink:href="#ArialMT-13" transform="translate(166.828125 0)"/>
      </g>
     </g>
    </g>
    <g id="ytick_4">
     <g id="line2d_4">
      <path d="M 162 271.451517 
L 1166.4 271.451517 
" clip-path="url(#pcfae692d96)" style="fill: none; stroke: #cccccc; stroke-linecap: round"/>
     </g>
     <g id="text_51">
      <!-- 6000 -->
      <g style="fill: #262626" transform="translate(118.244625 277.057327) scale(0.154 -0.154)">
       <use xlink:href="#ArialMT-19"/>
       <use xlink:href="#ArialMT-13" transform="translate(55.609375 0)"/>
       <use xlink:href="#ArialMT-13" transform="translate(111.21875 0)"/>
       <use xlink:href="#ArialMT-13" transform="translate(166.828125 0)"/>
      </g>
     </g>
    </g>
    <g id="ytick_5">
     <g id="line2d_5">
      <path d="M 162 233.775356 
L 1166.4 233.775356 
" clip-path="url(#pcfae692d96)" style="fill: none; stroke: #cccccc; stroke-linecap: round"/>
     </g>
     <g id="text_52">
      <!-- 8000 -->
      <g style="fill: #262626" transform="translate(118.244625 239.381166) scale(0.154 -0.154)">
       <use xlink:href="#ArialMT-1b"/>
       <use xlink:href="#ArialMT-13" transform="translate(55.609375 0)"/>
       <use xlink:href="#ArialMT-13" transform="translate(111.21875 0)"/>
       <use xlink:href="#ArialMT-13" transform="translate(166.828125 0)"/>
      </g>
     </g>
    </g>
    <g id="ytick_6">
     <g id="line2d_6">
      <path d="M 162 196.099195 
L 1166.4 196.099195 
" clip-path="url(#pcfae692d96)" style="fill: none; stroke: #cccccc; stroke-linecap: round"/>
     </g>
     <g id="text_53">
      <!-- 10000 -->
      <g style="fill: #262626" transform="translate(109.680781 201.705005) scale(0.154 -0.154)">
       <use xlink:href="#ArialMT-14"/>
       <use xlink:href="#ArialMT-13" transform="translate(55.609375 0)"/>
       <use xlink:href="#ArialMT-13" transform="translate(111.21875 0)"/>
       <use xlink:href="#ArialMT-13" transform="translate(166.828125 0)"/>
       <use xlink:href="#ArialMT-13" transform="translate(222.4375 0)"/>
      </g>
     </g>
    </g>
    <g id="ytick_7">
     <g id="line2d_7">
      <path d="M 162 158.423034 
L 1166.4 158.423034 
" clip-path="url(#pcfae692d96)" style="fill: none; stroke: #cccccc; stroke-linecap: round"/>
     </g>
     <g id="text_54">
      <!-- 12000 -->
      <g style="fill: #262626" transform="translate(109.680781 164.028844) scale(0.154 -0.154)">
       <use xlink:href="#ArialMT-14"/>
       <use xlink:href="#ArialMT-15" transform="translate(55.609375 0)"/>
       <use xlink:href="#ArialMT-13" transform="translate(111.21875 0)"/>
       <use xlink:href="#ArialMT-13" transform="translate(166.828125 0)"/>
       <use xlink:href="#ArialMT-13" transform="translate(222.4375 0)"/>
      </g>
     </g>
    </g>
    <g id="ytick_8">
     <g id="line2d_8">
      <path d="M 162 120.746873 
L 1166.4 120.746873 
" clip-path="url(#pcfae692d96)" style="fill: none; stroke: #cccccc; stroke-linecap: round"/>
     </g>
     <g id="text_55">
      <!-- 14000 -->
      <g style="fill: #262626" transform="translate(109.680781 126.352683) scale(0.154 -0.154)">
       <use xlink:href="#ArialMT-14"/>
       <use xlink:href="#ArialMT-17" transform="translate(55.609375 0)"/>
       <use xlink:href="#ArialMT-13" transform="translate(111.21875 0)"/>
       <use xlink:href="#ArialMT-13" transform="translate(166.828125 0)"/>
       <use xlink:href="#ArialMT-13" transform="translate(222.4375 0)"/>
      </g>
     </g>
    </g>
    <g id="ytick_9">
     <g id="line2d_9">
      <path d="M 162 83.070712 
L 1166.4 83.070712 
" clip-path="url(#pcfae692d96)" style="fill: none; stroke: #cccccc; stroke-linecap: round"/>
     </g>
     <g id="text_56">
      <!-- 16000 -->
      <g style="fill: #262626" transform="translate(109.680781 88.676522) scale(0.154 -0.154)">
       <use xlink:href="#ArialMT-14"/>
       <use xlink:href="#ArialMT-19" transform="translate(55.609375 0)"/>
       <use xlink:href="#ArialMT-13" transform="translate(111.21875 0)"/>
       <use xlink:href="#ArialMT-13" transform="translate(166.828125 0)"/>
       <use xlink:href="#ArialMT-13" transform="translate(222.4375 0)"/>
      </g>
     </g>
    </g>
    <g id="text_57">
     <!-- Кількість учасників -->
     <g style="fill: #262626" transform="translate(102.102812 292.145859) rotate(-90) scale(0.17 -0.17)">
      <defs>
       <path id="ArialMT-244" d="M 503 4581 
L 1109 4581 
L 1109 2575 
Q 1525 2575 1694 2736 
Q 1863 2897 2125 3509 
Q 2316 3959 2439 4145 
Q 2563 4331 2791 4457 
Q 3019 4584 3294 4584 
Q 3644 4584 3663 4578 
L 3663 4053 
Q 3631 4053 3541 4056 
Q 3441 4059 3419 4059 
Q 3128 4059 2988 3919 
Q 2844 3778 2659 3319 
Q 2428 2738 2268 2586 
Q 2109 2434 1888 2344 
Q 2331 2222 2763 1525 
L 3706 0 
L 2953 0 
L 2188 1244 
Q 1872 1759 1659 1951 
Q 1447 2144 1109 2144 
L 1109 0 
L 503 0 
L 503 4581 
z
" transform="scale(0.015625)"/>
       <path id="ArialMT-27f" d="M 425 3934 
L 425 4581 
L 988 4581 
L 988 3934 
L 425 3934 
z
M 425 0 
L 425 3319 
L 988 3319 
L 988 0 
L 425 0 
z
" transform="scale(0.015625)"/>
       <path id="ArialMT-276" d="M 413 3319 
L 975 3319 
L 975 2022 
L 1688 2022 
Q 2384 2022 2761 1751 
Q 3138 1481 3138 1006 
Q 3138 591 2823 295 
Q 2509 0 1819 0 
L 413 0 
L 413 3319 
z
M 975 463 
L 1566 463 
Q 2100 463 2328 594 
Q 2556 725 2556 1003 
Q 2556 1219 2387 1387 
Q 2219 1556 1641 1556 
L 975 1556 
L 975 463 
z
" transform="scale(0.015625)"/>
       <path id="ArialMT-264" d="M 419 3319 
L 981 3319 
L 981 1884 
Q 1250 1884 1358 1987 
Q 1466 2091 1675 2588 
Q 1841 2981 1944 3106 
Q 2047 3231 2181 3275 
Q 2316 3319 2613 3319 
L 2725 3319 
L 2725 2853 
L 2569 2856 
Q 2347 2856 2284 2791 
Q 2219 2722 2084 2381 
Q 1956 2056 1850 1931 
Q 1744 1806 1522 1703 
Q 1884 1606 2234 1028 
L 2850 0 
L 2231 0 
L 1631 1028 
Q 1447 1338 1309 1436 
Q 1172 1534 981 1534 
L 981 0 
L 419 0 
L 419 3319 
z
" transform="scale(0.015625)"/>
       <path id="ArialMT-26b" d="M 2588 1216 
L 3141 1144 
Q 3050 572 2676 248 
Q 2303 -75 1759 -75 
Q 1078 -75 664 370 
Q 250 816 250 1647 
Q 250 2184 428 2587 
Q 606 2991 970 3192 
Q 1334 3394 1763 3394 
Q 2303 3394 2647 3120 
Q 2991 2847 3088 2344 
L 2541 2259 
Q 2463 2594 2264 2762 
Q 2066 2931 1784 2931 
Q 1359 2931 1093 2626 
Q 828 2322 828 1663 
Q 828 994 1084 691 
Q 1341 388 1753 388 
Q 2084 388 2306 591 
Q 2528 794 2588 1216 
z
" transform="scale(0.015625)"/>
       <path id="ArialMT-26c" d="M 119 3319 
L 2816 3319 
L 2816 2853 
L 1747 2853 
L 1747 0 
L 1188 0 
L 1188 2853 
L 119 2853 
L 119 3319 
z
" transform="scale(0.015625)"/>
       <path id="ArialMT-3" transform="scale(0.015625)"/>
       <path id="ArialMT-26d" d="M 397 -1278 
L 334 -750 
Q 519 -800 656 -800 
Q 844 -800 956 -737 
Q 1069 -675 1141 -563 
Q 1194 -478 1313 -144 
Q 1328 -97 1363 -6 
L 103 3319 
L 709 3319 
L 1400 1397 
Q 1534 1031 1641 628 
Q 1738 1016 1872 1384 
L 2581 3319 
L 3144 3319 
L 1881 -56 
Q 1678 -603 1566 -809 
Q 1416 -1088 1222 -1217 
Q 1028 -1347 759 -1347 
Q 597 -1347 397 -1278 
z
" transform="scale(0.015625)"/>
       <path id="ArialMT-271" d="M 216 3319 
L 778 3319 
L 778 2691 
Q 778 2284 826 2101 
Q 875 1919 1059 1783 
Q 1244 1647 1522 1647 
Q 1841 1647 2347 1816 
L 2347 3319 
L 2909 3319 
L 2909 0 
L 2347 0 
L 2347 1338 
Q 1828 1175 1378 1175 
Q 1000 1175 711 1367 
Q 422 1559 319 1837 
Q 216 2116 216 2450 
L 216 3319 
z
" transform="scale(0.015625)"/>
       <path id="ArialMT-267" d="M 425 3319 
L 988 3319 
L 988 1938 
L 2547 1938 
L 2547 3319 
L 3109 3319 
L 3109 0 
L 2547 0 
L 2547 1472 
L 988 1472 
L 988 0 
L 425 0 
L 425 3319 
z
" transform="scale(0.015625)"/>
       <path id="ArialMT-262" d="M 422 3319 
L 984 3319 
L 984 788 
L 2544 3319 
L 3150 3319 
L 3150 0 
L 2588 0 
L 2588 2516 
L 1028 0 
L 422 0 
L 422 3319 
z
" transform="scale(0.015625)"/>
       <path id="ArialMT-25c" d="M 425 3319 
L 1722 3319 
Q 2200 3319 2433 3239 
Q 2666 3159 2833 2946 
Q 3000 2734 3000 2438 
Q 3000 2200 2901 2023 
Q 2803 1847 2606 1728 
Q 2841 1650 2995 1436 
Q 3150 1222 3150 928 
Q 3119 456 2812 228 
Q 2506 0 1922 0 
L 425 0 
L 425 3319 
z
M 988 1922 
L 1588 1922 
Q 1947 1922 2081 1959 
Q 2216 1997 2322 2111 
Q 2428 2225 2428 2384 
Q 2428 2647 2242 2750 
Q 2056 2853 1606 2853 
L 988 2853 
L 988 1922 
z
M 988 463 
L 1728 463 
Q 2206 463 2384 573 
Q 2563 684 2572 956 
Q 2572 1116 2469 1252 
Q 2366 1388 2200 1423 
Q 2034 1459 1669 1459 
L 988 1459 
L 988 463 
z
" transform="scale(0.015625)"/>
      </defs>
      <use xlink:href="#ArialMT-244"/>
      <use xlink:href="#ArialMT-27f" transform="translate(58.25 0)"/>
      <use xlink:href="#ArialMT-265" transform="translate(80.46875 0)"/>
      <use xlink:href="#ArialMT-276" transform="translate(138.8125 0)"/>
      <use xlink:href="#ArialMT-264" transform="translate(190.90625 0)"/>
      <use xlink:href="#ArialMT-27f" transform="translate(234.65625 0)"/>
      <use xlink:href="#ArialMT-26b" transform="translate(256.875 0)"/>
      <use xlink:href="#ArialMT-26c" transform="translate(306.875 0)"/>
      <use xlink:href="#ArialMT-276" transform="translate(352.671875 0)"/>
      <use xlink:href="#ArialMT-3" transform="translate(404.765625 0)"/>
      <use xlink:href="#ArialMT-26d" transform="translate(432.546875 0)"/>
      <use xlink:href="#ArialMT-271" transform="translate(482.546875 0)"/>
      <use xlink:href="#ArialMT-25a" transform="translate(534.640625 0)"/>
      <use xlink:href="#ArialMT-26b" transform="translate(590.25 0)"/>
      <use xlink:href="#ArialMT-267" transform="translate(640.25 0)"/>
      <use xlink:href="#ArialMT-262" transform="translate(695.46875 0)"/>
      <use xlink:href="#ArialMT-264" transform="translate(751.328125 0)"/>
      <use xlink:href="#ArialMT-27f" transform="translate(795.078125 0)"/>
      <use xlink:href="#ArialMT-25c" transform="translate(817.296875 0)"/>
     </g>
    </g>
   </g>
   <g id="patch_3">
    <path d="M 172.685106 384.48 
L 194.055319 384.48 
L 194.055319 384.009048 
L 172.685106 384.009048 
z
" clip-path="url(#pcfae692d96)" style="fill: #bf616a; stroke: #000000; stroke-linejoin: miter"/>
   </g>
   <g id="patch_4">
    <path d="M 194.055319 384.48 
L 215.425532 384.48 
L 215.425532 384.348133 
L 194.055319 384.348133 
z
" clip-path="url(#pcfae692d96)" style="fill: #bf616a; stroke: #000000; stroke-linejoin: miter"/>
   </g>
   <g id="patch_5">
    <path d="M 215.425532 384.48 
L 236.795745 384.48 
L 236.795745 384.159753 
L 215.425532 384.159753 
z
" clip-path="url(#pcfae692d96)" style="fill: #bf616a; stroke: #000000; stroke-linejoin: miter"/>
   </g>
   <g id="patch_6">
    <path d="M 236.795745 384.48 
L 258.165957 384.48 
L 258.165957 383.688801 
L 236.795745 383.688801 
z
" clip-path="url(#pcfae692d96)" style="fill: #bf616a; stroke: #000000; stroke-linejoin: miter"/>
   </g>
   <g id="patch_7">
    <path d="M 258.165957 384.48 
L 279.53617 384.48 
L 279.53617 381.955697 
L 258.165957 381.955697 
z
" clip-path="url(#pcfae692d96)" style="fill: #bf616a; stroke: #000000; stroke-linejoin: miter"/>
   </g>
   <g id="patch_8">
    <path d="M 279.53617 384.48 
L 300.906383 384.48 
L 300.906383 378.903928 
L 279.53617 378.903928 
z
" clip-path="url(#pcfae692d96)" style="fill: #bf616a; stroke: #000000; stroke-linejoin: miter"/>
   </g>
   <g id="patch_9">
    <path d="M 300.906383 384.48 
L 322.276596 384.48 
L 322.276596 372.668524 
L 300.906383 372.668524 
z
" clip-path="url(#pcfae692d96)" style="fill: #bf616a; stroke: #000000; stroke-linejoin: miter"/>
   </g>
   <g id="patch_10">
    <path d="M 322.276596 384.48 
L 343.646809 384.48 
L 343.646809 362.40177 
L 322.276596 362.40177 
z
" clip-path="url(#pcfae692d96)" style="fill: #6cc0bb; stroke: #000000; stroke-linejoin: miter"/>
   </g>
   <g id="patch_11">
    <path d="M 343.646809 384.48 
L 365.017021 384.48 
L 365.017021 344.656298 
L 343.646809 344.656298 
z
" clip-path="url(#pcfae692d96)" style="fill: #6cc0bb; stroke: #000000; stroke-linejoin: miter"/>
   </g>
   <g id="patch_12">
    <path d="M 365.017021 384.48 
L 386.387234 384.48 
L 386.387234 323.180886 
L 365.017021 323.180886 
z
" clip-path="url(#pcfae692d96)" style="fill: #6cc0bb; stroke: #000000; stroke-linejoin: miter"/>
   </g>
   <g id="patch_13">
    <path d="M 386.387234 384.48 
L 407.757447 384.48 
L 407.757447 294.810737 
L 386.387234 294.810737 
z
" clip-path="url(#pcfae692d96)" style="fill: #6cc0bb; stroke: #000000; stroke-linejoin: miter"/>
   </g>
   <g id="patch_14">
    <path d="M 407.757447 384.48 
L 429.12766 384.48 
L 429.12766 259.187927 
L 407.757447 259.187927 
z
" clip-path="url(#pcfae692d96)" style="fill: #6cc0bb; stroke: #000000; stroke-linejoin: miter"/>
   </g>
   <g id="patch_15">
    <path d="M 429.12766 384.48 
L 450.497872 384.48 
L 450.497872 219.985881 
L 429.12766 219.985881 
z
" clip-path="url(#pcfae692d96)" style="fill: #6cc0bb; stroke: #000000; stroke-linejoin: miter"/>
   </g>
   <g id="patch_16">
    <path d="M 450.497872 384.48 
L 471.868085 384.48 
L 471.868085 178.48559 
L 450.497872 178.48559 
z
" clip-path="url(#pcfae692d96)" style="fill: #6cc0bb; stroke: #000000; stroke-linejoin: miter"/>
   </g>
   <g id="patch_17">
    <path d="M 471.868085 384.48 
L 493.238298 384.48 
L 493.238298 140.489181 
L 471.868085 140.489181 
z
" clip-path="url(#pcfae692d96)" style="fill: #6cc0bb; stroke: #000000; stroke-linejoin: miter"/>
   </g>
   <g id="patch_18">
    <path d="M 493.238298 384.48 
L 514.608511 384.48 
L 514.608511 105.883627 
L 493.238298 105.883627 
z
" clip-path="url(#pcfae692d96)" style="fill: #6cc0bb; stroke: #000000; stroke-linejoin: miter"/>
   </g>
   <g id="patch_19">
    <path d="M 514.608511 384.48 
L 535.978723 384.48 
L 535.978723 86.292024 
L 514.608511 86.292024 
z
" clip-path="url(#pcfae692d96)" style="fill: #6cc0bb; stroke: #000000; stroke-linejoin: miter"/>
   </g>
   <g id="patch_20">
    <path d="M 535.978723 384.48 
L 557.348936 384.48 
L 557.348936 67.68 
L 535.978723 67.68 
z
" clip-path="url(#pcfae692d96)" style="fill: #6cc0bb; stroke: #000000; stroke-linejoin: miter"/>
   </g>
   <g id="patch_21">
    <path d="M 557.348936 384.48 
L 578.719149 384.48 
L 578.719149 72.012759 
L 557.348936 72.012759 
z
" clip-path="url(#pcfae692d96)" style="fill: #6cc0bb; stroke: #000000; stroke-linejoin: miter"/>
   </g>
   <g id="patch_22">
    <path d="M 578.719149 384.48 
L 600.089362 384.48 
L 600.089362 78.210487 
L 578.719149 78.210487 
z
" clip-path="url(#pcfae692d96)" style="fill: #6cc0bb; stroke: #000000; stroke-linejoin: miter"/>
   </g>
   <g id="patch_23">
    <path d="M 600.089362 384.48 
L 621.459574 384.48 
L 621.459574 97.651386 
L 600.089362 97.651386 
z
" clip-path="url(#pcfae692d96)" style="fill: #6cc0bb; stroke: #000000; stroke-linejoin: miter"/>
   </g>
   <g id="patch_24">
    <path d="M 621.459574 384.48 
L 642.829787 384.48 
L 642.829787 118.674684 
L 621.459574 118.674684 
z
" clip-path="url(#pcfae692d96)" style="fill: #6cc0bb; stroke: #000000; stroke-linejoin: miter"/>
   </g>
   <g id="patch_25">
    <path d="M 642.829787 384.48 
L 664.2 384.48 
L 664.2 144.237959 
L 642.829787 144.237959 
z
" clip-path="url(#pcfae692d96)" style="fill: #6cc0bb; stroke: #000000; stroke-linejoin: miter"/>
   </g>
   <g id="patch_26">
    <path d="M 664.2 384.48 
L 685.570213 384.48 
L 685.570213 171.044548 
L 664.2 171.044548 
z
" clip-path="url(#pcfae692d96)" style="fill: #6cc0bb; stroke: #000000; stroke-linejoin: miter"/>
   </g>
   <g id="patch_27">
    <path d="M 685.570213 384.48 
L 706.940426 384.48 
L 706.940426 190.071009 
L 685.570213 190.071009 
z
" clip-path="url(#pcfae692d96)" style="fill: #6cc0bb; stroke: #000000; stroke-linejoin: miter"/>
   </g>
   <g id="patch_28">
    <path d="M 706.940426 384.48 
L 728.310638 384.48 
L 728.310638 211.659449 
L 706.940426 211.659449 
z
" clip-path="url(#pcfae692d96)" style="fill: #6cc0bb; stroke: #000000; stroke-linejoin: miter"/>
   </g>
   <g id="patch_29">
    <path d="M 728.310638 384.48 
L 749.680851 384.48 
L 749.680851 231.307567 
L 728.310638 231.307567 
z
" clip-path="url(#pcfae692d96)" style="fill: #6cc0bb; stroke: #000000; stroke-linejoin: miter"/>
   </g>
   <g id="patch_30">
    <path d="M 749.680851 384.48 
L 771.051064 384.48 
L 771.051064 246.095461 
L 749.680851 246.095461 
z
" clip-path="url(#pcfae692d96)" style="fill: #6cc0bb; stroke: #000000; stroke-linejoin: miter"/>
   </g>
   <g id="patch_31">
    <path d="M 771.051064 384.48 
L 792.421277 384.48 
L 792.421277 257.718556 
L 771.051064 257.718556 
z
" clip-path="url(#pcfae692d96)" style="fill: #6cc0bb; stroke: #000000; stroke-linejoin: miter"/>
   </g>
   <g id="patch_32">
    <path d="M 792.421277 384.48 
L 813.791489 384.48 
L 813.791489 268.644643 
L 792.421277 268.644643 
z
" clip-path="url(#pcfae692d96)" style="fill: #6cc0bb; stroke: #000000; stroke-linejoin: miter"/>
   </g>
   <g id="patch_33">
    <path d="M 813.791489 384.48 
L 835.161702 384.48 
L 835.161702 276.537799 
L 813.791489 276.537799 
z
" clip-path="url(#pcfae692d96)" style="fill: #6cc0bb; stroke: #000000; stroke-linejoin: miter"/>
   </g>
   <g id="patch_34">
    <path d="M 835.161702 384.48 
L 856.531915 384.48 
L 856.531915 282.942746 
L 835.161702 282.942746 
z
" clip-path="url(#pcfae692d96)" style="fill: #6cc0bb; stroke: #000000; stroke-linejoin: miter"/>
   </g>
   <g id="patch_35">
    <path d="M 856.531915 384.48 
L 877.902128 384.48 
L 877.902128 287.727618 
L 856.531915 287.727618 
z
" clip-path="url(#pcfae692d96)" style="fill: #6cc0bb; stroke: #000000; stroke-linejoin: miter"/>
   </g>
   <g id="patch_36">
    <path d="M 877.902128 384.48 
L 899.27234 384.48 
L 899.27234 295.187498 
L 877.902128 295.187498 
z
" clip-path="url(#pcfae692d96)" style="fill: #6cc0bb; stroke: #000000; stroke-linejoin: miter"/>
   </g>
   <g id="patch_37">
    <path d="M 899.27234 384.48 
L 920.642553 384.48 
L 920.642553 299.011629 
L 899.27234 299.011629 
z
" clip-path="url(#pcfae692d96)" style="fill: #6cc0bb; stroke: #000000; stroke-linejoin: miter"/>
   </g>
   <g id="patch_38">
    <path d="M 920.642553 384.48 
L 942.012766 384.48 
L 942.012766 303.702311 
L 920.642553 303.702311 
z
" clip-path="url(#pcfae692d96)" style="fill: #6cc0bb; stroke: #000000; stroke-linejoin: miter"/>
   </g>
   <g id="patch_39">
    <path d="M 942.012766 384.48 
L 963.382979 384.48 
L 963.382979 306.151261 
L 942.012766 306.151261 
z
" clip-path="url(#pcfae692d96)" style="fill: #6cc0bb; stroke: #000000; stroke-linejoin: miter"/>
   </g>
   <g id="patch_40">
    <path d="M 963.382979 384.48 
L 984.753191 384.48 
L 984.753191 314.044417 
L 963.382979 314.044417 
z
" clip-path="url(#pcfae692d96)" style="fill: #6cc0bb; stroke: #000000; stroke-linejoin: miter"/>
   </g>
   <g id="patch_41">
    <path d="M 984.753191 384.48 
L 1006.123404 384.48 
L 1006.123404 316.66291 
L 984.753191 316.66291 
z
" clip-path="url(#pcfae692d96)" style="fill: #6cc0bb; stroke: #000000; stroke-linejoin: miter"/>
   </g>
   <g id="patch_42">
    <path d="M 1006.123404 384.48 
L 1027.493617 384.48 
L 1027.493617 323.802543 
L 1006.123404 323.802543 
z
" clip-path="url(#pcfae692d96)" style="fill: #6cc0bb; stroke: #000000; stroke-linejoin: miter"/>
   </g>
   <g id="patch_43">
    <path d="M 1027.493617 384.48 
L 1048.86383 384.48 
L 1048.86383 326.534064 
L 1027.493617 326.534064 
z
" clip-path="url(#pcfae692d96)" style="fill: #6cc0bb; stroke: #000000; stroke-linejoin: miter"/>
   </g>
   <g id="patch_44">
    <path d="M 1048.86383 384.48 
L 1070.234043 384.48 
L 1070.234043 333.353449 
L 1048.86383 333.353449 
z
" clip-path="url(#pcfae692d96)" style="fill: #6cc0bb; stroke: #000000; stroke-linejoin: miter"/>
   </g>
   <g id="patch_45">
    <path d="M 1070.234043 384.48 
L 1091.604255 384.48 
L 1091.604255 341.962452 
L 1070.234043 341.962452 
z
" clip-path="url(#pcfae692d96)" style="fill: #6cc0bb; stroke: #000000; stroke-linejoin: miter"/>
   </g>
   <g id="patch_46">
    <path d="M 1091.604255 384.48 
L 1112.974468 384.48 
L 1112.974468 348.499266 
L 1091.604255 348.499266 
z
" clip-path="url(#pcfae692d96)" style="fill: #6cc0bb; stroke: #000000; stroke-linejoin: miter"/>
   </g>
   <g id="patch_47">
    <path d="M 1112.974468 384.48 
L 1134.344681 384.48 
L 1134.344681 361.101942 
L 1112.974468 361.101942 
z
" clip-path="url(#pcfae692d96)" style="fill: #6cc0bb; stroke: #000000; stroke-linejoin: miter"/>
   </g>
   <g id="patch_48">
    <path d="M 1134.344681 384.48 
L 1155.714894 384.48 
L 1155.714894 372.065705 
L 1134.344681 372.065705 
z
" clip-path="url(#pcfae692d96)" style="fill: #6cc0bb; stroke: #000000; stroke-linejoin: miter"/>
   </g>
   <g id="line2d_10">
    <path d="M 322.276596 384.48 
L 322.276596 51.84 
" clip-path="url(#pcfae692d96)" style="fill: none; stroke-dasharray: 5.55,2.4; stroke-dashoffset: 0; stroke: #000000; stroke-width: 1.5"/>
   </g>
   <g id="patch_49">
    <path d="M 162 384.48 
L 162 51.84 
" style="fill: none; stroke: #000000; stroke-width: 1.25; stroke-linejoin: miter; stroke-linecap: square"/>
   </g>
   <g id="patch_50">
    <path d="M 1166.4 384.48 
L 1166.4 51.84 
" style="fill: none; stroke: #000000; stroke-width: 1.25; stroke-linejoin: miter; stroke-linecap: square"/>
   </g>
   <g id="patch_51">
    <path d="M 162 384.48 
L 1166.4 384.48 
" style="fill: none; stroke: #000000; stroke-width: 1.25; stroke-linejoin: miter; stroke-linecap: square"/>
   </g>
   <g id="patch_52">
    <path d="M 162 51.84 
L 1166.4 51.84 
" style="fill: none; stroke: #000000; stroke-width: 1.25; stroke-linejoin: miter; stroke-linecap: square"/>
   </g>
   <g id="text_58">
    <!-- Прохідний -->
    <g style="fill: #262626" transform="translate(226.110638 111.327833) scale(0.17 -0.17)">
     <defs>
      <path id="ArialMT-249" d="M 500 4581 
L 4103 4581 
L 4103 0 
L 3494 0 
L 3494 4041 
L 1106 4041 
L 1106 0 
L 500 0 
L 500 4581 
z
" transform="scale(0.015625)"/>
      <path id="ArialMT-26a" d="M 422 -1272 
L 422 3319 
L 934 3319 
L 934 2888 
Q 1116 3141 1344 3267 
Q 1572 3394 1897 3394 
Q 2322 3394 2647 3175 
Q 2972 2956 3137 2557 
Q 3303 2159 3303 1684 
Q 3303 1175 3120 767 
Q 2938 359 2589 142 
Q 2241 -75 1856 -75 
Q 1575 -75 1351 44 
Q 1128 163 984 344 
L 984 -1272 
L 422 -1272 
z
M 931 1641 
Q 931 1000 1190 694 
Q 1450 388 1819 388 
Q 2194 388 2461 705 
Q 2728 1022 2728 1688 
Q 2728 2322 2467 2637 
Q 2206 2953 1844 2953 
Q 1484 2953 1207 2617 
Q 931 2281 931 1641 
z
" transform="scale(0.015625)"/>
      <path id="ArialMT-268" d="M 213 1659 
Q 213 2581 725 3025 
Q 1153 3394 1769 3394 
Q 2453 3394 2887 2945 
Q 3322 2497 3322 1706 
Q 3322 1066 3130 698 
Q 2938 331 2570 128 
Q 2203 -75 1769 -75 
Q 1072 -75 642 372 
Q 213 819 213 1659 
z
M 791 1659 
Q 791 1022 1069 705 
Q 1347 388 1769 388 
Q 2188 388 2466 706 
Q 2744 1025 2744 1678 
Q 2744 2294 2464 2611 
Q 2184 2928 1769 2928 
Q 1347 2928 1069 2612 
Q 791 2297 791 1659 
z
" transform="scale(0.015625)"/>
      <path id="ArialMT-26f" d="M 47 0 
L 1259 1725 
L 138 3319 
L 841 3319 
L 1350 2541 
Q 1494 2319 1581 2169 
Q 1719 2375 1834 2534 
L 2394 3319 
L 3066 3319 
L 1919 1756 
L 3153 0 
L 2463 0 
L 1781 1031 
L 1600 1309 
L 728 0 
L 47 0 
z
" transform="scale(0.015625)"/>
      <path id="ArialMT-25e" d="M 866 3319 
L 3178 3319 
L 3178 463 
L 3538 463 
L 3538 -941 
L 3075 -941 
L 3075 0 
L 463 0 
L 463 -941 
L 0 -941 
L 0 463 
L 297 463 
Q 891 1269 866 3319 
z
M 1334 2853 
Q 1272 1238 834 463 
L 2619 463 
L 2619 2853 
L 1334 2853 
z
" transform="scale(0.015625)"/>
      <path id="ArialMT-263" d="M 422 3319 
L 984 3319 
L 984 788 
L 2544 3319 
L 3150 3319 
L 3150 0 
L 2588 0 
L 2588 2516 
L 1028 0 
L 422 0 
L 422 3319 
z
M 2375 4575 
L 2760 4575 
Q 2713 4184 2474 3975 
Q 2235 3766 1838 3766 
Q 1438 3766 1199 3973 
Q 960 4181 913 4575 
L 1297 4575 
Q 1341 4363 1470 4258 
Q 1600 4153 1819 4153 
Q 2072 4153 2202 4254 
Q 2332 4356 2375 4575 
z
" transform="scale(0.015625)"/>
     </defs>
     <use xlink:href="#ArialMT-249"/>
     <use xlink:href="#ArialMT-26a" transform="translate(71.875 0)"/>
     <use xlink:href="#ArialMT-268" transform="translate(127.484375 0)"/>
     <use xlink:href="#ArialMT-26f" transform="translate(181.96875 0)"/>
     <use xlink:href="#ArialMT-27f" transform="translate(231.96875 0)"/>
     <use xlink:href="#ArialMT-25e" transform="translate(254.1875 0)"/>
     <use xlink:href="#ArialMT-267" transform="translate(312.53125 0)"/>
     <use xlink:href="#ArialMT-262" transform="translate(367.75 0)"/>
     <use xlink:href="#ArialMT-263" transform="translate(423.609375 0)"/>
    </g>
   </g>
   <g id="text_59">
    <!-- НМТ 2025. Розподіл балів з української мови. Вся Україна -->
    <g style="fill: #262626" transform="translate(475.813594 45.84) scale(0.14 -0.14)">
     <defs>
      <path id="ArialMT-247" d="M 513 0 
L 513 4581 
L 1119 4581 
L 1119 2700 
L 3500 2700 
L 3500 4581 
L 4106 4581 
L 4106 0 
L 3500 0 
L 3500 2159 
L 1119 2159 
L 1119 0 
L 513 0 
z
" transform="scale(0.015625)"/>
      <path id="ArialMT-246" d="M 475 0 
L 475 4581 
L 1388 4581 
L 2472 1338 
Q 2622 884 2691 659 
Q 2769 909 2934 1394 
L 4031 4581 
L 4847 4581 
L 4847 0 
L 4263 0 
L 4263 3834 
L 2931 0 
L 2384 0 
L 1059 3900 
L 1059 0 
L 475 0 
z
" transform="scale(0.015625)"/>
      <path id="ArialMT-24c" d="M 1659 0 
L 1659 4041 
L 150 4041 
L 150 4581 
L 3781 4581 
L 3781 4041 
L 2266 4041 
L 2266 0 
L 1659 0 
z
" transform="scale(0.015625)"/>
      <path id="ArialMT-11" d="M 581 0 
L 581 641 
L 1222 641 
L 1222 0 
L 581 0 
z
" transform="scale(0.015625)"/>
      <path id="ArialMT-24a" d="M 494 0 
L 494 4581 
L 2222 4581 
Q 2678 4581 2919 4538 
Q 3256 4481 3484 4323 
Q 3713 4166 3852 3881 
Q 3991 3597 3991 3256 
Q 3991 2672 3619 2267 
Q 3247 1863 2275 1863 
L 1100 1863 
L 1100 0 
L 494 0 
z
M 1100 2403 
L 2284 2403 
Q 2872 2403 3119 2622 
Q 3366 2841 3366 3238 
Q 3366 3525 3220 3729 
Q 3075 3934 2838 4000 
Q 2684 4041 2272 4041 
L 1100 4041 
L 1100 2403 
z
" transform="scale(0.015625)"/>
      <path id="ArialMT-261" d="M 1156 1500 
L 1156 1941 
Q 1513 1944 1642 1969 
Q 1772 1994 1887 2119 
Q 2003 2244 2003 2431 
Q 2003 2659 1851 2795 
Q 1700 2931 1459 2931 
Q 984 2931 794 2372 
L 259 2459 
Q 509 3394 1466 3394 
Q 1997 3394 2298 3103 
Q 2600 2813 2600 2409 
Q 2600 2003 2206 1763 
Q 2456 1628 2581 1420 
Q 2706 1213 2706 928 
Q 2706 481 2381 203 
Q 2056 -75 1472 -75 
Q 338 -75 156 934 
L 684 1047 
Q 756 728 976 553 
Q 1197 378 1481 378 
Q 1766 378 1955 539 
Q 2144 700 2144 950 
Q 2144 1144 2025 1287 
Q 1906 1431 1772 1467 
Q 1638 1503 1284 1503 
Q 1256 1503 1156 1500 
z
" transform="scale(0.015625)"/>
      <path id="ArialMT-269" d="M 425 3319 
L 3044 3319 
L 3044 0 
L 2481 0 
L 2481 2853 
L 988 2853 
L 988 0 
L 425 0 
L 425 3319 
z
" transform="scale(0.015625)"/>
      <path id="ArialMT-25b" d="M 2853 4691 
L 3350 4684 
Q 3316 4350 3202 4219 
Q 3088 4088 2908 4050 
Q 2728 4013 2203 4013 
Q 1506 4013 1253 3878 
Q 1000 3744 889 3448 
Q 778 3153 766 2688 
Q 978 3003 1262 3161 
Q 1547 3319 1903 3319 
Q 2556 3319 2984 2870 
Q 3413 2422 3413 1656 
Q 3413 1075 3197 703 
Q 2981 331 2686 128 
Q 2391 -75 1881 -75 
Q 1291 -75 962 195 
Q 634 466 459 887 
Q 284 1309 284 2356 
Q 284 3672 729 4128 
Q 1175 4584 2100 4584 
Q 2675 4584 2753 4603 
Q 2831 4622 2853 4691 
z
M 2825 1672 
Q 2825 2191 2579 2522 
Q 2334 2853 1888 2853 
Q 1422 2853 1169 2503 
Q 916 2153 916 1569 
Q 916 991 1195 684 
Q 1475 378 1884 378 
Q 2303 378 2564 733 
Q 2825 1088 2825 1672 
z
" transform="scale(0.015625)"/>
      <path id="ArialMT-280" d="M 619 0 
L 619 3319 
L 1181 3319 
L 1181 0 
L 619 0 
z
M 28 3969 
L 28 4609 
L 615 4609 
L 615 3969 
L 28 3969 
z
M 1193 3969 
L 1193 4609 
L 1781 4609 
L 1781 3969 
L 1193 3969 
z
" transform="scale(0.015625)"/>
      <path id="ArialMT-266" d="M 438 3319 
L 1313 3319 
L 2184 663 
L 3153 3319 
L 3963 3319 
L 3963 0 
L 3400 0 
L 3400 2672 
L 2419 0 
L 1916 0 
L 988 2800 
L 988 0 
L 438 0 
L 438 3319 
z
" transform="scale(0.015625)"/>
      <path id="ArialMT-23c" d="M 469 0 
L 469 4581 
L 2188 4581 
Q 2713 4581 3030 4442 
Q 3347 4303 3526 4014 
Q 3706 3725 3706 3409 
Q 3706 3116 3547 2856 
Q 3388 2597 3066 2438 
Q 3481 2316 3704 2022 
Q 3928 1728 3928 1328 
Q 3928 1006 3792 729 
Q 3656 453 3456 303 
Q 3256 153 2954 76 
Q 2653 0 2216 0 
L 469 0 
z
M 1075 2656 
L 2066 2656 
Q 2469 2656 2644 2709 
Q 2875 2778 2992 2937 
Q 3109 3097 3109 3338 
Q 3109 3566 3000 3739 
Q 2891 3913 2687 3977 
Q 2484 4041 1991 4041 
L 1075 4041 
L 1075 2656 
z
M 1075 541 
L 2216 541 
Q 2509 541 2628 563 
Q 2838 600 2978 687 
Q 3119 775 3209 942 
Q 3300 1109 3300 1328 
Q 3300 1584 3169 1773 
Q 3038 1963 2805 2039 
Q 2572 2116 2134 2116 
L 1075 2116 
L 1075 541 
z
" transform="scale(0.015625)"/>
      <path id="ArialMT-279" d="M 3034 3319 
L 3034 0 
L 2475 0 
L 2475 1294 
L 2150 1294 
Q 1853 1294 1708 1217 
Q 1563 1141 1284 725 
L 794 0 
L 97 0 
L 703 894 
Q 981 1303 1256 1356 
Q 775 1422 542 1703 
Q 309 1984 309 2350 
Q 309 2781 614 3050 
Q 919 3319 1497 3319 
L 3034 3319 
z
M 2475 2853 
L 1675 2853 
Q 1172 2853 1026 2697 
Q 881 2541 881 2331 
Q 881 2034 1095 1895 
Q 1309 1756 1853 1756 
L 2475 1756 
L 2475 2853 
z
" transform="scale(0.015625)"/>
      <path id="ArialMT-24d" d="M 31 4581 
L 644 4581 
L 2138 1775 
L 3444 4581 
L 4047 4581 
L 2328 1019 
Q 2006 350 1800 143 
Q 1594 -63 1209 -63 
Q 975 -63 634 47 
L 634 566 
Q 878 425 1150 425 
Q 1372 425 1533 567 
Q 1694 709 1888 1216 
L 31 4581 
z
" transform="scale(0.015625)"/>
     </defs>
     <use xlink:href="#ArialMT-247"/>
     <use xlink:href="#ArialMT-246" transform="translate(72.21875 0)"/>
     <use xlink:href="#ArialMT-24c" transform="translate(155.515625 0)"/>
     <use xlink:href="#ArialMT-3" transform="translate(216.59375 0)"/>
     <use xlink:href="#ArialMT-15" transform="translate(244.375 0)"/>
     <use xlink:href="#ArialMT-13" transform="translate(299.984375 0)"/>
     <use xlink:href="#ArialMT-15" transform="translate(355.59375 0)"/>
     <use xlink:href="#ArialMT-18" transform="translate(411.203125 0)"/>
     <use xlink:href="#ArialMT-11" transform="translate(466.8125 0)"/>
     <use xlink:href="#ArialMT-3" transform="translate(494.59375 0)"/>
     <use xlink:href="#ArialMT-24a" transform="translate(522.375 0)"/>
     <use xlink:href="#ArialMT-268" transform="translate(584.6875 0)"/>
     <use xlink:href="#ArialMT-261" transform="translate(639.171875 0)"/>
     <use xlink:href="#ArialMT-269" transform="translate(685.015625 0)"/>
     <use xlink:href="#ArialMT-268" transform="translate(739.171875 0)"/>
     <use xlink:href="#ArialMT-25e" transform="translate(792.578125 0)"/>
     <use xlink:href="#ArialMT-27f" transform="translate(850.921875 0)"/>
     <use xlink:href="#ArialMT-265" transform="translate(873.140625 0)"/>
     <use xlink:href="#ArialMT-3" transform="translate(931.484375 0)"/>
     <use xlink:href="#ArialMT-25b" transform="translate(959.265625 0)"/>
     <use xlink:href="#ArialMT-25a" transform="translate(1014.25 0)"/>
     <use xlink:href="#ArialMT-265" transform="translate(1069.859375 0)"/>
     <use xlink:href="#ArialMT-27f" transform="translate(1128.203125 0)"/>
     <use xlink:href="#ArialMT-25c" transform="translate(1150.421875 0)"/>
     <use xlink:href="#ArialMT-3" transform="translate(1203.546875 0)"/>
     <use xlink:href="#ArialMT-261" transform="translate(1231.328125 0)"/>
     <use xlink:href="#ArialMT-3" transform="translate(1277.171875 0)"/>
     <use xlink:href="#ArialMT-26d" transform="translate(1304.953125 0)"/>
     <use xlink:href="#ArialMT-264" transform="translate(1354.953125 0)"/>
     <use xlink:href="#ArialMT-26a" transform="translate(1398.703125 0)"/>
     <use xlink:href="#ArialMT-25a" transform="translate(1454.3125 0)"/>
     <use xlink:href="#ArialMT-280" transform="translate(1509.921875 0)"/>
     <use xlink:href="#ArialMT-267" transform="translate(1537.703125 0)"/>
     <use xlink:href="#ArialMT-26b" transform="translate(1592.921875 0)"/>
     <use xlink:href="#ArialMT-276" transform="translate(1642.921875 0)"/>
     <use xlink:href="#ArialMT-264" transform="translate(1695.015625 0)"/>
     <use xlink:href="#ArialMT-268" transform="translate(1739.890625 0)"/>
     <use xlink:href="#ArialMT-280" transform="translate(1795.5 0)"/>
     <use xlink:href="#ArialMT-3" transform="translate(1823.28125 0)"/>
     <use xlink:href="#ArialMT-266" transform="translate(1851.0625 0)"/>
     <use xlink:href="#ArialMT-268" transform="translate(1919.8125 0)"/>
     <use xlink:href="#ArialMT-25c" transform="translate(1975.421875 0)"/>
     <use xlink:href="#ArialMT-262" transform="translate(2028.546875 0)"/>
     <use xlink:href="#ArialMT-11" transform="translate(2084.40625 0)"/>
     <use xlink:href="#ArialMT-3" transform="translate(2112.1875 0)"/>
     <use xlink:href="#ArialMT-23c" transform="translate(2139.96875 0)"/>
     <use xlink:href="#ArialMT-26b" transform="translate(2206.671875 0)"/>
     <use xlink:href="#ArialMT-279" transform="translate(2256.671875 0)"/>
     <use xlink:href="#ArialMT-3" transform="translate(2310.828125 0)"/>
     <use xlink:href="#ArialMT-24d" transform="translate(2338.609375 0)"/>
     <use xlink:href="#ArialMT-264" transform="translate(2397.65625 0)"/>
     <use xlink:href="#ArialMT-26a" transform="translate(2441.40625 0)"/>
     <use xlink:href="#ArialMT-25a" transform="translate(2497.015625 0)"/>
     <use xlink:href="#ArialMT-280" transform="translate(2552.625 0)"/>
     <use xlink:href="#ArialMT-267" transform="translate(2580.40625 0)"/>
     <use xlink:href="#ArialMT-25a" transform="translate(2635.625 0)"/>
    </g>
   </g>
  </g>
 </g>
 <defs>
  <clipPath id="pcfae692d96">
   <rect x="162" y="51.84" width="1004.4" height="332.64"/>
  </clipPath>
 </defs>
</svg>
