<?xml version="1.0" encoding="utf-8" standalone="no"?>
<!DOCTYPE svg PUBLIC "-//W3C//DTD SVG 1.1//EN"
  "http://www.w3.org/Graphics/SVG/1.1/DTD/svg11.dtd">
<svg xmlns:xlink="http://www.w3.org/1999/xlink" width="825.1243pt" height="431.683652pt" viewBox="0 0 825.1243 431.683652" xmlns="http://www.w3.org/2000/svg" version="1.1">
 <metadata>
  <rdf:RDF xmlns:dc="http://purl.org/dc/elements/1.1/" xmlns:cc="http://creativecommons.org/ns#" xmlns:rdf="http://www.w3.org/1999/02/22-rdf-syntax-ns#">
   <cc:Work>
    <dc:type rdf:resource="http://purl.org/dc/dcmitype/StillImage"/>
    <dc:date>2026-06-28T18:11:16.874807</dc:date>
    <dc:format>image/svg+xml</dc:format>
    <dc:creator>
     <cc:Agent>
      <dc:title>Matplotlib v3.11.0, https://matplotlib.org/</dc:title>
     </cc:Agent>
    </dc:creator>
   </cc:Work>
  </rdf:RDF>
 </metadata>
 <defs>
  <style type="text/css">*{stroke-linejoin: round; stroke-linecap: butt}</style>
 </defs>
 <g id="figure_1">
  <g id="patch_1">
   <path d="M -0 431.683652 
L 825.1243 431.683652 
L 825.1243 0 
L -0 0 
z
" style="fill: #ffffff"/>
  </g>
  <g id="axes_1">
   <g id="matplotlib.axis_1"/>
   <g id="matplotlib.axis_2"/>
   <g id="patch_2">
    <path d="M 170.068984 418.744898 
C 192.025433 424.796089 215.024591 426.08 237.518126 422.510196 
C 260.011661 418.940393 281.483221 410.598822 300.487315 398.047049 
C 319.491409 385.495276 335.591787 369.021433 347.704553 349.734559 
C 359.817319 330.447685 367.664417 308.790521 370.717571 286.221054 
C 373.770725 263.651587 371.959849 240.687911 365.406852 218.875968 
C 358.853855 197.064026 347.709165 176.904522 332.723057 159.75462 
C 317.736949 142.604717 299.253436 128.858101 278.516852 119.44021 
C 257.780267 110.02232 235.266631 105.149347 212.491588 105.149347 
L 212.491588 264.816547 
z
" style="fill: #5e81ac; stroke: #ffffff; stroke-linejoin: miter"/>
   </g>
   <g id="patch_3">
    <path d="M 53.430499 278.715641 
C 56.26584 311.163259 68.963133 341.979261 89.809202 367.005817 
C 110.655271 392.032373 138.668417 410.090912 170.068984 418.744898 
L 212.491588 264.816547 
z
" style="fill: #81a1c1; stroke: #ffffff; stroke-linejoin: miter"/>
   </g>
   <g id="patch_4">
    <path d="M 106.457471 145.441588 
C 87.837634 161.98055 73.343055 182.648815 64.136068 205.788973 
C 54.92908 228.929132 51.26255 253.905652 53.430499 278.715641 
L 212.491588 264.816547 
z
" style="fill: #88c0d0; stroke: #ffffff; stroke-linejoin: miter"/>
   </g>
   <g id="patch_5">
    <path d="M 148.197044 118.666533 
C 140.597273 122.009837 133.269842 125.940833 126.281443 130.423743 
C 119.293044 134.906653 112.664944 139.927835 106.457471 145.441588 
L 212.491588 264.816547 
z
" style="fill: #8fbcbb; stroke: #ffffff; stroke-linejoin: miter"/>
   </g>
   <g id="patch_6">
    <path d="M 176.323131 109.299803 
C 171.502962 110.420828 166.737517 111.765345 162.042232 113.328999 
C 157.346946 114.892653 152.726895 116.673754 148.197044 118.666533 
L 212.491588 264.816547 
z
" style="fill: #ebcb8b; stroke: #ffffff; stroke-linejoin: miter"/>
   </g>
   <g id="patch_7">
    <path d="M 194.790144 106.133612 
C 191.684643 106.480038 188.58998 106.917554 185.510155 107.445593 
C 182.430329 107.973633 179.366668 108.591969 176.323131 109.299803 
L 212.491588 264.816547 
z
" style="fill: #d08770; stroke: #ffffff; stroke-linejoin: miter"/>
   </g>
   <g id="patch_8">
    <path d="M 212.491588 105.149347 
C 209.53508 105.149347 206.579142 105.231464 203.627194 105.395603 
C 200.675246 105.559742 197.728427 105.80584 194.790144 106.133612 
L 212.491588 264.816547 
z
" style="fill: #bf616a; stroke: #ffffff; stroke-linejoin: miter"/>
   </g>
   <g id="text_1">
    <!-- 54.3% -->
    <g style="fill: #262626" transform="translate(390.426879 295.195228) scale(0.14 -0.14)">
     <defs>
      <path id="Arial-BoldMT-18" d="M 284 1178 
L 1159 1269 
Q 1197 972 1381 798 
Q 1566 625 1806 625 
Q 2081 625 2272 848 
Q 2463 1072 2463 1522 
Q 2463 1944 2273 2155 
Q 2084 2366 1781 2366 
Q 1403 2366 1103 2031 
L 391 2134 
L 841 4519 
L 3163 4519 
L 3163 3697 
L 1506 3697 
L 1369 2919 
Q 1663 3066 1969 3066 
Q 2553 3066 2959 2641 
Q 3366 2216 3366 1538 
Q 3366 972 3038 528 
Q 2591 -78 1797 -78 
Q 1163 -78 763 262 
Q 363 603 284 1178 
z
" transform="scale(0.015625)"/>
      <path id="Arial-BoldMT-17" d="M 1994 0 
L 1994 922 
L 119 922 
L 119 1691 
L 2106 4600 
L 2844 4600 
L 2844 1694 
L 3413 1694 
L 3413 922 
L 2844 922 
L 2844 0 
L 1994 0 
z
M 1994 1694 
L 1994 3259 
L 941 1694 
L 1994 1694 
z
" transform="scale(0.015625)"/>
      <path id="Arial-BoldMT-11" d="M 459 0 
L 459 878 
L 1338 878 
L 1338 0 
L 459 0 
z
" transform="scale(0.015625)"/>
      <path id="Arial-BoldMT-16" d="M 241 1216 
L 1091 1319 
Q 1131 994 1309 822 
Q 1488 650 1741 650 
Q 2013 650 2198 856 
Q 2384 1063 2384 1413 
Q 2384 1744 2206 1937 
Q 2028 2131 1772 2131 
Q 1603 2131 1369 2066 
L 1466 2781 
Q 1822 2772 2009 2936 
Q 2197 3100 2197 3372 
Q 2197 3603 2059 3740 
Q 1922 3878 1694 3878 
Q 1469 3878 1309 3722 
Q 1150 3566 1116 3266 
L 306 3403 
Q 391 3819 561 4067 
Q 731 4316 1036 4458 
Q 1341 4600 1719 4600 
Q 2366 4600 2756 4188 
Q 3078 3850 3078 3425 
Q 3078 2822 2419 2463 
Q 2813 2378 3048 2084 
Q 3284 1791 3284 1375 
Q 3284 772 2843 347 
Q 2403 -78 1747 -78 
Q 1125 -78 715 280 
Q 306 638 241 1216 
z
" transform="scale(0.015625)"/>
      <path id="Arial-BoldMT-8" d="M 278 3450 
Q 278 4066 548 4362 
Q 819 4659 1281 4659 
Q 1759 4659 2029 4364 
Q 2300 4069 2300 3450 
Q 2300 2834 2029 2537 
Q 1759 2241 1297 2241 
Q 819 2241 548 2536 
Q 278 2831 278 3450 
z
M 963 3456 
Q 963 3009 1066 2856 
Q 1144 2744 1281 2744 
Q 1422 2744 1500 2856 
Q 1600 3009 1600 3456 
Q 1600 3903 1500 4053 
Q 1422 4169 1281 4169 
Q 1144 4169 1066 4056 
Q 963 3903 963 3456 
z
M 1950 -175 
L 1300 -175 
L 3741 4659 
L 4372 4659 
L 1950 -175 
z
M 3369 1028 
Q 3369 1644 3639 1941 
Q 3909 2238 4378 2238 
Q 4850 2238 5120 1941 
Q 5391 1644 5391 1028 
Q 5391 409 5120 112 
Q 4850 -184 4388 -184 
Q 3909 -184 3639 112 
Q 3369 409 3369 1028 
z
M 4053 1031 
Q 4053 584 4156 434 
Q 4234 319 4372 319 
Q 4513 319 4588 431 
Q 4691 584 4691 1031 
Q 4691 1478 4591 1631 
Q 4513 1744 4372 1744 
Q 4231 1744 4156 1631 
Q 4053 1478 4053 1031 
z
" transform="scale(0.015625)"/>
     </defs>
     <use xlink:href="#Arial-BoldMT-18"/>
     <use xlink:href="#Arial-BoldMT-17" transform="translate(55.609375 0)"/>
     <use xlink:href="#Arial-BoldMT-11" transform="translate(111.21875 0)"/>
     <use xlink:href="#Arial-BoldMT-16" transform="translate(139 0)"/>
     <use xlink:href="#Arial-BoldMT-8" transform="translate(194.609375 0)"/>
    </g>
   </g>
   <g id="text_2">
    <!-- 19.3% -->
    <g style="fill: #262626" transform="translate(39.291418 396.176181) scale(0.14 -0.14)">
     <defs>
      <path id="Arial-BoldMT-14" d="M 2519 0 
L 1641 0 
L 1641 3309 
Q 1159 2859 506 2644 
L 506 3441 
Q 850 3553 1253 3867 
Q 1656 4181 1806 4600 
L 2519 4600 
L 2519 0 
z
" transform="scale(0.015625)"/>
      <path id="Arial-BoldMT-1c" d="M 291 1059 
L 1141 1153 
Q 1172 894 1303 769 
Q 1434 644 1650 644 
Q 1922 644 2112 894 
Q 2303 1144 2356 1931 
Q 2025 1547 1528 1547 
Q 988 1547 595 1964 
Q 203 2381 203 3050 
Q 203 3747 617 4173 
Q 1031 4600 1672 4600 
Q 2369 4600 2816 4061 
Q 3263 3522 3263 2288 
Q 3263 1031 2797 475 
Q 2331 -81 1584 -81 
Q 1047 -81 715 205 
Q 384 491 291 1059 
z
M 2278 2978 
Q 2278 3403 2083 3637 
Q 1888 3872 1631 3872 
Q 1388 3872 1227 3680 
Q 1066 3488 1066 3050 
Q 1066 2606 1241 2398 
Q 1416 2191 1678 2191 
Q 1931 2191 2104 2391 
Q 2278 2591 2278 2978 
z
" transform="scale(0.015625)"/>
     </defs>
     <use xlink:href="#Arial-BoldMT-14"/>
     <use xlink:href="#Arial-BoldMT-1c" transform="translate(55.609375 0)"/>
     <use xlink:href="#Arial-BoldMT-11" transform="translate(111.21875 0)"/>
     <use xlink:href="#Arial-BoldMT-16" transform="translate(139 0)"/>
     <use xlink:href="#Arial-BoldMT-8" transform="translate(194.609375 0)"/>
    </g>
   </g>
   <g id="text_3">
    <!-- 14.8% -->
    <g style="fill: #262626" transform="translate(7.2 194.655127) scale(0.14 -0.14)">
     <defs>
      <path id="Arial-BoldMT-1b" d="M 1025 2472 
Q 684 2616 529 2867 
Q 375 3119 375 3419 
Q 375 3931 733 4265 
Q 1091 4600 1750 4600 
Q 2403 4600 2764 4265 
Q 3125 3931 3125 3419 
Q 3125 3100 2959 2851 
Q 2794 2603 2494 2472 
Q 2875 2319 3073 2025 
Q 3272 1731 3272 1347 
Q 3272 713 2867 316 
Q 2463 -81 1791 -81 
Q 1166 -81 750 247 
Q 259 634 259 1309 
Q 259 1681 443 1992 
Q 628 2303 1025 2472 
z
M 1206 3356 
Q 1206 3094 1354 2947 
Q 1503 2800 1750 2800 
Q 2000 2800 2150 2948 
Q 2300 3097 2300 3359 
Q 2300 3606 2151 3754 
Q 2003 3903 1759 3903 
Q 1506 3903 1356 3753 
Q 1206 3603 1206 3356 
z
M 1125 1394 
Q 1125 1031 1311 828 
Q 1497 625 1775 625 
Q 2047 625 2225 820 
Q 2403 1016 2403 1384 
Q 2403 1706 2222 1901 
Q 2041 2097 1763 2097 
Q 1441 2097 1283 1875 
Q 1125 1653 1125 1394 
z
" transform="scale(0.015625)"/>
     </defs>
     <use xlink:href="#Arial-BoldMT-14"/>
     <use xlink:href="#Arial-BoldMT-17" transform="translate(55.609375 0)"/>
     <use xlink:href="#Arial-BoldMT-11" transform="translate(111.21875 0)"/>
     <use xlink:href="#Arial-BoldMT-1b" transform="translate(139 0)"/>
     <use xlink:href="#Arial-BoldMT-8" transform="translate(194.609375 0)"/>
    </g>
   </g>
   <g id="text_4">
    <!-- 5.0% -->
    <g style="fill: #262626" transform="translate(88.774376 100.448589) scale(0.14 -0.14)">
     <defs>
      <path id="Arial-BoldMT-13" d="M 1756 4600 
Q 2422 4600 2797 4125 
Q 3244 3563 3244 2259 
Q 3244 959 2794 391 
Q 2422 -78 1756 -78 
Q 1088 -78 678 436 
Q 269 950 269 2269 
Q 269 3563 719 4131 
Q 1091 4600 1756 4600 
z
M 1756 3872 
Q 1597 3872 1472 3770 
Q 1347 3669 1278 3406 
Q 1188 3066 1188 2259 
Q 1188 1453 1269 1151 
Q 1350 850 1473 750 
Q 1597 650 1756 650 
Q 1916 650 2041 751 
Q 2166 853 2234 1116 
Q 2325 1453 2325 2259 
Q 2325 3066 2244 3367 
Q 2163 3669 2039 3770 
Q 1916 3872 1756 3872 
z
" transform="scale(0.015625)"/>
     </defs>
     <use xlink:href="#Arial-BoldMT-18"/>
     <use xlink:href="#Arial-BoldMT-11" transform="translate(55.609375 0)"/>
     <use xlink:href="#Arial-BoldMT-13" transform="translate(83.390625 0)"/>
     <use xlink:href="#Arial-BoldMT-8" transform="translate(139 0)"/>
    </g>
   </g>
   <g id="text_5">
    <!-- 3.0% -->
    <g style="fill: #262626" transform="translate(133.475361 79.080159) scale(0.14 -0.14)">
     <use xlink:href="#Arial-BoldMT-16"/>
     <use xlink:href="#Arial-BoldMT-11" transform="translate(55.609375 0)"/>
     <use xlink:href="#Arial-BoldMT-13" transform="translate(83.390625 0)"/>
     <use xlink:href="#Arial-BoldMT-8" transform="translate(139 0)"/>
    </g>
   </g>
   <g id="text_6">
    <!-- 1.9% -->
    <g style="fill: #262626" transform="translate(162.810265 71.725902) scale(0.14 -0.14)">
     <use xlink:href="#Arial-BoldMT-14"/>
     <use xlink:href="#Arial-BoldMT-11" transform="translate(55.609375 0)"/>
     <use xlink:href="#Arial-BoldMT-1c" transform="translate(83.390625 0)"/>
     <use xlink:href="#Arial-BoldMT-8" transform="translate(139 0)"/>
    </g>
   </g>
   <g id="text_7">
    <!-- 1.8% -->
    <g style="fill: #262626" transform="translate(185.456565 69.163414) scale(0.14 -0.14)">
     <use xlink:href="#Arial-BoldMT-14"/>
     <use xlink:href="#Arial-BoldMT-11" transform="translate(55.609375 0)"/>
     <use xlink:href="#Arial-BoldMT-1b" transform="translate(83.390625 0)"/>
     <use xlink:href="#Arial-BoldMT-8" transform="translate(139 0)"/>
    </g>
   </g>
   <g id="text_8">
    <!-- Розподіл учасників за типом закладу освіти -->
    <g style="fill: #262626" transform="translate(10.616588 21.760547) scale(0.2 -0.2)">
     <defs>
      <path id="ArialMT-24a" d="M 494 0 
L 494 4581 
L 2222 4581 
Q 2678 4581 2919 4538 
Q 3256 4481 3484 4323 
Q 3713 4166 3852 3881 
Q 3991 3597 3991 3256 
Q 3991 2672 3619 2267 
Q 3247 1863 2275 1863 
L 1100 1863 
L 1100 0 
L 494 0 
z
M 1100 2403 
L 2284 2403 
Q 2872 2403 3119 2622 
Q 3366 2841 3366 3238 
Q 3366 3525 3220 3729 
Q 3075 3934 2838 4000 
Q 2684 4041 2272 4041 
L 1100 4041 
L 1100 2403 
z
" transform="scale(0.015625)"/>
      <path id="ArialMT-268" d="M 213 1659 
Q 213 2581 725 3025 
Q 1153 3394 1769 3394 
Q 2453 3394 2887 2945 
Q 3322 2497 3322 1706 
Q 3322 1066 3130 698 
Q 2938 331 2570 128 
Q 2203 -75 1769 -75 
Q 1072 -75 642 372 
Q 213 819 213 1659 
z
M 791 1659 
Q 791 1022 1069 705 
Q 1347 388 1769 388 
Q 2188 388 2466 706 
Q 2744 1025 2744 1678 
Q 2744 2294 2464 2611 
Q 2184 2928 1769 2928 
Q 1347 2928 1069 2612 
Q 791 2297 791 1659 
z
" transform="scale(0.015625)"/>
      <path id="ArialMT-261" d="M 1156 1500 
L 1156 1941 
Q 1513 1944 1642 1969 
Q 1772 1994 1887 2119 
Q 2003 2244 2003 2431 
Q 2003 2659 1851 2795 
Q 1700 2931 1459 2931 
Q 984 2931 794 2372 
L 259 2459 
Q 509 3394 1466 3394 
Q 1997 3394 2298 3103 
Q 2600 2813 2600 2409 
Q 2600 2003 2206 1763 
Q 2456 1628 2581 1420 
Q 2706 1213 2706 928 
Q 2706 481 2381 203 
Q 2056 -75 1472 -75 
Q 338 -75 156 934 
L 684 1047 
Q 756 728 976 553 
Q 1197 378 1481 378 
Q 1766 378 1955 539 
Q 2144 700 2144 950 
Q 2144 1144 2025 1287 
Q 1906 1431 1772 1467 
Q 1638 1503 1284 1503 
Q 1256 1503 1156 1500 
z
" transform="scale(0.015625)"/>
      <path id="ArialMT-269" d="M 425 3319 
L 3044 3319 
L 3044 0 
L 2481 0 
L 2481 2853 
L 988 2853 
L 988 0 
L 425 0 
L 425 3319 
z
" transform="scale(0.015625)"/>
      <path id="ArialMT-25e" d="M 866 3319 
L 3178 3319 
L 3178 463 
L 3538 463 
L 3538 -941 
L 3075 -941 
L 3075 0 
L 463 0 
L 463 -941 
L 0 -941 
L 0 463 
L 297 463 
Q 891 1269 866 3319 
z
M 1334 2853 
Q 1272 1238 834 463 
L 2619 463 
L 2619 2853 
L 1334 2853 
z
" transform="scale(0.015625)"/>
      <path id="ArialMT-27f" d="M 425 3934 
L 425 4581 
L 988 4581 
L 988 3934 
L 425 3934 
z
M 425 0 
L 425 3319 
L 988 3319 
L 988 0 
L 425 0 
z
" transform="scale(0.015625)"/>
      <path id="ArialMT-265" d="M 697 3319 
L 3309 3319 
L 3309 0 
L 2750 0 
L 2750 2853 
L 1259 2853 
L 1259 1200 
Q 1259 622 1221 437 
Q 1184 253 1015 115 
Q 847 -22 528 -22 
Q 331 -22 75 3 
L 75 472 
L 322 472 
Q 497 472 572 508 
Q 647 544 672 622 
Q 697 700 697 1131 
L 697 3319 
z
" transform="scale(0.015625)"/>
      <path id="ArialMT-3" transform="scale(0.015625)"/>
      <path id="ArialMT-26d" d="M 397 -1278 
L 334 -750 
Q 519 -800 656 -800 
Q 844 -800 956 -737 
Q 1069 -675 1141 -563 
Q 1194 -478 1313 -144 
Q 1328 -97 1363 -6 
L 103 3319 
L 709 3319 
L 1400 1397 
Q 1534 1031 1641 628 
Q 1738 1016 1872 1384 
L 2581 3319 
L 3144 3319 
L 1881 -56 
Q 1678 -603 1566 -809 
Q 1416 -1088 1222 -1217 
Q 1028 -1347 759 -1347 
Q 597 -1347 397 -1278 
z
" transform="scale(0.015625)"/>
      <path id="ArialMT-271" d="M 216 3319 
L 778 3319 
L 778 2691 
Q 778 2284 826 2101 
Q 875 1919 1059 1783 
Q 1244 1647 1522 1647 
Q 1841 1647 2347 1816 
L 2347 3319 
L 2909 3319 
L 2909 0 
L 2347 0 
L 2347 1338 
Q 1828 1175 1378 1175 
Q 1000 1175 711 1367 
Q 422 1559 319 1837 
Q 216 2116 216 2450 
L 216 3319 
z
" transform="scale(0.015625)"/>
      <path id="ArialMT-25a" d="M 2588 409 
Q 2275 144 1986 34 
Q 1697 -75 1366 -75 
Q 819 -75 525 192 
Q 231 459 231 875 
Q 231 1119 342 1320 
Q 453 1522 633 1644 
Q 813 1766 1038 1828 
Q 1203 1872 1538 1913 
Q 2219 1994 2541 2106 
Q 2544 2222 2544 2253 
Q 2544 2597 2384 2738 
Q 2169 2928 1744 2928 
Q 1347 2928 1158 2789 
Q 969 2650 878 2297 
L 328 2372 
Q 403 2725 575 2942 
Q 747 3159 1072 3276 
Q 1397 3394 1825 3394 
Q 2250 3394 2515 3294 
Q 2781 3194 2906 3042 
Q 3031 2891 3081 2659 
Q 3109 2516 3109 2141 
L 3109 1391 
Q 3109 606 3145 398 
Q 3181 191 3288 0 
L 2700 0 
Q 2613 175 2588 409 
z
M 2541 1666 
Q 2234 1541 1622 1453 
Q 1275 1403 1131 1340 
Q 988 1278 909 1158 
Q 831 1038 831 891 
Q 831 666 1001 516 
Q 1172 366 1500 366 
Q 1825 366 2078 508 
Q 2331 650 2450 897 
Q 2541 1088 2541 1459 
L 2541 1666 
z
" transform="scale(0.015625)"/>
      <path id="ArialMT-26b" d="M 2588 1216 
L 3141 1144 
Q 3050 572 2676 248 
Q 2303 -75 1759 -75 
Q 1078 -75 664 370 
Q 250 816 250 1647 
Q 250 2184 428 2587 
Q 606 2991 970 3192 
Q 1334 3394 1763 3394 
Q 2303 3394 2647 3120 
Q 2991 2847 3088 2344 
L 2541 2259 
Q 2463 2594 2264 2762 
Q 2066 2931 1784 2931 
Q 1359 2931 1093 2626 
Q 828 2322 828 1663 
Q 828 994 1084 691 
Q 1341 388 1753 388 
Q 2084 388 2306 591 
Q 2528 794 2588 1216 
z
" transform="scale(0.015625)"/>
      <path id="ArialMT-267" d="M 425 3319 
L 988 3319 
L 988 1938 
L 2547 1938 
L 2547 3319 
L 3109 3319 
L 3109 0 
L 2547 0 
L 2547 1472 
L 988 1472 
L 988 0 
L 425 0 
L 425 3319 
z
" transform="scale(0.015625)"/>
      <path id="ArialMT-262" d="M 422 3319 
L 984 3319 
L 984 788 
L 2544 3319 
L 3150 3319 
L 3150 0 
L 2588 0 
L 2588 2516 
L 1028 0 
L 422 0 
L 422 3319 
z
" transform="scale(0.015625)"/>
      <path id="ArialMT-264" d="M 419 3319 
L 981 3319 
L 981 1884 
Q 1250 1884 1358 1987 
Q 1466 2091 1675 2588 
Q 1841 2981 1944 3106 
Q 2047 3231 2181 3275 
Q 2316 3319 2613 3319 
L 2725 3319 
L 2725 2853 
L 2569 2856 
Q 2347 2856 2284 2791 
Q 2219 2722 2084 2381 
Q 1956 2056 1850 1931 
Q 1744 1806 1522 1703 
Q 1884 1606 2234 1028 
L 2850 0 
L 2231 0 
L 1631 1028 
Q 1447 1338 1309 1436 
Q 1172 1534 981 1534 
L 981 0 
L 419 0 
L 419 3319 
z
" transform="scale(0.015625)"/>
      <path id="ArialMT-25c" d="M 425 3319 
L 1722 3319 
Q 2200 3319 2433 3239 
Q 2666 3159 2833 2946 
Q 3000 2734 3000 2438 
Q 3000 2200 2901 2023 
Q 2803 1847 2606 1728 
Q 2841 1650 2995 1436 
Q 3150 1222 3150 928 
Q 3119 456 2812 228 
Q 2506 0 1922 0 
L 425 0 
L 425 3319 
z
M 988 1922 
L 1588 1922 
Q 1947 1922 2081 1959 
Q 2216 1997 2322 2111 
Q 2428 2225 2428 2384 
Q 2428 2647 2242 2750 
Q 2056 2853 1606 2853 
L 988 2853 
L 988 1922 
z
M 988 463 
L 1728 463 
Q 2206 463 2384 573 
Q 2563 684 2572 956 
Q 2572 1116 2469 1252 
Q 2366 1388 2200 1423 
Q 2034 1459 1669 1459 
L 988 1459 
L 988 463 
z
" transform="scale(0.015625)"/>
      <path id="ArialMT-26c" d="M 119 3319 
L 2816 3319 
L 2816 2853 
L 1747 2853 
L 1747 0 
L 1188 0 
L 1188 2853 
L 119 2853 
L 119 3319 
z
" transform="scale(0.015625)"/>
      <path id="ArialMT-266" d="M 438 3319 
L 1313 3319 
L 2184 663 
L 3153 3319 
L 3963 3319 
L 3963 0 
L 3400 0 
L 3400 2672 
L 2419 0 
L 1916 0 
L 988 2800 
L 988 0 
L 438 0 
L 438 3319 
z
" transform="scale(0.015625)"/>
     </defs>
     <use xlink:href="#ArialMT-24a"/>
     <use xlink:href="#ArialMT-268" transform="translate(62.3125 0)"/>
     <use xlink:href="#ArialMT-261" transform="translate(116.796875 0)"/>
     <use xlink:href="#ArialMT-269" transform="translate(162.640625 0)"/>
     <use xlink:href="#ArialMT-268" transform="translate(216.796875 0)"/>
     <use xlink:href="#ArialMT-25e" transform="translate(270.203125 0)"/>
     <use xlink:href="#ArialMT-27f" transform="translate(328.546875 0)"/>
     <use xlink:href="#ArialMT-265" transform="translate(350.765625 0)"/>
     <use xlink:href="#ArialMT-3" transform="translate(409.109375 0)"/>
     <use xlink:href="#ArialMT-26d" transform="translate(436.890625 0)"/>
     <use xlink:href="#ArialMT-271" transform="translate(486.890625 0)"/>
     <use xlink:href="#ArialMT-25a" transform="translate(538.984375 0)"/>
     <use xlink:href="#ArialMT-26b" transform="translate(594.59375 0)"/>
     <use xlink:href="#ArialMT-267" transform="translate(644.59375 0)"/>
     <use xlink:href="#ArialMT-262" transform="translate(699.8125 0)"/>
     <use xlink:href="#ArialMT-264" transform="translate(755.671875 0)"/>
     <use xlink:href="#ArialMT-27f" transform="translate(799.421875 0)"/>
     <use xlink:href="#ArialMT-25c" transform="translate(821.640625 0)"/>
     <use xlink:href="#ArialMT-3" transform="translate(874.765625 0)"/>
     <use xlink:href="#ArialMT-261" transform="translate(902.546875 0)"/>
     <use xlink:href="#ArialMT-25a" transform="translate(948.390625 0)"/>
     <use xlink:href="#ArialMT-3" transform="translate(1004 0)"/>
     <use xlink:href="#ArialMT-26c" transform="translate(1031.78125 0)"/>
     <use xlink:href="#ArialMT-262" transform="translate(1077.578125 0)"/>
     <use xlink:href="#ArialMT-269" transform="translate(1133.4375 0)"/>
     <use xlink:href="#ArialMT-268" transform="translate(1187.59375 0)"/>
     <use xlink:href="#ArialMT-266" transform="translate(1243.203125 0)"/>
     <use xlink:href="#ArialMT-3" transform="translate(1311.953125 0)"/>
     <use xlink:href="#ArialMT-261" transform="translate(1339.734375 0)"/>
     <use xlink:href="#ArialMT-25a" transform="translate(1385.578125 0)"/>
     <use xlink:href="#ArialMT-264" transform="translate(1441.1875 0)"/>
     <use xlink:href="#ArialMT-265" transform="translate(1486.0625 0)"/>
     <use xlink:href="#ArialMT-25a" transform="translate(1544.40625 0)"/>
     <use xlink:href="#ArialMT-25e" transform="translate(1600.015625 0)"/>
     <use xlink:href="#ArialMT-26d" transform="translate(1658.359375 0)"/>
     <use xlink:href="#ArialMT-3" transform="translate(1708.359375 0)"/>
     <use xlink:href="#ArialMT-268" transform="translate(1736.140625 0)"/>
     <use xlink:href="#ArialMT-26b" transform="translate(1791.75 0)"/>
     <use xlink:href="#ArialMT-25c" transform="translate(1841.75 0)"/>
     <use xlink:href="#ArialMT-27f" transform="translate(1894.875 0)"/>
     <use xlink:href="#ArialMT-26c" transform="translate(1917.09375 0)"/>
     <use xlink:href="#ArialMT-262" transform="translate(1962.890625 0)"/>
    </g>
   </g>
   <g id="legend_1">
    <g id="patch_9">
     <path d="M 514.919675 344.660434 
L 814.8443 344.660434 
Q 817.9243 344.660434 817.9243 341.580434 
L 817.9243 188.05266 
Q 817.9243 184.97266 814.8443 184.97266 
L 514.919675 184.97266 
Q 511.839675 184.97266 511.839675 188.05266 
L 511.839675 341.580434 
Q 511.839675 344.660434 514.919675 344.660434 
z
" style="fill: #ffffff; opacity: 0.8; stroke: #cccccc; stroke-linejoin: miter"/>
    </g>
    <g id="patch_10">
     <path d="M 517.999675 202.344281 
L 548.799675 202.344281 
L 548.799675 191.564281 
L 517.999675 191.564281 
z
" style="fill: #5e81ac; stroke: #ffffff; stroke-linejoin: miter"/>
    </g>
    <g id="text_9">
     <!-- Ліцей -->
     <g style="fill: #262626" transform="translate(561.119675 202.344281) scale(0.154 -0.154)">
      <defs>
       <path id="ArialMT-245" d="M 828 4581 
L 3697 4581 
L 3697 0 
L 3091 0 
L 3091 4041 
L 1434 4041 
L 1434 1681 
Q 1434 963 1367 628 
Q 1300 294 1084 108 
Q 869 -78 538 -78 
Q 338 -78 56 -3 
L 159 534 
Q 309 472 416 472 
Q 622 472 725 626 
Q 828 781 828 1356 
L 828 4581 
z
" transform="scale(0.015625)"/>
       <path id="ArialMT-270" d="M 431 3319 
L 994 3319 
L 994 463 
L 2550 463 
L 2550 3319 
L 3113 3319 
L 3113 463 
L 3475 463 
L 3475 -941 
L 3013 -941 
L 3013 0 
L 431 0 
L 431 3319 
z
" transform="scale(0.015625)"/>
       <path id="ArialMT-25f" d="M 2694 1069 
L 3275 997 
Q 3138 488 2766 206 
Q 2394 -75 1816 -75 
Q 1088 -75 661 373 
Q 234 822 234 1631 
Q 234 2469 665 2931 
Q 1097 3394 1784 3394 
Q 2450 3394 2872 2941 
Q 3294 2488 3294 1666 
Q 3294 1616 3291 1516 
L 816 1516 
Q 847 969 1125 678 
Q 1403 388 1819 388 
Q 2128 388 2347 550 
Q 2566 713 2694 1069 
z
M 847 1978 
L 2700 1978 
Q 2663 2397 2488 2606 
Q 2219 2931 1791 2931 
Q 1403 2931 1139 2672 
Q 875 2413 847 1978 
z
" transform="scale(0.015625)"/>
       <path id="ArialMT-263" d="M 422 3319 
L 984 3319 
L 984 788 
L 2544 3319 
L 3150 3319 
L 3150 0 
L 2588 0 
L 2588 2516 
L 1028 0 
L 422 0 
L 422 3319 
z
M 2375 4575 
L 2760 4575 
Q 2713 4184 2474 3975 
Q 2235 3766 1838 3766 
Q 1438 3766 1199 3973 
Q 960 4181 913 4575 
L 1297 4575 
Q 1341 4363 1470 4258 
Q 1600 4153 1819 4153 
Q 2072 4153 2202 4254 
Q 2332 4356 2375 4575 
z
" transform="scale(0.015625)"/>
      </defs>
      <use xlink:href="#ArialMT-245"/>
      <use xlink:href="#ArialMT-27f" transform="translate(65.625 0)"/>
      <use xlink:href="#ArialMT-270" transform="translate(87.84375 0)"/>
      <use xlink:href="#ArialMT-25f" transform="translate(144 0)"/>
      <use xlink:href="#ArialMT-263" transform="translate(199.609375 0)"/>
     </g>
    </g>
    <g id="patch_11">
     <path d="M 517.999675 224.49682 
L 548.799675 224.49682 
L 548.799675 213.71682 
L 517.999675 213.71682 
z
" style="fill: #81a1c1; stroke: #ffffff; stroke-linejoin: miter"/>
    </g>
    <g id="text_10">
     <!-- Заклад фахової передвищої освіти -->
     <g style="fill: #262626" transform="translate(561.119675 224.49682) scale(0.154 -0.154)">
      <defs>
       <path id="ArialMT-241" d="M 244 1294 
L 822 1444 
Q 888 1109 1173 775 
Q 1459 441 1931 441 
Q 2413 441 2691 687 
Q 2969 934 2969 1284 
Q 2969 1663 2675 1886 
Q 2381 2109 1875 2109 
L 1584 2109 
L 1584 2638 
Q 2003 2638 2225 2686 
Q 2447 2734 2617 2932 
Q 2788 3131 2788 3384 
Q 2788 3684 2555 3906 
Q 2322 4128 1925 4128 
Q 1578 4128 1333 3954 
Q 1088 3781 994 3495 
Q 900 3209 900 3069 
L 319 3200 
Q 534 4659 1931 4659 
Q 2603 4659 2997 4286 
Q 3391 3913 3391 3413 
Q 3391 2772 2784 2419 
Q 3134 2322 3370 2023 
Q 3606 1725 3606 1309 
Q 3606 719 3148 320 
Q 2691 -78 1934 -78 
Q 634 -78 244 1294 
z
" transform="scale(0.015625)"/>
       <path id="ArialMT-26e" d="M 2353 4581 
L 2916 4581 
L 2916 2997 
Q 3091 3197 3300 3295 
Q 3509 3394 3750 3394 
Q 4341 3394 4686 2901 
Q 5031 2409 5031 1663 
Q 5031 884 4659 404 
Q 4288 -75 3734 -75 
Q 3553 -75 3365 -18 
Q 3178 38 2916 288 
L 2916 -1272 
L 2353 -1272 
L 2353 288 
Q 2184 106 1979 15 
Q 1775 -75 1538 -75 
Q 1016 -75 625 383 
Q 234 841 234 1694 
Q 234 2416 587 2905 
Q 941 3394 1538 3394 
Q 1788 3394 1991 3295 
Q 2194 3197 2353 2997 
L 2353 4581 
z
M 2913 1647 
Q 2913 897 3119 639 
Q 3325 381 3634 381 
Q 3978 381 4220 698 
Q 4463 1016 4463 1684 
Q 4463 2316 4239 2625 
Q 4016 2934 3666 2934 
Q 3291 2934 3102 2612 
Q 2913 2291 2913 1647 
z
M 806 1709 
Q 806 1006 1042 697 
Q 1278 388 1628 388 
Q 1994 388 2175 695 
Q 2356 1003 2356 1619 
Q 2356 2275 2165 2603 
Q 1975 2931 1591 2931 
Q 1244 2931 1025 2611 
Q 806 2291 806 1709 
z
" transform="scale(0.015625)"/>
       <path id="ArialMT-26f" d="M 47 0 
L 1259 1725 
L 138 3319 
L 841 3319 
L 1350 2541 
Q 1494 2319 1581 2169 
Q 1719 2375 1834 2534 
L 2394 3319 
L 3066 3319 
L 1919 1756 
L 3153 0 
L 2463 0 
L 1781 1031 
L 1600 1309 
L 728 0 
L 47 0 
z
" transform="scale(0.015625)"/>
       <path id="ArialMT-280" d="M 619 0 
L 619 3319 
L 1181 3319 
L 1181 0 
L 619 0 
z
M 28 3969 
L 28 4609 
L 615 4609 
L 615 3969 
L 28 3969 
z
M 1193 3969 
L 1193 4609 
L 1781 4609 
L 1781 3969 
L 1193 3969 
z
" transform="scale(0.015625)"/>
       <path id="ArialMT-26a" d="M 422 -1272 
L 422 3319 
L 934 3319 
L 934 2888 
Q 1116 3141 1344 3267 
Q 1572 3394 1897 3394 
Q 2322 3394 2647 3175 
Q 2972 2956 3137 2557 
Q 3303 2159 3303 1684 
Q 3303 1175 3120 767 
Q 2938 359 2589 142 
Q 2241 -75 1856 -75 
Q 1575 -75 1351 44 
Q 1128 163 984 344 
L 984 -1272 
L 422 -1272 
z
M 931 1641 
Q 931 1000 1190 694 
Q 1450 388 1819 388 
Q 2194 388 2461 705 
Q 2728 1022 2728 1688 
Q 2728 2322 2467 2637 
Q 2206 2953 1844 2953 
Q 1484 2953 1207 2617 
Q 931 2281 931 1641 
z
" transform="scale(0.015625)"/>
       <path id="ArialMT-273" d="M 441 3319 
L 1003 3319 
L 1003 463 
L 2284 463 
L 2284 3319 
L 2847 3319 
L 2847 463 
L 4131 463 
L 4131 3319 
L 4691 3319 
L 4691 463 
L 5063 463 
L 5063 -941 
L 4597 -941 
L 4597 0 
L 441 0 
L 441 3319 
z
" transform="scale(0.015625)"/>
      </defs>
      <use xlink:href="#ArialMT-241"/>
      <use xlink:href="#ArialMT-25a" transform="translate(60.40625 0)"/>
      <use xlink:href="#ArialMT-264" transform="translate(116.015625 0)"/>
      <use xlink:href="#ArialMT-265" transform="translate(160.890625 0)"/>
      <use xlink:href="#ArialMT-25a" transform="translate(219.234375 0)"/>
      <use xlink:href="#ArialMT-25e" transform="translate(274.84375 0)"/>
      <use xlink:href="#ArialMT-3" transform="translate(333.1875 0)"/>
      <use xlink:href="#ArialMT-26e" transform="translate(360.96875 0)"/>
      <use xlink:href="#ArialMT-25a" transform="translate(443.25 0)"/>
      <use xlink:href="#ArialMT-26f" transform="translate(498.859375 0)"/>
      <use xlink:href="#ArialMT-268" transform="translate(547.734375 0)"/>
      <use xlink:href="#ArialMT-25c" transform="translate(603.34375 0)"/>
      <use xlink:href="#ArialMT-268" transform="translate(655.34375 0)"/>
      <use xlink:href="#ArialMT-280" transform="translate(710.953125 0)"/>
      <use xlink:href="#ArialMT-3" transform="translate(738.734375 0)"/>
      <use xlink:href="#ArialMT-269" transform="translate(766.515625 0)"/>
      <use xlink:href="#ArialMT-25f" transform="translate(820.671875 0)"/>
      <use xlink:href="#ArialMT-26a" transform="translate(876.28125 0)"/>
      <use xlink:href="#ArialMT-25f" transform="translate(931.890625 0)"/>
      <use xlink:href="#ArialMT-25e" transform="translate(985.296875 0)"/>
      <use xlink:href="#ArialMT-25c" transform="translate(1043.640625 0)"/>
      <use xlink:href="#ArialMT-262" transform="translate(1096.765625 0)"/>
      <use xlink:href="#ArialMT-273" transform="translate(1152.625 0)"/>
      <use xlink:href="#ArialMT-268" transform="translate(1233.78125 0)"/>
      <use xlink:href="#ArialMT-280" transform="translate(1289.390625 0)"/>
      <use xlink:href="#ArialMT-3" transform="translate(1317.171875 0)"/>
      <use xlink:href="#ArialMT-268" transform="translate(1344.953125 0)"/>
      <use xlink:href="#ArialMT-26b" transform="translate(1400.5625 0)"/>
      <use xlink:href="#ArialMT-25c" transform="translate(1450.5625 0)"/>
      <use xlink:href="#ArialMT-27f" transform="translate(1503.6875 0)"/>
      <use xlink:href="#ArialMT-26c" transform="translate(1525.90625 0)"/>
      <use xlink:href="#ArialMT-262" transform="translate(1571.703125 0)"/>
     </g>
    </g>
    <g id="patch_12">
     <path d="M 517.999675 246.649359 
L 548.799675 246.649359 
L 548.799675 235.869359 
L 517.999675 235.869359 
z
" style="fill: #88c0d0; stroke: #ffffff; stroke-linejoin: miter"/>
    </g>
    <g id="text_11">
     <!-- Середня загальноосвітня школа -->
     <g style="fill: #262626" transform="translate(561.119675 246.649359) scale(0.154 -0.154)">
      <defs>
       <path id="ArialMT-24b" d="M 3763 1606 
L 4369 1453 
Q 4178 706 3683 314 
Q 3188 -78 2472 -78 
Q 1731 -78 1267 223 
Q 803 525 561 1097 
Q 319 1669 319 2325 
Q 319 3041 592 3573 
Q 866 4106 1370 4382 
Q 1875 4659 2481 4659 
Q 3169 4659 3637 4309 
Q 4106 3959 4291 3325 
L 3694 3184 
Q 3534 3684 3231 3912 
Q 2928 4141 2469 4141 
Q 1941 4141 1586 3887 
Q 1231 3634 1087 3207 
Q 944 2781 944 2328 
Q 944 1744 1114 1308 
Q 1284 872 1643 656 
Q 2003 441 2422 441 
Q 2931 441 3284 734 
Q 3638 1028 3763 1606 
z
" transform="scale(0.015625)"/>
       <path id="ArialMT-279" d="M 3034 3319 
L 3034 0 
L 2475 0 
L 2475 1294 
L 2150 1294 
Q 1853 1294 1708 1217 
Q 1563 1141 1284 725 
L 794 0 
L 97 0 
L 703 894 
Q 981 1303 1256 1356 
Q 775 1422 542 1703 
Q 309 1984 309 2350 
Q 309 2781 614 3050 
Q 919 3319 1497 3319 
L 3034 3319 
z
M 2475 2853 
L 1675 2853 
Q 1172 2853 1026 2697 
Q 881 2541 881 2331 
Q 881 2034 1095 1895 
Q 1309 1756 1853 1756 
L 2475 1756 
L 2475 2853 
z
" transform="scale(0.015625)"/>
       <path id="ArialMT-25d" d="M 425 3319 
L 2334 3319 
L 2334 2853 
L 988 2853 
L 988 0 
L 425 0 
L 425 3319 
z
" transform="scale(0.015625)"/>
       <path id="ArialMT-276" d="M 413 3319 
L 975 3319 
L 975 2022 
L 1688 2022 
Q 2384 2022 2761 1751 
Q 3138 1481 3138 1006 
Q 3138 591 2823 295 
Q 2509 0 1819 0 
L 413 0 
L 413 3319 
z
M 975 463 
L 1566 463 
Q 2100 463 2328 594 
Q 2556 725 2556 1003 
Q 2556 1219 2387 1387 
Q 2219 1556 1641 1556 
L 975 1556 
L 975 463 
z
" transform="scale(0.015625)"/>
       <path id="ArialMT-272" d="M 441 3319 
L 1003 3319 
L 1003 466 
L 2284 466 
L 2284 3319 
L 2847 3319 
L 2847 466 
L 4131 466 
L 4131 3319 
L 4691 3319 
L 4691 0 
L 441 0 
L 441 3319 
z
" transform="scale(0.015625)"/>
      </defs>
      <use xlink:href="#ArialMT-24b"/>
      <use xlink:href="#ArialMT-25f" transform="translate(72.21875 0)"/>
      <use xlink:href="#ArialMT-26a" transform="translate(127.828125 0)"/>
      <use xlink:href="#ArialMT-25f" transform="translate(183.4375 0)"/>
      <use xlink:href="#ArialMT-25e" transform="translate(236.84375 0)"/>
      <use xlink:href="#ArialMT-267" transform="translate(295.1875 0)"/>
      <use xlink:href="#ArialMT-279" transform="translate(350.40625 0)"/>
      <use xlink:href="#ArialMT-3" transform="translate(404.5625 0)"/>
      <use xlink:href="#ArialMT-261" transform="translate(432.34375 0)"/>
      <use xlink:href="#ArialMT-25a" transform="translate(478.1875 0)"/>
      <use xlink:href="#ArialMT-25d" transform="translate(533.796875 0)"/>
      <use xlink:href="#ArialMT-25a" transform="translate(568.0625 0)"/>
      <use xlink:href="#ArialMT-265" transform="translate(623.671875 0)"/>
      <use xlink:href="#ArialMT-276" transform="translate(682.015625 0)"/>
      <use xlink:href="#ArialMT-267" transform="translate(734.109375 0)"/>
      <use xlink:href="#ArialMT-268" transform="translate(789.328125 0)"/>
      <use xlink:href="#ArialMT-268" transform="translate(844.9375 0)"/>
      <use xlink:href="#ArialMT-26b" transform="translate(900.546875 0)"/>
      <use xlink:href="#ArialMT-25c" transform="translate(950.546875 0)"/>
      <use xlink:href="#ArialMT-27f" transform="translate(1003.671875 0)"/>
      <use xlink:href="#ArialMT-26c" transform="translate(1025.890625 0)"/>
      <use xlink:href="#ArialMT-267" transform="translate(1071.6875 0)"/>
      <use xlink:href="#ArialMT-279" transform="translate(1126.90625 0)"/>
      <use xlink:href="#ArialMT-3" transform="translate(1181.0625 0)"/>
      <use xlink:href="#ArialMT-272" transform="translate(1208.84375 0)"/>
      <use xlink:href="#ArialMT-264" transform="translate(1289.0625 0)"/>
      <use xlink:href="#ArialMT-268" transform="translate(1333.9375 0)"/>
      <use xlink:href="#ArialMT-265" transform="translate(1387.34375 0)"/>
      <use xlink:href="#ArialMT-25a" transform="translate(1445.6875 0)"/>
     </g>
    </g>
    <g id="patch_13">
     <path d="M 517.999675 268.801898 
L 548.799675 268.801898 
L 548.799675 258.021898 
L 517.999675 258.021898 
z
" style="fill: #8fbcbb; stroke: #ffffff; stroke-linejoin: miter"/>
    </g>
    <g id="text_12">
     <!-- Інше -->
     <g style="fill: #262626" transform="translate(561.119675 268.801898) scale(0.154 -0.154)">
      <defs>
       <path id="ArialMT-231" d="M 597 0 
L 597 4581 
L 1203 4581 
L 1203 0 
L 597 0 
z
" transform="scale(0.015625)"/>
      </defs>
      <use xlink:href="#ArialMT-231"/>
      <use xlink:href="#ArialMT-267" transform="translate(27.78125 0)"/>
      <use xlink:href="#ArialMT-272" transform="translate(83 0)"/>
      <use xlink:href="#ArialMT-25f" transform="translate(163.21875 0)"/>
     </g>
    </g>
    <g id="patch_14">
     <path d="M 517.999675 290.954437 
L 548.799675 290.954437 
L 548.799675 280.174437 
L 517.999675 280.174437 
z
" style="fill: #ebcb8b; stroke: #ffffff; stroke-linejoin: miter"/>
    </g>
    <g id="text_13">
     <!-- Заклад професійної освіти -->
     <g style="fill: #262626" transform="translate(561.119675 290.954437) scale(0.154 -0.154)">
      <use xlink:href="#ArialMT-241"/>
      <use xlink:href="#ArialMT-25a" transform="translate(60.40625 0)"/>
      <use xlink:href="#ArialMT-264" transform="translate(116.015625 0)"/>
      <use xlink:href="#ArialMT-265" transform="translate(160.890625 0)"/>
      <use xlink:href="#ArialMT-25a" transform="translate(219.234375 0)"/>
      <use xlink:href="#ArialMT-25e" transform="translate(274.84375 0)"/>
      <use xlink:href="#ArialMT-3" transform="translate(333.1875 0)"/>
      <use xlink:href="#ArialMT-269" transform="translate(360.96875 0)"/>
      <use xlink:href="#ArialMT-26a" transform="translate(415.125 0)"/>
      <use xlink:href="#ArialMT-268" transform="translate(470.734375 0)"/>
      <use xlink:href="#ArialMT-26e" transform="translate(526.34375 0)"/>
      <use xlink:href="#ArialMT-25f" transform="translate(608.625 0)"/>
      <use xlink:href="#ArialMT-26b" transform="translate(664.234375 0)"/>
      <use xlink:href="#ArialMT-27f" transform="translate(714.234375 0)"/>
      <use xlink:href="#ArialMT-263" transform="translate(736.453125 0)"/>
      <use xlink:href="#ArialMT-267" transform="translate(792.3125 0)"/>
      <use xlink:href="#ArialMT-268" transform="translate(847.53125 0)"/>
      <use xlink:href="#ArialMT-280" transform="translate(903.140625 0)"/>
      <use xlink:href="#ArialMT-3" transform="translate(930.921875 0)"/>
      <use xlink:href="#ArialMT-268" transform="translate(958.703125 0)"/>
      <use xlink:href="#ArialMT-26b" transform="translate(1014.3125 0)"/>
      <use xlink:href="#ArialMT-25c" transform="translate(1064.3125 0)"/>
      <use xlink:href="#ArialMT-27f" transform="translate(1117.4375 0)"/>
      <use xlink:href="#ArialMT-26c" transform="translate(1139.65625 0)"/>
      <use xlink:href="#ArialMT-262" transform="translate(1185.453125 0)"/>
     </g>
    </g>
    <g id="patch_15">
     <path d="M 517.999675 313.106977 
L 548.799675 313.106977 
L 548.799675 302.326977 
L 517.999675 302.326977 
z
" style="fill: #d08770; stroke: #ffffff; stroke-linejoin: miter"/>
    </g>
    <g id="text_14">
     <!-- Навчально-виховний комплекс -->
     <g style="fill: #262626" transform="translate(561.119675 313.106977) scale(0.154 -0.154)">
      <defs>
       <path id="ArialMT-247" d="M 513 0 
L 513 4581 
L 1119 4581 
L 1119 2700 
L 3500 2700 
L 3500 4581 
L 4106 4581 
L 4106 0 
L 3500 0 
L 3500 2159 
L 1119 2159 
L 1119 0 
L 513 0 
z
" transform="scale(0.015625)"/>
       <path id="ArialMT-10" d="M 203 1375 
L 203 1941 
L 1931 1941 
L 1931 1375 
L 203 1375 
z
" transform="scale(0.015625)"/>
      </defs>
      <use xlink:href="#ArialMT-247"/>
      <use xlink:href="#ArialMT-25a" transform="translate(72.21875 0)"/>
      <use xlink:href="#ArialMT-25c" transform="translate(127.828125 0)"/>
      <use xlink:href="#ArialMT-271" transform="translate(176.46875 0)"/>
      <use xlink:href="#ArialMT-25a" transform="translate(228.5625 0)"/>
      <use xlink:href="#ArialMT-265" transform="translate(284.171875 0)"/>
      <use xlink:href="#ArialMT-276" transform="translate(342.515625 0)"/>
      <use xlink:href="#ArialMT-267" transform="translate(394.609375 0)"/>
      <use xlink:href="#ArialMT-268" transform="translate(449.828125 0)"/>
      <use xlink:href="#ArialMT-10" transform="translate(505.4375 0)"/>
      <use xlink:href="#ArialMT-25c" transform="translate(538.734375 0)"/>
      <use xlink:href="#ArialMT-262" transform="translate(591.859375 0)"/>
      <use xlink:href="#ArialMT-26f" transform="translate(647.71875 0)"/>
      <use xlink:href="#ArialMT-268" transform="translate(696.59375 0)"/>
      <use xlink:href="#ArialMT-25c" transform="translate(752.203125 0)"/>
      <use xlink:href="#ArialMT-267" transform="translate(805.328125 0)"/>
      <use xlink:href="#ArialMT-262" transform="translate(860.546875 0)"/>
      <use xlink:href="#ArialMT-263" transform="translate(916.40625 0)"/>
      <use xlink:href="#ArialMT-3" transform="translate(972.265625 0)"/>
      <use xlink:href="#ArialMT-264" transform="translate(1000.046875 0)"/>
      <use xlink:href="#ArialMT-268" transform="translate(1044.921875 0)"/>
      <use xlink:href="#ArialMT-266" transform="translate(1100.53125 0)"/>
      <use xlink:href="#ArialMT-269" transform="translate(1169.28125 0)"/>
      <use xlink:href="#ArialMT-265" transform="translate(1223.4375 0)"/>
      <use xlink:href="#ArialMT-25f" transform="translate(1281.78125 0)"/>
      <use xlink:href="#ArialMT-264" transform="translate(1337.390625 0)"/>
      <use xlink:href="#ArialMT-26b" transform="translate(1382.265625 0)"/>
     </g>
    </g>
    <g id="patch_16">
     <path d="M 517.999675 335.259516 
L 548.799675 335.259516 
L 548.799675 324.479516 
L 517.999675 324.479516 
z
" style="fill: #bf616a; stroke: #ffffff; stroke-linejoin: miter"/>
    </g>
    <g id="text_15">
     <!-- Спеціалізована школа -->
     <g style="fill: #262626" transform="translate(561.119675 335.259516) scale(0.154 -0.154)">
      <use xlink:href="#ArialMT-24b"/>
      <use xlink:href="#ArialMT-269" transform="translate(72.21875 0)"/>
      <use xlink:href="#ArialMT-25f" transform="translate(126.375 0)"/>
      <use xlink:href="#ArialMT-270" transform="translate(181.984375 0)"/>
      <use xlink:href="#ArialMT-27f" transform="translate(239.265625 0)"/>
      <use xlink:href="#ArialMT-25a" transform="translate(261.484375 0)"/>
      <use xlink:href="#ArialMT-265" transform="translate(317.09375 0)"/>
      <use xlink:href="#ArialMT-27f" transform="translate(375.4375 0)"/>
      <use xlink:href="#ArialMT-261" transform="translate(397.65625 0)"/>
      <use xlink:href="#ArialMT-268" transform="translate(442.375 0)"/>
      <use xlink:href="#ArialMT-25c" transform="translate(497.984375 0)"/>
      <use xlink:href="#ArialMT-25a" transform="translate(549.984375 0)"/>
      <use xlink:href="#ArialMT-267" transform="translate(605.59375 0)"/>
      <use xlink:href="#ArialMT-25a" transform="translate(660.8125 0)"/>
      <use xlink:href="#ArialMT-3" transform="translate(716.421875 0)"/>
      <use xlink:href="#ArialMT-272" transform="translate(744.203125 0)"/>
      <use xlink:href="#ArialMT-264" transform="translate(824.421875 0)"/>
      <use xlink:href="#ArialMT-268" transform="translate(869.296875 0)"/>
      <use xlink:href="#ArialMT-265" transform="translate(922.703125 0)"/>
      <use xlink:href="#ArialMT-25a" transform="translate(981.046875 0)"/>
     </g>
    </g>
   </g>
  </g>
 </g>
</svg>
