<?xml version="1.0" encoding="utf-8" standalone="no"?>
<!DOCTYPE svg PUBLIC "-//W3C//DTD SVG 1.1//EN"
  "http://www.w3.org/Graphics/SVG/1.1/DTD/svg11.dtd">
<svg xmlns:xlink="http://www.w3.org/1999/xlink" width="1008pt" height="432pt" viewBox="0 0 1008 432" xmlns="http://www.w3.org/2000/svg" version="1.1">
 <metadata>
  <rdf:RDF xmlns:dc="http://purl.org/dc/elements/1.1/" xmlns:cc="http://creativecommons.org/ns#" xmlns:rdf="http://www.w3.org/1999/02/22-rdf-syntax-ns#">
   <cc:Work>
    <dc:type rdf:resource="http://purl.org/dc/dcmitype/StillImage"/>
    <dc:date>2026-06-28T18:11:15.991474</dc:date>
    <dc:format>image/svg+xml</dc:format>
    <dc:creator>
     <cc:Agent>
      <dc:title>Matplotlib v3.11.0, https://matplotlib.org/</dc:title>
     </cc:Agent>
    </dc:creator>
   </cc:Work>
  </rdf:RDF>
 </metadata>
 <defs>
  <style type="text/css">*{stroke-linejoin: round; stroke-linecap: butt}</style>
 </defs>
 <g id="figure_1">
  <g id="patch_1">
   <path d="M 0 432 
L 1008 432 
L 1008 0 
L 0 0 
z
" style="fill: #ffffff"/>
  </g>
  <g id="axes_1">
   <g id="patch_2">
    <path d="M 126 384.48 
L 907.2 384.48 
L 907.2 51.84 
L 126 51.84 
z
" style="fill: #ffffff"/>
   </g>
   <g id="matplotlib.axis_1">
    <g id="xtick_1">
     <g id="text_1">
      <!-- 0 -->
      <g style="fill: #262626" transform="translate(123.219531 398.760273) scale(0.1 -0.1)">
       <defs>
        <path id="ArialMT-13" d="M 266 2259 
Q 266 3072 433 3567 
Q 600 4063 929 4331 
Q 1259 4600 1759 4600 
Q 2128 4600 2406 4451 
Q 2684 4303 2865 4023 
Q 3047 3744 3150 3342 
Q 3253 2941 3253 2259 
Q 3253 1453 3087 958 
Q 2922 463 2592 192 
Q 2263 -78 1759 -78 
Q 1097 -78 719 397 
Q 266 969 266 2259 
z
M 844 2259 
Q 844 1131 1108 757 
Q 1372 384 1759 384 
Q 2147 384 2411 759 
Q 2675 1134 2675 2259 
Q 2675 3391 2411 3762 
Q 2147 4134 1753 4134 
Q 1366 4134 1134 3806 
Q 844 3388 844 2259 
z
" transform="scale(0.015625)"/>
       </defs>
       <use xlink:href="#ArialMT-13"/>
      </g>
     </g>
    </g>
    <g id="xtick_2">
     <g id="text_2">
      <!-- 200 -->
      <g style="fill: #262626" transform="translate(244.296892 398.760273) scale(0.1 -0.1)">
       <defs>
        <path id="ArialMT-15" d="M 3222 541 
L 3222 0 
L 194 0 
Q 188 203 259 391 
Q 375 700 629 1000 
Q 884 1300 1366 1694 
Q 2113 2306 2375 2664 
Q 2638 3022 2638 3341 
Q 2638 3675 2398 3904 
Q 2159 4134 1775 4134 
Q 1369 4134 1125 3890 
Q 881 3647 878 3216 
L 300 3275 
Q 359 3922 746 4261 
Q 1134 4600 1788 4600 
Q 2447 4600 2831 4234 
Q 3216 3869 3216 3328 
Q 3216 3053 3103 2787 
Q 2991 2522 2730 2228 
Q 2469 1934 1863 1422 
Q 1356 997 1212 845 
Q 1069 694 975 541 
L 3222 541 
z
" transform="scale(0.015625)"/>
       </defs>
       <use xlink:href="#ArialMT-15"/>
       <use xlink:href="#ArialMT-13" transform="translate(55.609375 0)"/>
       <use xlink:href="#ArialMT-13" transform="translate(111.21875 0)"/>
      </g>
     </g>
    </g>
    <g id="xtick_3">
     <g id="text_3">
      <!-- 400 -->
      <g style="fill: #262626" transform="translate(370.935189 398.760273) scale(0.1 -0.1)">
       <defs>
        <path id="ArialMT-17" d="M 2069 0 
L 2069 1097 
L 81 1097 
L 81 1613 
L 2172 4581 
L 2631 4581 
L 2631 1613 
L 3250 1613 
L 3250 1097 
L 2631 1097 
L 2631 0 
L 2069 0 
z
M 2069 1613 
L 2069 3678 
L 634 1613 
L 2069 1613 
z
" transform="scale(0.015625)"/>
       </defs>
       <use xlink:href="#ArialMT-17"/>
       <use xlink:href="#ArialMT-13" transform="translate(55.609375 0)"/>
       <use xlink:href="#ArialMT-13" transform="translate(111.21875 0)"/>
      </g>
     </g>
    </g>
    <g id="xtick_4">
     <g id="text_4">
      <!-- 600 -->
      <g style="fill: #262626" transform="translate(497.573487 398.760273) scale(0.1 -0.1)">
       <defs>
        <path id="ArialMT-19" d="M 3184 3459 
L 2625 3416 
Q 2550 3747 2413 3897 
Q 2184 4138 1850 4138 
Q 1581 4138 1378 3988 
Q 1113 3794 959 3422 
Q 806 3050 800 2363 
Q 1003 2672 1297 2822 
Q 1591 2972 1913 2972 
Q 2475 2972 2870 2558 
Q 3266 2144 3266 1488 
Q 3266 1056 3080 686 
Q 2894 316 2569 119 
Q 2244 -78 1831 -78 
Q 1128 -78 684 439 
Q 241 956 241 2144 
Q 241 3472 731 4075 
Q 1159 4600 1884 4600 
Q 2425 4600 2770 4297 
Q 3116 3994 3184 3459 
z
M 888 1484 
Q 888 1194 1011 928 
Q 1134 663 1356 523 
Q 1578 384 1822 384 
Q 2178 384 2434 671 
Q 2691 959 2691 1453 
Q 2691 1928 2437 2201 
Q 2184 2475 1800 2475 
Q 1419 2475 1153 2201 
Q 888 1928 888 1484 
z
" transform="scale(0.015625)"/>
       </defs>
       <use xlink:href="#ArialMT-19"/>
       <use xlink:href="#ArialMT-13" transform="translate(55.609375 0)"/>
       <use xlink:href="#ArialMT-13" transform="translate(111.21875 0)"/>
      </g>
     </g>
    </g>
    <g id="xtick_5">
     <g id="text_5">
      <!-- 800 -->
      <g style="fill: #262626" transform="translate(624.211785 398.760273) scale(0.1 -0.1)">
       <defs>
        <path id="ArialMT-1b" d="M 1131 2484 
Q 781 2613 612 2850 
Q 444 3088 444 3419 
Q 444 3919 803 4259 
Q 1163 4600 1759 4600 
Q 2359 4600 2725 4251 
Q 3091 3903 3091 3403 
Q 3091 3084 2923 2848 
Q 2756 2613 2416 2484 
Q 2838 2347 3058 2040 
Q 3278 1734 3278 1309 
Q 3278 722 2862 322 
Q 2447 -78 1769 -78 
Q 1091 -78 675 323 
Q 259 725 259 1325 
Q 259 1772 486 2073 
Q 713 2375 1131 2484 
z
M 1019 3438 
Q 1019 3113 1228 2906 
Q 1438 2700 1772 2700 
Q 2097 2700 2305 2904 
Q 2513 3109 2513 3406 
Q 2513 3716 2298 3927 
Q 2084 4138 1766 4138 
Q 1444 4138 1231 3931 
Q 1019 3725 1019 3438 
z
M 838 1322 
Q 838 1081 952 856 
Q 1066 631 1291 507 
Q 1516 384 1775 384 
Q 2178 384 2440 643 
Q 2703 903 2703 1303 
Q 2703 1709 2433 1975 
Q 2163 2241 1756 2241 
Q 1359 2241 1098 1978 
Q 838 1716 838 1322 
z
" transform="scale(0.015625)"/>
       </defs>
       <use xlink:href="#ArialMT-1b"/>
       <use xlink:href="#ArialMT-13" transform="translate(55.609375 0)"/>
       <use xlink:href="#ArialMT-13" transform="translate(111.21875 0)"/>
      </g>
     </g>
    </g>
    <g id="xtick_6">
     <g id="text_6">
      <!-- 1000 -->
      <g style="fill: #262626" transform="translate(748.069614 398.760273) scale(0.1 -0.1)">
       <defs>
        <path id="ArialMT-14" d="M 2384 0 
L 1822 0 
L 1822 3584 
Q 1619 3391 1289 3197 
Q 959 3003 697 2906 
L 697 3450 
Q 1169 3672 1522 3987 
Q 1875 4303 2022 4600 
L 2384 4600 
L 2384 0 
z
" transform="scale(0.015625)"/>
       </defs>
       <use xlink:href="#ArialMT-14"/>
       <use xlink:href="#ArialMT-13" transform="translate(55.609375 0)"/>
       <use xlink:href="#ArialMT-13" transform="translate(111.21875 0)"/>
       <use xlink:href="#ArialMT-13" transform="translate(166.828125 0)"/>
      </g>
     </g>
    </g>
    <g id="xtick_7">
     <g id="text_7">
      <!-- 1200 -->
      <g style="fill: #262626" transform="translate(874.707912 398.760273) scale(0.1 -0.1)">
       <use xlink:href="#ArialMT-14"/>
       <use xlink:href="#ArialMT-15" transform="translate(55.609375 0)"/>
       <use xlink:href="#ArialMT-13" transform="translate(111.21875 0)"/>
       <use xlink:href="#ArialMT-13" transform="translate(166.828125 0)"/>
      </g>
     </g>
    </g>
   </g>
   <g id="matplotlib.axis_2">
    <g id="ytick_1">
     <g id="text_8">
      <!-- Математика -->
      <g style="fill: #262626" transform="translate(62.651562 69.340137) scale(0.1 -0.1)">
       <defs>
        <path id="ArialMT-246" d="M 475 0 
L 475 4581 
L 1388 4581 
L 2472 1338 
Q 2622 884 2691 659 
Q 2769 909 2934 1394 
L 4031 4581 
L 4847 4581 
L 4847 0 
L 4263 0 
L 4263 3834 
L 2931 0 
L 2384 0 
L 1059 3900 
L 1059 0 
L 475 0 
z
" transform="scale(0.015625)"/>
        <path id="ArialMT-25a" d="M 2588 409 
Q 2275 144 1986 34 
Q 1697 -75 1366 -75 
Q 819 -75 525 192 
Q 231 459 231 875 
Q 231 1119 342 1320 
Q 453 1522 633 1644 
Q 813 1766 1038 1828 
Q 1203 1872 1538 1913 
Q 2219 1994 2541 2106 
Q 2544 2222 2544 2253 
Q 2544 2597 2384 2738 
Q 2169 2928 1744 2928 
Q 1347 2928 1158 2789 
Q 969 2650 878 2297 
L 328 2372 
Q 403 2725 575 2942 
Q 747 3159 1072 3276 
Q 1397 3394 1825 3394 
Q 2250 3394 2515 3294 
Q 2781 3194 2906 3042 
Q 3031 2891 3081 2659 
Q 3109 2516 3109 2141 
L 3109 1391 
Q 3109 606 3145 398 
Q 3181 191 3288 0 
L 2700 0 
Q 2613 175 2588 409 
z
M 2541 1666 
Q 2234 1541 1622 1453 
Q 1275 1403 1131 1340 
Q 988 1278 909 1158 
Q 831 1038 831 891 
Q 831 666 1001 516 
Q 1172 366 1500 366 
Q 1825 366 2078 508 
Q 2331 650 2450 897 
Q 2541 1088 2541 1459 
L 2541 1666 
z
" transform="scale(0.015625)"/>
        <path id="ArialMT-26c" d="M 119 3319 
L 2816 3319 
L 2816 2853 
L 1747 2853 
L 1747 0 
L 1188 0 
L 1188 2853 
L 119 2853 
L 119 3319 
z
" transform="scale(0.015625)"/>
        <path id="ArialMT-25f" d="M 2694 1069 
L 3275 997 
Q 3138 488 2766 206 
Q 2394 -75 1816 -75 
Q 1088 -75 661 373 
Q 234 822 234 1631 
Q 234 2469 665 2931 
Q 1097 3394 1784 3394 
Q 2450 3394 2872 2941 
Q 3294 2488 3294 1666 
Q 3294 1616 3291 1516 
L 816 1516 
Q 847 969 1125 678 
Q 1403 388 1819 388 
Q 2128 388 2347 550 
Q 2566 713 2694 1069 
z
M 847 1978 
L 2700 1978 
Q 2663 2397 2488 2606 
Q 2219 2931 1791 2931 
Q 1403 2931 1139 2672 
Q 875 2413 847 1978 
z
" transform="scale(0.015625)"/>
        <path id="ArialMT-266" d="M 438 3319 
L 1313 3319 
L 2184 663 
L 3153 3319 
L 3963 3319 
L 3963 0 
L 3400 0 
L 3400 2672 
L 2419 0 
L 1916 0 
L 988 2800 
L 988 0 
L 438 0 
L 438 3319 
z
" transform="scale(0.015625)"/>
        <path id="ArialMT-262" d="M 422 3319 
L 984 3319 
L 984 788 
L 2544 3319 
L 3150 3319 
L 3150 0 
L 2588 0 
L 2588 2516 
L 1028 0 
L 422 0 
L 422 3319 
z
" transform="scale(0.015625)"/>
        <path id="ArialMT-264" d="M 419 3319 
L 981 3319 
L 981 1884 
Q 1250 1884 1358 1987 
Q 1466 2091 1675 2588 
Q 1841 2981 1944 3106 
Q 2047 3231 2181 3275 
Q 2316 3319 2613 3319 
L 2725 3319 
L 2725 2853 
L 2569 2856 
Q 2347 2856 2284 2791 
Q 2219 2722 2084 2381 
Q 1956 2056 1850 1931 
Q 1744 1806 1522 1703 
Q 1884 1606 2234 1028 
L 2850 0 
L 2231 0 
L 1631 1028 
Q 1447 1338 1309 1436 
Q 1172 1534 981 1534 
L 981 0 
L 419 0 
L 419 3319 
z
" transform="scale(0.015625)"/>
       </defs>
       <use xlink:href="#ArialMT-246"/>
       <use xlink:href="#ArialMT-25a" transform="translate(84.421875 0)"/>
       <use xlink:href="#ArialMT-26c" transform="translate(137.828125 0)"/>
       <use xlink:href="#ArialMT-25f" transform="translate(182.5 0)"/>
       <use xlink:href="#ArialMT-266" transform="translate(238.109375 0)"/>
       <use xlink:href="#ArialMT-25a" transform="translate(306.859375 0)"/>
       <use xlink:href="#ArialMT-26c" transform="translate(360.265625 0)"/>
       <use xlink:href="#ArialMT-262" transform="translate(406.0625 0)"/>
       <use xlink:href="#ArialMT-264" transform="translate(461.921875 0)"/>
       <use xlink:href="#ArialMT-25a" transform="translate(507.875 0)"/>
      </g>
     </g>
    </g>
    <g id="ytick_2">
     <g id="text_9">
      <!-- Англійська мова -->
      <g style="fill: #262626" transform="translate(43.398438 97.060137) scale(0.1 -0.1)">
       <defs>
        <path id="ArialMT-23a" d="M -9 0 
L 1750 4581 
L 2403 4581 
L 4278 0 
L 3588 0 
L 3053 1388 
L 1138 1388 
L 634 0 
L -9 0 
z
M 1313 1881 
L 2866 1881 
L 2388 3150 
Q 2169 3728 2063 4100 
Q 1975 3659 1816 3225 
L 1313 1881 
z
" transform="scale(0.015625)"/>
        <path id="ArialMT-267" d="M 425 3319 
L 988 3319 
L 988 1938 
L 2547 1938 
L 2547 3319 
L 3109 3319 
L 3109 0 
L 2547 0 
L 2547 1472 
L 988 1472 
L 988 0 
L 425 0 
L 425 3319 
z
" transform="scale(0.015625)"/>
        <path id="ArialMT-25d" d="M 425 3319 
L 2334 3319 
L 2334 2853 
L 988 2853 
L 988 0 
L 425 0 
L 425 3319 
z
" transform="scale(0.015625)"/>
        <path id="ArialMT-265" d="M 697 3319 
L 3309 3319 
L 3309 0 
L 2750 0 
L 2750 2853 
L 1259 2853 
L 1259 1200 
Q 1259 622 1221 437 
Q 1184 253 1015 115 
Q 847 -22 528 -22 
Q 331 -22 75 3 
L 75 472 
L 322 472 
Q 497 472 572 508 
Q 647 544 672 622 
Q 697 700 697 1131 
L 697 3319 
z
" transform="scale(0.015625)"/>
        <path id="ArialMT-27f" d="M 425 3934 
L 425 4581 
L 988 4581 
L 988 3934 
L 425 3934 
z
M 425 0 
L 425 3319 
L 988 3319 
L 988 0 
L 425 0 
z
" transform="scale(0.015625)"/>
        <path id="ArialMT-263" d="M 422 3319 
L 984 3319 
L 984 788 
L 2544 3319 
L 3150 3319 
L 3150 0 
L 2588 0 
L 2588 2516 
L 1028 0 
L 422 0 
L 422 3319 
z
M 2375 4575 
L 2760 4575 
Q 2713 4184 2474 3975 
Q 2235 3766 1838 3766 
Q 1438 3766 1199 3973 
Q 960 4181 913 4575 
L 1297 4575 
Q 1341 4363 1470 4258 
Q 1600 4153 1819 4153 
Q 2072 4153 2202 4254 
Q 2332 4356 2375 4575 
z
" transform="scale(0.015625)"/>
        <path id="ArialMT-26b" d="M 2588 1216 
L 3141 1144 
Q 3050 572 2676 248 
Q 2303 -75 1759 -75 
Q 1078 -75 664 370 
Q 250 816 250 1647 
Q 250 2184 428 2587 
Q 606 2991 970 3192 
Q 1334 3394 1763 3394 
Q 2303 3394 2647 3120 
Q 2991 2847 3088 2344 
L 2541 2259 
Q 2463 2594 2264 2762 
Q 2066 2931 1784 2931 
Q 1359 2931 1093 2626 
Q 828 2322 828 1663 
Q 828 994 1084 691 
Q 1341 388 1753 388 
Q 2084 388 2306 591 
Q 2528 794 2588 1216 
z
" transform="scale(0.015625)"/>
        <path id="ArialMT-276" d="M 413 3319 
L 975 3319 
L 975 2022 
L 1688 2022 
Q 2384 2022 2761 1751 
Q 3138 1481 3138 1006 
Q 3138 591 2823 295 
Q 2509 0 1819 0 
L 413 0 
L 413 3319 
z
M 975 463 
L 1566 463 
Q 2100 463 2328 594 
Q 2556 725 2556 1003 
Q 2556 1219 2387 1387 
Q 2219 1556 1641 1556 
L 975 1556 
L 975 463 
z
" transform="scale(0.015625)"/>
        <path id="ArialMT-3" transform="scale(0.015625)"/>
        <path id="ArialMT-268" d="M 213 1659 
Q 213 2581 725 3025 
Q 1153 3394 1769 3394 
Q 2453 3394 2887 2945 
Q 3322 2497 3322 1706 
Q 3322 1066 3130 698 
Q 2938 331 2570 128 
Q 2203 -75 1769 -75 
Q 1072 -75 642 372 
Q 213 819 213 1659 
z
M 791 1659 
Q 791 1022 1069 705 
Q 1347 388 1769 388 
Q 2188 388 2466 706 
Q 2744 1025 2744 1678 
Q 2744 2294 2464 2611 
Q 2184 2928 1769 2928 
Q 1347 2928 1069 2612 
Q 791 2297 791 1659 
z
" transform="scale(0.015625)"/>
        <path id="ArialMT-25c" d="M 425 3319 
L 1722 3319 
Q 2200 3319 2433 3239 
Q 2666 3159 2833 2946 
Q 3000 2734 3000 2438 
Q 3000 2200 2901 2023 
Q 2803 1847 2606 1728 
Q 2841 1650 2995 1436 
Q 3150 1222 3150 928 
Q 3119 456 2812 228 
Q 2506 0 1922 0 
L 425 0 
L 425 3319 
z
M 988 1922 
L 1588 1922 
Q 1947 1922 2081 1959 
Q 2216 1997 2322 2111 
Q 2428 2225 2428 2384 
Q 2428 2647 2242 2750 
Q 2056 2853 1606 2853 
L 988 2853 
L 988 1922 
z
M 988 463 
L 1728 463 
Q 2206 463 2384 573 
Q 2563 684 2572 956 
Q 2572 1116 2469 1252 
Q 2366 1388 2200 1423 
Q 2034 1459 1669 1459 
L 988 1459 
L 988 463 
z
" transform="scale(0.015625)"/>
       </defs>
       <use xlink:href="#ArialMT-23a"/>
       <use xlink:href="#ArialMT-267" transform="translate(66.703125 0)"/>
       <use xlink:href="#ArialMT-25d" transform="translate(121.921875 0)"/>
       <use xlink:href="#ArialMT-265" transform="translate(156.1875 0)"/>
       <use xlink:href="#ArialMT-27f" transform="translate(214.53125 0)"/>
       <use xlink:href="#ArialMT-263" transform="translate(236.75 0)"/>
       <use xlink:href="#ArialMT-26b" transform="translate(292.609375 0)"/>
       <use xlink:href="#ArialMT-276" transform="translate(342.609375 0)"/>
       <use xlink:href="#ArialMT-264" transform="translate(394.703125 0)"/>
       <use xlink:href="#ArialMT-25a" transform="translate(440.65625 0)"/>
       <use xlink:href="#ArialMT-3" transform="translate(496.265625 0)"/>
       <use xlink:href="#ArialMT-266" transform="translate(524.046875 0)"/>
       <use xlink:href="#ArialMT-268" transform="translate(592.796875 0)"/>
       <use xlink:href="#ArialMT-25c" transform="translate(648.40625 0)"/>
       <use xlink:href="#ArialMT-25a" transform="translate(700.40625 0)"/>
      </g>
     </g>
    </g>
    <g id="ytick_3">
     <g id="text_10">
      <!-- Українська мова -->
      <g style="fill: #262626" transform="translate(42.957813 124.780137) scale(0.1 -0.1)">
       <defs>
        <path id="ArialMT-24d" d="M 31 4581 
L 644 4581 
L 2138 1775 
L 3444 4581 
L 4047 4581 
L 2328 1019 
Q 2006 350 1800 143 
Q 1594 -63 1209 -63 
Q 975 -63 634 47 
L 634 566 
Q 878 425 1150 425 
Q 1372 425 1533 567 
Q 1694 709 1888 1216 
L 31 4581 
z
" transform="scale(0.015625)"/>
        <path id="ArialMT-26a" d="M 422 -1272 
L 422 3319 
L 934 3319 
L 934 2888 
Q 1116 3141 1344 3267 
Q 1572 3394 1897 3394 
Q 2322 3394 2647 3175 
Q 2972 2956 3137 2557 
Q 3303 2159 3303 1684 
Q 3303 1175 3120 767 
Q 2938 359 2589 142 
Q 2241 -75 1856 -75 
Q 1575 -75 1351 44 
Q 1128 163 984 344 
L 984 -1272 
L 422 -1272 
z
M 931 1641 
Q 931 1000 1190 694 
Q 1450 388 1819 388 
Q 2194 388 2461 705 
Q 2728 1022 2728 1688 
Q 2728 2322 2467 2637 
Q 2206 2953 1844 2953 
Q 1484 2953 1207 2617 
Q 931 2281 931 1641 
z
" transform="scale(0.015625)"/>
        <path id="ArialMT-280" d="M 619 0 
L 619 3319 
L 1181 3319 
L 1181 0 
L 619 0 
z
M 28 3969 
L 28 4609 
L 615 4609 
L 615 3969 
L 28 3969 
z
M 1193 3969 
L 1193 4609 
L 1781 4609 
L 1781 3969 
L 1193 3969 
z
" transform="scale(0.015625)"/>
       </defs>
       <use xlink:href="#ArialMT-24d"/>
       <use xlink:href="#ArialMT-264" transform="translate(59.046875 0)"/>
       <use xlink:href="#ArialMT-26a" transform="translate(102.796875 0)"/>
       <use xlink:href="#ArialMT-25a" transform="translate(158.40625 0)"/>
       <use xlink:href="#ArialMT-280" transform="translate(214.015625 0)"/>
       <use xlink:href="#ArialMT-267" transform="translate(241.796875 0)"/>
       <use xlink:href="#ArialMT-26b" transform="translate(297.015625 0)"/>
       <use xlink:href="#ArialMT-276" transform="translate(347.015625 0)"/>
       <use xlink:href="#ArialMT-264" transform="translate(399.109375 0)"/>
       <use xlink:href="#ArialMT-25a" transform="translate(445.0625 0)"/>
       <use xlink:href="#ArialMT-3" transform="translate(500.671875 0)"/>
       <use xlink:href="#ArialMT-266" transform="translate(528.453125 0)"/>
       <use xlink:href="#ArialMT-268" transform="translate(597.203125 0)"/>
       <use xlink:href="#ArialMT-25c" transform="translate(652.8125 0)"/>
       <use xlink:href="#ArialMT-25a" transform="translate(704.8125 0)"/>
      </g>
     </g>
    </g>
    <g id="ytick_4">
     <g id="text_11">
      <!-- Історія України -->
      <g style="fill: #262626" transform="translate(49.929688 152.500137) scale(0.1 -0.1)">
       <defs>
        <path id="ArialMT-231" d="M 597 0 
L 597 4581 
L 1203 4581 
L 1203 0 
L 597 0 
z
" transform="scale(0.015625)"/>
        <path id="ArialMT-279" d="M 3034 3319 
L 3034 0 
L 2475 0 
L 2475 1294 
L 2150 1294 
Q 1853 1294 1708 1217 
Q 1563 1141 1284 725 
L 794 0 
L 97 0 
L 703 894 
Q 981 1303 1256 1356 
Q 775 1422 542 1703 
Q 309 1984 309 2350 
Q 309 2781 614 3050 
Q 919 3319 1497 3319 
L 3034 3319 
z
M 2475 2853 
L 1675 2853 
Q 1172 2853 1026 2697 
Q 881 2541 881 2331 
Q 881 2034 1095 1895 
Q 1309 1756 1853 1756 
L 2475 1756 
L 2475 2853 
z
" transform="scale(0.015625)"/>
       </defs>
       <use xlink:href="#ArialMT-231"/>
       <use xlink:href="#ArialMT-26b" transform="translate(27.78125 0)"/>
       <use xlink:href="#ArialMT-26c" transform="translate(77.78125 0)"/>
       <use xlink:href="#ArialMT-268" transform="translate(122.453125 0)"/>
       <use xlink:href="#ArialMT-26a" transform="translate(178.0625 0)"/>
       <use xlink:href="#ArialMT-27f" transform="translate(233.671875 0)"/>
       <use xlink:href="#ArialMT-279" transform="translate(255.890625 0)"/>
       <use xlink:href="#ArialMT-3" transform="translate(310.046875 0)"/>
       <use xlink:href="#ArialMT-24d" transform="translate(337.828125 0)"/>
       <use xlink:href="#ArialMT-264" transform="translate(396.875 0)"/>
       <use xlink:href="#ArialMT-26a" transform="translate(440.625 0)"/>
       <use xlink:href="#ArialMT-25a" transform="translate(496.234375 0)"/>
       <use xlink:href="#ArialMT-280" transform="translate(551.84375 0)"/>
       <use xlink:href="#ArialMT-267" transform="translate(579.625 0)"/>
       <use xlink:href="#ArialMT-262" transform="translate(634.84375 0)"/>
      </g>
     </g>
    </g>
    <g id="ytick_5">
     <g id="text_12">
      <!-- Українська література -->
      <g style="fill: #262626" transform="translate(16.467187 180.220137) scale(0.1 -0.1)">
       <defs>
        <path id="ArialMT-26d" d="M 397 -1278 
L 334 -750 
Q 519 -800 656 -800 
Q 844 -800 956 -737 
Q 1069 -675 1141 -563 
Q 1194 -478 1313 -144 
Q 1328 -97 1363 -6 
L 103 3319 
L 709 3319 
L 1400 1397 
Q 1534 1031 1641 628 
Q 1738 1016 1872 1384 
L 2581 3319 
L 3144 3319 
L 1881 -56 
Q 1678 -603 1566 -809 
Q 1416 -1088 1222 -1217 
Q 1028 -1347 759 -1347 
Q 597 -1347 397 -1278 
z
" transform="scale(0.015625)"/>
       </defs>
       <use xlink:href="#ArialMT-24d"/>
       <use xlink:href="#ArialMT-264" transform="translate(59.046875 0)"/>
       <use xlink:href="#ArialMT-26a" transform="translate(102.796875 0)"/>
       <use xlink:href="#ArialMT-25a" transform="translate(158.40625 0)"/>
       <use xlink:href="#ArialMT-280" transform="translate(214.015625 0)"/>
       <use xlink:href="#ArialMT-267" transform="translate(241.796875 0)"/>
       <use xlink:href="#ArialMT-26b" transform="translate(297.015625 0)"/>
       <use xlink:href="#ArialMT-276" transform="translate(347.015625 0)"/>
       <use xlink:href="#ArialMT-264" transform="translate(399.109375 0)"/>
       <use xlink:href="#ArialMT-25a" transform="translate(445.0625 0)"/>
       <use xlink:href="#ArialMT-3" transform="translate(500.671875 0)"/>
       <use xlink:href="#ArialMT-265" transform="translate(528.453125 0)"/>
       <use xlink:href="#ArialMT-27f" transform="translate(586.796875 0)"/>
       <use xlink:href="#ArialMT-26c" transform="translate(609.015625 0)"/>
       <use xlink:href="#ArialMT-25f" transform="translate(653.6875 0)"/>
       <use xlink:href="#ArialMT-26a" transform="translate(709.296875 0)"/>
       <use xlink:href="#ArialMT-25a" transform="translate(764.90625 0)"/>
       <use xlink:href="#ArialMT-26c" transform="translate(818.3125 0)"/>
       <use xlink:href="#ArialMT-26d" transform="translate(865.234375 0)"/>
       <use xlink:href="#ArialMT-26a" transform="translate(914.109375 0)"/>
       <use xlink:href="#ArialMT-25a" transform="translate(969.71875 0)"/>
      </g>
     </g>
    </g>
    <g id="ytick_6">
     <g id="text_13">
      <!-- Біологія -->
      <g style="fill: #262626" transform="translate(82.082812 207.940137) scale(0.1 -0.1)">
       <defs>
        <path id="ArialMT-23b" d="M 522 4581 
L 3494 4581 
L 3494 4041 
L 1128 4041 
L 1128 2628 
L 2222 2628 
Q 2828 2628 3186 2512 
Q 3544 2397 3759 2076 
Q 3975 1756 3975 1331 
Q 3975 984 3820 682 
Q 3666 381 3359 190 
Q 3053 0 2316 0 
L 522 0 
L 522 4581 
z
M 1128 516 
L 2341 516 
Q 2831 516 3076 716 
Q 3322 916 3322 1316 
Q 3322 1600 3181 1790 
Q 3041 1981 2791 2043 
Q 2541 2106 1938 2106 
L 1128 2106 
L 1128 516 
z
" transform="scale(0.015625)"/>
       </defs>
       <use xlink:href="#ArialMT-23b"/>
       <use xlink:href="#ArialMT-27f" transform="translate(65.625 0)"/>
       <use xlink:href="#ArialMT-268" transform="translate(87.84375 0)"/>
       <use xlink:href="#ArialMT-265" transform="translate(141.25 0)"/>
       <use xlink:href="#ArialMT-268" transform="translate(200.71875 0)"/>
       <use xlink:href="#ArialMT-25d" transform="translate(256.328125 0)"/>
       <use xlink:href="#ArialMT-27f" transform="translate(292.796875 0)"/>
       <use xlink:href="#ArialMT-279" transform="translate(315.015625 0)"/>
      </g>
     </g>
    </g>
    <g id="ytick_7">
     <g id="text_14">
      <!-- Німецька мова -->
      <g style="fill: #262626" transform="translate(50.051563 235.660137) scale(0.1 -0.1)">
       <defs>
        <path id="ArialMT-247" d="M 513 0 
L 513 4581 
L 1119 4581 
L 1119 2700 
L 3500 2700 
L 3500 4581 
L 4106 4581 
L 4106 0 
L 3500 0 
L 3500 2159 
L 1119 2159 
L 1119 0 
L 513 0 
z
" transform="scale(0.015625)"/>
        <path id="ArialMT-270" d="M 431 3319 
L 994 3319 
L 994 463 
L 2550 463 
L 2550 3319 
L 3113 3319 
L 3113 463 
L 3475 463 
L 3475 -941 
L 3013 -941 
L 3013 0 
L 431 0 
L 431 3319 
z
" transform="scale(0.015625)"/>
       </defs>
       <use xlink:href="#ArialMT-247"/>
       <use xlink:href="#ArialMT-27f" transform="translate(72.21875 0)"/>
       <use xlink:href="#ArialMT-266" transform="translate(94.4375 0)"/>
       <use xlink:href="#ArialMT-25f" transform="translate(163.1875 0)"/>
       <use xlink:href="#ArialMT-270" transform="translate(218.796875 0)"/>
       <use xlink:href="#ArialMT-276" transform="translate(276.078125 0)"/>
       <use xlink:href="#ArialMT-264" transform="translate(328.171875 0)"/>
       <use xlink:href="#ArialMT-25a" transform="translate(374.125 0)"/>
       <use xlink:href="#ArialMT-3" transform="translate(429.734375 0)"/>
       <use xlink:href="#ArialMT-266" transform="translate(457.515625 0)"/>
       <use xlink:href="#ArialMT-268" transform="translate(526.265625 0)"/>
       <use xlink:href="#ArialMT-25c" transform="translate(581.875 0)"/>
       <use xlink:href="#ArialMT-25a" transform="translate(633.875 0)"/>
      </g>
     </g>
    </g>
    <g id="ytick_8">
     <g id="text_15">
      <!-- Фізика -->
      <g style="fill: #262626" transform="translate(88.848438 263.380137) scale(0.1 -0.1)">
       <defs>
        <path id="ArialMT-24e" d="M 2150 4031 
L 2150 4619 
L 2719 4619 
L 2719 4031 
Q 3594 3984 4100 3504 
Q 4606 3025 4606 2313 
Q 4606 1616 4115 1128 
Q 3625 641 2719 591 
L 2719 0 
L 2150 0 
L 2150 591 
Q 1338 622 797 1086 
Q 256 1550 256 2313 
Q 256 3078 795 3537 
Q 1334 3997 2150 4031 
z
M 2719 3513 
L 2719 1113 
Q 3306 1141 3643 1453 
Q 3981 1766 3981 2313 
Q 3981 2850 3650 3164 
Q 3319 3478 2719 3513 
z
M 2150 3509 
Q 1584 3484 1234 3175 
Q 884 2866 884 2313 
Q 884 1766 1229 1453 
Q 1575 1141 2150 1116 
L 2150 3509 
z
" transform="scale(0.015625)"/>
        <path id="ArialMT-261" d="M 1156 1500 
L 1156 1941 
Q 1513 1944 1642 1969 
Q 1772 1994 1887 2119 
Q 2003 2244 2003 2431 
Q 2003 2659 1851 2795 
Q 1700 2931 1459 2931 
Q 984 2931 794 2372 
L 259 2459 
Q 509 3394 1466 3394 
Q 1997 3394 2298 3103 
Q 2600 2813 2600 2409 
Q 2600 2003 2206 1763 
Q 2456 1628 2581 1420 
Q 2706 1213 2706 928 
Q 2706 481 2381 203 
Q 2056 -75 1472 -75 
Q 338 -75 156 934 
L 684 1047 
Q 756 728 976 553 
Q 1197 378 1481 378 
Q 1766 378 1955 539 
Q 2144 700 2144 950 
Q 2144 1144 2025 1287 
Q 1906 1431 1772 1467 
Q 1638 1503 1284 1503 
Q 1256 1503 1156 1500 
z
" transform="scale(0.015625)"/>
       </defs>
       <use xlink:href="#ArialMT-24e"/>
       <use xlink:href="#ArialMT-27f" transform="translate(76.03125 0)"/>
       <use xlink:href="#ArialMT-261" transform="translate(98.25 0)"/>
       <use xlink:href="#ArialMT-262" transform="translate(144.09375 0)"/>
       <use xlink:href="#ArialMT-264" transform="translate(199.953125 0)"/>
       <use xlink:href="#ArialMT-25a" transform="translate(245.90625 0)"/>
      </g>
     </g>
    </g>
    <g id="ytick_9">
     <g id="text_16">
      <!-- Хімія -->
      <g style="fill: #262626" transform="translate(95.595313 291.100137) scale(0.1 -0.1)">
       <defs>
        <path id="ArialMT-24f" d="M 28 0 
L 1800 2388 
L 238 4581 
L 959 4581 
L 1791 3406 
Q 2050 3041 2159 2844 
Q 2313 3094 2522 3366 
L 3444 4581 
L 4103 4581 
L 2494 2422 
L 4228 0 
L 3478 0 
L 2325 1634 
Q 2228 1775 2125 1941 
Q 1972 1691 1906 1597 
L 756 0 
L 28 0 
z
" transform="scale(0.015625)"/>
       </defs>
       <use xlink:href="#ArialMT-24f"/>
       <use xlink:href="#ArialMT-27f" transform="translate(66.703125 0)"/>
       <use xlink:href="#ArialMT-266" transform="translate(88.921875 0)"/>
       <use xlink:href="#ArialMT-27f" transform="translate(157.671875 0)"/>
       <use xlink:href="#ArialMT-279" transform="translate(179.890625 0)"/>
      </g>
     </g>
    </g>
    <g id="ytick_10">
     <g id="text_17">
      <!-- Іспанська мова -->
      <g style="fill: #262626" transform="translate(48.382812 318.820137) scale(0.1 -0.1)">
       <defs>
        <path id="ArialMT-269" d="M 425 3319 
L 3044 3319 
L 3044 0 
L 2481 0 
L 2481 2853 
L 988 2853 
L 988 0 
L 425 0 
L 425 3319 
z
" transform="scale(0.015625)"/>
       </defs>
       <use xlink:href="#ArialMT-231"/>
       <use xlink:href="#ArialMT-26b" transform="translate(27.78125 0)"/>
       <use xlink:href="#ArialMT-269" transform="translate(77.78125 0)"/>
       <use xlink:href="#ArialMT-25a" transform="translate(131.9375 0)"/>
       <use xlink:href="#ArialMT-267" transform="translate(187.546875 0)"/>
       <use xlink:href="#ArialMT-26b" transform="translate(242.765625 0)"/>
       <use xlink:href="#ArialMT-276" transform="translate(292.765625 0)"/>
       <use xlink:href="#ArialMT-264" transform="translate(344.859375 0)"/>
       <use xlink:href="#ArialMT-25a" transform="translate(390.8125 0)"/>
       <use xlink:href="#ArialMT-3" transform="translate(446.421875 0)"/>
       <use xlink:href="#ArialMT-266" transform="translate(474.203125 0)"/>
       <use xlink:href="#ArialMT-268" transform="translate(542.953125 0)"/>
       <use xlink:href="#ArialMT-25c" transform="translate(598.5625 0)"/>
       <use xlink:href="#ArialMT-25a" transform="translate(650.5625 0)"/>
      </g>
     </g>
    </g>
    <g id="ytick_11">
     <g id="text_18">
      <!-- Географія -->
      <g style="fill: #262626" transform="translate(72.496875 346.540137) scale(0.1 -0.1)">
       <defs>
        <path id="ArialMT-23d" d="M 503 4581 
L 3466 4581 
L 3466 4041 
L 1109 4041 
L 1109 0 
L 503 0 
L 503 4581 
z
" transform="scale(0.015625)"/>
        <path id="ArialMT-26e" d="M 2353 4581 
L 2916 4581 
L 2916 2997 
Q 3091 3197 3300 3295 
Q 3509 3394 3750 3394 
Q 4341 3394 4686 2901 
Q 5031 2409 5031 1663 
Q 5031 884 4659 404 
Q 4288 -75 3734 -75 
Q 3553 -75 3365 -18 
Q 3178 38 2916 288 
L 2916 -1272 
L 2353 -1272 
L 2353 288 
Q 2184 106 1979 15 
Q 1775 -75 1538 -75 
Q 1016 -75 625 383 
Q 234 841 234 1694 
Q 234 2416 587 2905 
Q 941 3394 1538 3394 
Q 1788 3394 1991 3295 
Q 2194 3197 2353 2997 
L 2353 4581 
z
M 2913 1647 
Q 2913 897 3119 639 
Q 3325 381 3634 381 
Q 3978 381 4220 698 
Q 4463 1016 4463 1684 
Q 4463 2316 4239 2625 
Q 4016 2934 3666 2934 
Q 3291 2934 3102 2612 
Q 2913 2291 2913 1647 
z
M 806 1709 
Q 806 1006 1042 697 
Q 1278 388 1628 388 
Q 1994 388 2175 695 
Q 2356 1003 2356 1619 
Q 2356 2275 2165 2603 
Q 1975 2931 1591 2931 
Q 1244 2931 1025 2611 
Q 806 2291 806 1709 
z
" transform="scale(0.015625)"/>
       </defs>
       <use xlink:href="#ArialMT-23d"/>
       <use xlink:href="#ArialMT-25f" transform="translate(47.46875 0)"/>
       <use xlink:href="#ArialMT-268" transform="translate(103.078125 0)"/>
       <use xlink:href="#ArialMT-25d" transform="translate(158.6875 0)"/>
       <use xlink:href="#ArialMT-26a" transform="translate(195.15625 0)"/>
       <use xlink:href="#ArialMT-25a" transform="translate(250.765625 0)"/>
       <use xlink:href="#ArialMT-26e" transform="translate(306.375 0)"/>
       <use xlink:href="#ArialMT-27f" transform="translate(388.65625 0)"/>
       <use xlink:href="#ArialMT-279" transform="translate(410.875 0)"/>
      </g>
     </g>
    </g>
    <g id="ytick_12">
     <g id="text_19">
      <!-- Французька мова -->
      <g style="fill: #262626" transform="translate(38.1 374.260137) scale(0.1 -0.1)">
       <use xlink:href="#ArialMT-24e"/>
       <use xlink:href="#ArialMT-26a" transform="translate(76.03125 0)"/>
       <use xlink:href="#ArialMT-25a" transform="translate(131.640625 0)"/>
       <use xlink:href="#ArialMT-267" transform="translate(187.25 0)"/>
       <use xlink:href="#ArialMT-270" transform="translate(242.46875 0)"/>
       <use xlink:href="#ArialMT-26d" transform="translate(299.75 0)"/>
       <use xlink:href="#ArialMT-261" transform="translate(349.75 0)"/>
       <use xlink:href="#ArialMT-276" transform="translate(395.59375 0)"/>
       <use xlink:href="#ArialMT-264" transform="translate(447.6875 0)"/>
       <use xlink:href="#ArialMT-25a" transform="translate(493.640625 0)"/>
       <use xlink:href="#ArialMT-3" transform="translate(549.25 0)"/>
       <use xlink:href="#ArialMT-266" transform="translate(577.03125 0)"/>
       <use xlink:href="#ArialMT-268" transform="translate(645.78125 0)"/>
       <use xlink:href="#ArialMT-25c" transform="translate(701.390625 0)"/>
       <use xlink:href="#ArialMT-25a" transform="translate(753.390625 0)"/>
      </g>
     </g>
    </g>
   </g>
   <g id="patch_3">
    <path d="M 126 54.612 
L 870 54.612 
L 870 76.788 
L 126 76.788 
z
" clip-path="url(#p8d58c23376)" style="fill: #3274a1; stroke: #ffffff; stroke-linejoin: miter"/>
   </g>
   <g id="patch_4">
    <path d="M 126 82.332 
L 627.48766 82.332 
L 627.48766 104.508 
L 126 104.508 
z
" clip-path="url(#p8d58c23376)" style="fill: #3274a1; stroke: #ffffff; stroke-linejoin: miter"/>
   </g>
   <g id="patch_5">
    <path d="M 126 110.052 
L 543.273191 110.052 
L 543.273191 132.228 
L 126 132.228 
z
" clip-path="url(#p8d58c23376)" style="fill: #3274a1; stroke: #ffffff; stroke-linejoin: miter"/>
   </g>
   <g id="patch_6">
    <path d="M 126 137.772 
L 279.865532 137.772 
L 279.865532 159.948 
L 126 159.948 
z
" clip-path="url(#p8d58c23376)" style="fill: #3274a1; stroke: #ffffff; stroke-linejoin: miter"/>
   </g>
   <g id="patch_7">
    <path d="M 126 165.492 
L 169.057021 165.492 
L 169.057021 187.668 
L 126 187.668 
z
" clip-path="url(#p8d58c23376)" style="fill: #3274a1; stroke: #ffffff; stroke-linejoin: miter"/>
   </g>
   <g id="patch_8">
    <path d="M 126 193.212 
L 151.960851 193.212 
L 151.960851 215.388 
L 126 215.388 
z
" clip-path="url(#p8d58c23376)" style="fill: #3274a1; stroke: #ffffff; stroke-linejoin: miter"/>
   </g>
   <g id="patch_9">
    <path d="M 126 220.932 
L 147.528511 220.932 
L 147.528511 243.108 
L 126 243.108 
z
" clip-path="url(#p8d58c23376)" style="fill: #3274a1; stroke: #ffffff; stroke-linejoin: miter"/>
   </g>
   <g id="patch_10">
    <path d="M 126 248.652 
L 144.362553 248.652 
L 144.362553 270.828 
L 126 270.828 
z
" clip-path="url(#p8d58c23376)" style="fill: #3274a1; stroke: #ffffff; stroke-linejoin: miter"/>
   </g>
   <g id="patch_11">
    <path d="M 126 276.372 
L 135.497872 276.372 
L 135.497872 298.548 
L 126 298.548 
z
" clip-path="url(#p8d58c23376)" style="fill: #3274a1; stroke: #ffffff; stroke-linejoin: miter"/>
   </g>
   <g id="patch_12">
    <path d="M 126 304.092 
L 131.698723 304.092 
L 131.698723 326.268 
L 126 326.268 
z
" clip-path="url(#p8d58c23376)" style="fill: #3274a1; stroke: #ffffff; stroke-linejoin: miter"/>
   </g>
   <g id="patch_13">
    <path d="M 126 331.812 
L 126.633191 331.812 
L 126.633191 353.988 
L 126 353.988 
z
" clip-path="url(#p8d58c23376)" style="fill: #3274a1; stroke: #ffffff; stroke-linejoin: miter"/>
   </g>
   <g id="patch_14">
    <path d="M 126 359.532 
L 126 359.532 
L 126 381.708 
L 126 381.708 
z
" clip-path="url(#p8d58c23376)" style="fill: #3274a1; stroke: #ffffff; stroke-linejoin: miter"/>
   </g>
   <g id="line2d_1">
    <path clip-path="url(#p8d58c23376)" style="fill: none; stroke: #424242; stroke-width: 2.25; stroke-linecap: round"/>
   </g>
   <g id="line2d_2">
    <path clip-path="url(#p8d58c23376)" style="fill: none; stroke: #424242; stroke-width: 2.25; stroke-linecap: round"/>
   </g>
   <g id="line2d_3">
    <path clip-path="url(#p8d58c23376)" style="fill: none; stroke: #424242; stroke-width: 2.25; stroke-linecap: round"/>
   </g>
   <g id="line2d_4">
    <path clip-path="url(#p8d58c23376)" style="fill: none; stroke: #424242; stroke-width: 2.25; stroke-linecap: round"/>
   </g>
   <g id="line2d_5">
    <path clip-path="url(#p8d58c23376)" style="fill: none; stroke: #424242; stroke-width: 2.25; stroke-linecap: round"/>
   </g>
   <g id="line2d_6">
    <path clip-path="url(#p8d58c23376)" style="fill: none; stroke: #424242; stroke-width: 2.25; stroke-linecap: round"/>
   </g>
   <g id="line2d_7">
    <path clip-path="url(#p8d58c23376)" style="fill: none; stroke: #424242; stroke-width: 2.25; stroke-linecap: round"/>
   </g>
   <g id="line2d_8">
    <path clip-path="url(#p8d58c23376)" style="fill: none; stroke: #424242; stroke-width: 2.25; stroke-linecap: round"/>
   </g>
   <g id="line2d_9">
    <path clip-path="url(#p8d58c23376)" style="fill: none; stroke: #424242; stroke-width: 2.25; stroke-linecap: round"/>
   </g>
   <g id="line2d_10">
    <path clip-path="url(#p8d58c23376)" style="fill: none; stroke: #424242; stroke-width: 2.25; stroke-linecap: round"/>
   </g>
   <g id="line2d_11">
    <path clip-path="url(#p8d58c23376)" style="fill: none; stroke: #424242; stroke-width: 2.25; stroke-linecap: round"/>
   </g>
   <g id="line2d_12">
    <path clip-path="url(#p8d58c23376)" style="fill: none; stroke: #424242; stroke-width: 2.25; stroke-linecap: round"/>
   </g>
   <g id="patch_15">
    <path d="M 126 384.48 
L 126 51.84 
" style="fill: none; stroke: #262626; stroke-width: 0.8; stroke-linejoin: miter; stroke-linecap: square"/>
   </g>
   <g id="patch_16">
    <path d="M 907.2 384.48 
L 907.2 51.84 
" style="fill: none; stroke: #262626; stroke-width: 0.8; stroke-linejoin: miter; stroke-linecap: square"/>
   </g>
   <g id="patch_17">
    <path d="M 126 384.48 
L 907.2 384.48 
" style="fill: none; stroke: #262626; stroke-width: 0.8; stroke-linejoin: miter; stroke-linecap: square"/>
   </g>
   <g id="patch_18">
    <path d="M 126 51.84 
L 907.2 51.84 
" style="fill: none; stroke: #262626; stroke-width: 0.8; stroke-linejoin: miter; stroke-linecap: square"/>
   </g>
   <g id="text_20">
    <!-- НМТ 2025. Кількість двохсотбальних результатів за предметами -->
    <g style="fill: #262626" transform="translate(337.99875 41.84) scale(0.12 -0.12)">
     <defs>
      <path id="ArialMT-24c" d="M 1659 0 
L 1659 4041 
L 150 4041 
L 150 4581 
L 3781 4581 
L 3781 4041 
L 2266 4041 
L 2266 0 
L 1659 0 
z
" transform="scale(0.015625)"/>
      <path id="ArialMT-18" d="M 266 1200 
L 856 1250 
Q 922 819 1161 601 
Q 1400 384 1738 384 
Q 2144 384 2425 690 
Q 2706 997 2706 1503 
Q 2706 1984 2436 2262 
Q 2166 2541 1728 2541 
Q 1456 2541 1237 2417 
Q 1019 2294 894 2097 
L 366 2166 
L 809 4519 
L 3088 4519 
L 3088 3981 
L 1259 3981 
L 1013 2750 
Q 1425 3038 1878 3038 
Q 2478 3038 2890 2622 
Q 3303 2206 3303 1553 
Q 3303 931 2941 478 
Q 2500 -78 1738 -78 
Q 1113 -78 717 272 
Q 322 622 266 1200 
z
" transform="scale(0.015625)"/>
      <path id="ArialMT-11" d="M 581 0 
L 581 641 
L 1222 641 
L 1222 0 
L 581 0 
z
" transform="scale(0.015625)"/>
      <path id="ArialMT-244" d="M 503 4581 
L 1109 4581 
L 1109 2575 
Q 1525 2575 1694 2736 
Q 1863 2897 2125 3509 
Q 2316 3959 2439 4145 
Q 2563 4331 2791 4457 
Q 3019 4584 3294 4584 
Q 3644 4584 3663 4578 
L 3663 4053 
Q 3631 4053 3541 4056 
Q 3441 4059 3419 4059 
Q 3128 4059 2988 3919 
Q 2844 3778 2659 3319 
Q 2428 2738 2268 2586 
Q 2109 2434 1888 2344 
Q 2331 2222 2763 1525 
L 3706 0 
L 2953 0 
L 2188 1244 
Q 1872 1759 1659 1951 
Q 1447 2144 1109 2144 
L 1109 0 
L 503 0 
L 503 4581 
z
" transform="scale(0.015625)"/>
      <path id="ArialMT-25e" d="M 866 3319 
L 3178 3319 
L 3178 463 
L 3538 463 
L 3538 -941 
L 3075 -941 
L 3075 0 
L 463 0 
L 463 -941 
L 0 -941 
L 0 463 
L 297 463 
Q 891 1269 866 3319 
z
M 1334 2853 
Q 1272 1238 834 463 
L 2619 463 
L 2619 2853 
L 1334 2853 
z
" transform="scale(0.015625)"/>
      <path id="ArialMT-26f" d="M 47 0 
L 1259 1725 
L 138 3319 
L 841 3319 
L 1350 2541 
Q 1494 2319 1581 2169 
Q 1719 2375 1834 2534 
L 2394 3319 
L 3066 3319 
L 1919 1756 
L 3153 0 
L 2463 0 
L 1781 1031 
L 1600 1309 
L 728 0 
L 47 0 
z
" transform="scale(0.015625)"/>
      <path id="ArialMT-25b" d="M 2853 4691 
L 3350 4684 
Q 3316 4350 3202 4219 
Q 3088 4088 2908 4050 
Q 2728 4013 2203 4013 
Q 1506 4013 1253 3878 
Q 1000 3744 889 3448 
Q 778 3153 766 2688 
Q 978 3003 1262 3161 
Q 1547 3319 1903 3319 
Q 2556 3319 2984 2870 
Q 3413 2422 3413 1656 
Q 3413 1075 3197 703 
Q 2981 331 2686 128 
Q 2391 -75 1881 -75 
Q 1291 -75 962 195 
Q 634 466 459 887 
Q 284 1309 284 2356 
Q 284 3672 729 4128 
Q 1175 4584 2100 4584 
Q 2675 4584 2753 4603 
Q 2831 4622 2853 4691 
z
M 2825 1672 
Q 2825 2191 2579 2522 
Q 2334 2853 1888 2853 
Q 1422 2853 1169 2503 
Q 916 2153 916 1569 
Q 916 991 1195 684 
Q 1475 378 1884 378 
Q 2303 378 2564 733 
Q 2825 1088 2825 1672 
z
" transform="scale(0.015625)"/>
     </defs>
     <use xlink:href="#ArialMT-247"/>
     <use xlink:href="#ArialMT-246" transform="translate(72.21875 0)"/>
     <use xlink:href="#ArialMT-24c" transform="translate(155.515625 0)"/>
     <use xlink:href="#ArialMT-3" transform="translate(216.59375 0)"/>
     <use xlink:href="#ArialMT-15" transform="translate(244.375 0)"/>
     <use xlink:href="#ArialMT-13" transform="translate(299.984375 0)"/>
     <use xlink:href="#ArialMT-15" transform="translate(355.59375 0)"/>
     <use xlink:href="#ArialMT-18" transform="translate(411.203125 0)"/>
     <use xlink:href="#ArialMT-11" transform="translate(466.8125 0)"/>
     <use xlink:href="#ArialMT-3" transform="translate(494.59375 0)"/>
     <use xlink:href="#ArialMT-244" transform="translate(522.375 0)"/>
     <use xlink:href="#ArialMT-27f" transform="translate(580.625 0)"/>
     <use xlink:href="#ArialMT-265" transform="translate(602.84375 0)"/>
     <use xlink:href="#ArialMT-276" transform="translate(661.1875 0)"/>
     <use xlink:href="#ArialMT-264" transform="translate(713.28125 0)"/>
     <use xlink:href="#ArialMT-27f" transform="translate(757.03125 0)"/>
     <use xlink:href="#ArialMT-26b" transform="translate(779.25 0)"/>
     <use xlink:href="#ArialMT-26c" transform="translate(829.25 0)"/>
     <use xlink:href="#ArialMT-276" transform="translate(875.046875 0)"/>
     <use xlink:href="#ArialMT-3" transform="translate(927.140625 0)"/>
     <use xlink:href="#ArialMT-25e" transform="translate(954.921875 0)"/>
     <use xlink:href="#ArialMT-25c" transform="translate(1013.265625 0)"/>
     <use xlink:href="#ArialMT-268" transform="translate(1065.265625 0)"/>
     <use xlink:href="#ArialMT-26f" transform="translate(1119.75 0)"/>
     <use xlink:href="#ArialMT-26b" transform="translate(1168.625 0)"/>
     <use xlink:href="#ArialMT-268" transform="translate(1219.75 0)"/>
     <use xlink:href="#ArialMT-26c" transform="translate(1273.15625 0)"/>
     <use xlink:href="#ArialMT-25b" transform="translate(1318.953125 0)"/>
     <use xlink:href="#ArialMT-25a" transform="translate(1373.9375 0)"/>
     <use xlink:href="#ArialMT-265" transform="translate(1429.546875 0)"/>
     <use xlink:href="#ArialMT-276" transform="translate(1487.890625 0)"/>
     <use xlink:href="#ArialMT-267" transform="translate(1539.984375 0)"/>
     <use xlink:href="#ArialMT-262" transform="translate(1595.203125 0)"/>
     <use xlink:href="#ArialMT-26f" transform="translate(1651.0625 0)"/>
     <use xlink:href="#ArialMT-3" transform="translate(1701.0625 0)"/>
     <use xlink:href="#ArialMT-26a" transform="translate(1728.84375 0)"/>
     <use xlink:href="#ArialMT-25f" transform="translate(1784.453125 0)"/>
     <use xlink:href="#ArialMT-261" transform="translate(1837.859375 0)"/>
     <use xlink:href="#ArialMT-26d" transform="translate(1882.578125 0)"/>
     <use xlink:href="#ArialMT-265" transform="translate(1930.375 0)"/>
     <use xlink:href="#ArialMT-276" transform="translate(1988.71875 0)"/>
     <use xlink:href="#ArialMT-26c" transform="translate(2033 0)"/>
     <use xlink:href="#ArialMT-25a" transform="translate(2077.671875 0)"/>
     <use xlink:href="#ArialMT-26c" transform="translate(2131.078125 0)"/>
     <use xlink:href="#ArialMT-27f" transform="translate(2176.875 0)"/>
     <use xlink:href="#ArialMT-25c" transform="translate(2199.09375 0)"/>
     <use xlink:href="#ArialMT-3" transform="translate(2252.21875 0)"/>
     <use xlink:href="#ArialMT-261" transform="translate(2280 0)"/>
     <use xlink:href="#ArialMT-25a" transform="translate(2325.84375 0)"/>
     <use xlink:href="#ArialMT-3" transform="translate(2381.453125 0)"/>
     <use xlink:href="#ArialMT-269" transform="translate(2409.234375 0)"/>
     <use xlink:href="#ArialMT-26a" transform="translate(2463.390625 0)"/>
     <use xlink:href="#ArialMT-25f" transform="translate(2519 0)"/>
     <use xlink:href="#ArialMT-25e" transform="translate(2572.40625 0)"/>
     <use xlink:href="#ArialMT-266" transform="translate(2630.75 0)"/>
     <use xlink:href="#ArialMT-25f" transform="translate(2699.5 0)"/>
     <use xlink:href="#ArialMT-26c" transform="translate(2751.796875 0)"/>
     <use xlink:href="#ArialMT-25a" transform="translate(2796.46875 0)"/>
     <use xlink:href="#ArialMT-266" transform="translate(2852.078125 0)"/>
     <use xlink:href="#ArialMT-262" transform="translate(2920.828125 0)"/>
    </g>
   </g>
  </g>
 </g>
 <defs>
  <clipPath id="p8d58c23376">
   <rect x="126" y="51.84" width="781.2" height="332.64"/>
  </clipPath>
 </defs>
</svg>
